<svg viewBox="0 0 793.35 635.87" xmlns="http://www.w3.org/2000/svg"><g fill="#fff"><path d="m549.05 18.29c1.26-.84 2.55-1.4 3.93-1.98 1.91-.8 3.62-1.86 5.59-2.12 2.03-.27 3.97.28 5.95.53 2.01.26 4.21-.2 6.07.57 1.87.77 3.68 1.88 5.29 3.11s2.58 3.1 3.83 4.72c1.21 1.57 2.1 3.28 2.9 5.19s1.5 3.73 1.76 5.7c.27 2.03-.23 3.93-.49 5.92s-.06 4.07-.82 5.94-1.42 3.9-2.65 5.52c-1.21 1.59-2.65 3.21-4.27 4.46s-3.43 2.35-5.34 3.15-4.01 1.49-5.97 1.76-4.18-.32-6.16-.58-4.03-.75-5.9-1.51-3.31-2.28-4.92-3.51c-1.59-1.21-3.11-2.45-4.36-4.07s-2.31-3.22-3.11-5.13c-.67-1.6-1.05-3.23-1.35-4.89-.3-1.68 0-3.32.09-5.03s-.43-3.45.03-5.12c.44-1.6-.37-3.15-1.97-3.59-1.6-.43-3.04.49-3.48 2.09-.58 2.1-1.54 4.16-1.64 6.28-.11 2.15 1.16 4.2 1.54 6.32.37 2.09.17 4.33 1.01 6.34.75 1.79 1.96 3.3 3 4.86 1.08 1.6 1.88 3.43 3.22 4.76s3.43 1.8 5.01 2.84 2.65 3.17 4.41 3.9 4.02-.12 5.89.25c1.86.37 3.62 1.12 5.54 1.12 1.9 0 3.78-.17 5.68-.55 1.85-.37 3.68-.86 5.48-1.62 1.8-.75 3.41-1.73 4.97-2.78s3.28-2.05 4.61-3.39 1.92-3.31 2.97-4.89 3.02-2.71 3.75-4.48c.72-1.76.31-3.9.68-5.78s1.56-3.69 1.55-5.61c0-1.89-.63-3.82-1.01-5.72-.37-1.84-1.03-3.66-1.78-5.45-.75-1.8-2.14-3.17-3.19-4.72s-2.11-3.12-3.45-4.45-2.89-2.38-4.47-3.43-3.25-1.78-5.01-2.51-3.45-1.4-5.32-1.77-3.67-.65-5.6-.65-3.92-.82-5.82-.43-3.5 1.65-5.3 2.4c-1.74.73-3.3 1.79-4.88 2.85-1.38.92-1.62 2.34-.7 3.72s2.8 2.4 4.18 1.48z"/><path d="m98 417.95c0-1.66-1.79-2.75-2.88-3.84s-2.18-1.93-3.84-1.93-2.78.82-3.86 1.9-1.72 2.21-1.72 3.86.32 3.09 1.41 4.17 2.52 1.22 4.17 1.22 2.75-.47 3.84-1.55 2.88-2.18 2.88-3.84z"/><path d="m554.88 96.9c1.15 0 2.69-.13 3.19-1.25.81-1.83.95-3.93 1.59-5.8.65-1.89 1.04-3.82 1.51-5.75.48-1.93 1.67-3.73 1.97-5.7.3-1.96-.06-4.02.07-6.01.11-1.65-1.06-3.15-2.72-3.26-1.67-.11-3.83 1.17-3.93 2.83-.12 1.81.52 3.68.24 5.47s-1.32 3.41-1.76 5.17c-.43 1.76-.43 3.62-1.02 5.33s-1.81 3.14-2.55 4.8c-.67 1.52.9 3.06 2.41 3.73.39.18.58.44.98.44z"/><path d="m725.42 378.75c1.54-2.85-1.85-2.43-3.33-5.31s-.59-3.34-2.07-6.22-.4-4.03-3.24-5.59c-2.44-1.34-2.5-.44-5.22.14s-6.56.14-6.32 2.02 2.82 2.77 5.04 5.37c2.23 2.6 2.37 2.47 4.6 5.06 2.23 2.6 1.63 3.22 4.3 5.36s4.7 1.98 6.22-.83z"/><path d="m744.25 425.7c-2.25-2.65-3.59 1.33-6.98 2.08s-3.53.14-6.93.89-6.49.22-7.01 1.63 1.96 2.43 3.79 4.59 1.68 2.29 3.51 4.44 2.61 4.34 4.05 4.43 1.36-3.34 2.92-6.25.79-3.52 3.04-5.95c2.64-2.85 5.74-3.34 3.61-5.86z"/><path d="m434.01 93.97c.77 1.84 1.31 3.76 2.23 5.51s2.01 3.42 3.08 5.08c1.08 1.67 2.31 3.22 3.52 4.78 1.22 1.57 2.66 2.91 4.01 4.36s2.25 3.36 3.72 4.69 3.43 2.06 5.02 3.26c1.58 1.19 3.05 2.53 4.73 3.58s3.5 1.82 5.27 2.72 3.58 1.62 5.42 2.36 3.43 2.17 5.34 2.75c1.89.57 4.06.08 6 .48s3.78 1.21 5.76 1.44c1.96.23 3.91.77 5.91.83.03 0 .07-.02.1-.02 1.62 0 2.86-1.52 2.91-3.15.05-1.66-1.16-3.03-2.82-3.07-1.97-.06-3.87-.64-5.8-.88-1.95-.25-4.05.35-5.95-.08-1.92-.43-3.78-1.18-5.64-1.79-1.87-.61-3.76-1.23-5.55-2.01s-3.28-2.23-4.99-3.17-3.53-1.71-5.15-2.82c-1.61-1.11-3.18-2.29-4.68-3.55s-3.08-2.45-4.46-3.85-2.02-3.41-3.26-4.94-2.34-3.05-3.43-4.69c-1.08-1.62-2.37-3.08-3.3-4.82s-1.96-3.37-2.72-5.19c-.78-1.87-1.2-3.84-1.79-5.75-.6-1.93-1.69-3.73-2.09-5.69-.4-1.98-.2-4.05-.41-6.05s-1.24-3.99-1.24-6 1.5-3.96 1.69-5.96-.64-4.14-.25-6.12.74-4.01 1.32-5.94 2.04-3.55 2.81-5.42 1.51-3.73 2.44-5.5 1.31-3.94 2.42-5.61c1.11-1.68 3.1-2.75 4.37-4.3 1.27-1.56 2.16-3.48 3.57-4.9 1.42-1.43 3.54-2.07 5.09-3.35s2.89-2.77 4.57-3.89 3.48-1.94 5.26-2.89c1.76-.94 3.1-2.85 4.97-3.63s4.15-.43 6.06-1.02 3.85-1.03 5.82-1.43c1.98-.4 3.89-1.03 5.89-1.23s4-.24 6.01-.24 4.01-.06 6.02.13 3.88 1.02 5.86 1.41c1.97.39 3.88.8 5.82 1.38s3.97.73 5.84 1.5 3.99 1.07 5.76 2 2.87 3.07 4.54 4.18 3.41 2.07 4.97 3.34 2.97 2.66 4.39 4.07 3.61 2.16 4.89 3.72 2.59 3.16 3.72 4.84c1.11 1.67 2.2 3.44 3.16 5.23s1.16 3.93 1.94 5.8c.68 1.63 1.63 3.22 2.17 4.94s.22 3.63.62 5.39c.37 1.62 2.48 2.72 4.1 2.36s3.16-2.3 2.8-3.92c-.43-1.93-1.87-3.59-2.46-5.45-.6-1.89-.59-3.99-1.34-5.79-.76-1.82-1.38-3.75-2.29-5.48s-2.71-2.99-3.76-4.64-2.03-3.35-3.23-4.9-2.19-3.3-3.52-4.74-2.83-2.75-4.28-4.07-3.18-2.3-4.75-3.49c-1.56-1.19-2.9-2.7-4.56-3.75s-3.35-2.07-5.11-2.97c-1.74-.89-3.5-1.83-5.32-2.58-1.83-.75-3.65-1.61-5.51-2.2s-4-.34-5.91-.76-3.71-1.72-5.66-1.98c-1.95-.25-3.79.2-5.75.11-1.96-.08-4.17-.61-6.13-.51-1.96.09-3.87 1.01-5.82 1.27-1.94.26-3.81.87-5.73 1.31-1.91.43-3.73 1.06-5.61 1.66s-4.08.26-5.9 1.03c-1.82.76-3.54 1.83-5.27 2.74-1.75.91-3.09 2.51-4.74 3.57-1.66 1.06-3.63 1.67-5.18 2.86s-3.11 2.45-4.55 3.78-2.76 2.82-4.08 4.28c-1.32 1.45-2.75 2.85-3.94 4.42s-2.31 3.21-3.36 4.88c-1.04 1.65-1.58 3.62-2.48 5.38s-1.58 3.57-2.33 5.39c-.75 1.83-1.01 3.78-1.59 5.64-.59 1.88-2.05 3.51-2.47 5.42-.42 1.92-.42 3.93-.68 5.87s-.4 3.9-.48 5.86-.84 3.96-.75 5.92.85 3.9 1.11 5.85c.26 1.94.8 3.84 1.24 5.76s.73 3.87 1.33 5.74c.6 1.86 1.74 3.52 2.5 5.35z"/><path d="m235.77 441.41c-.44-.9-3.24.09-5.9.53-2.67.44-2.59.89-5.26 1.33s-3.16.03-5.44.96c-1.2.49.36 1.69 1.42 2.44 2.26 1.6 2.65.83 5.19 1.94s3.94 2.65 4.84 2.19.68-2.39 2.39-4.36c2.08-2.4 3.2-4.13 2.76-5.03z"/><path d="m317.84 9.67c1.96 0 3.93-.89 5.88-.86 1.96.04 3.93.02 5.88.1 1.96.07 3.87 1.15 5.82 1.26 1.96.11 3.91.04 5.86.18s3.98-.54 5.92-.36 3.79 1.47 5.73 1.69 3.88.48 5.81.74c1.94.26 3.89.38 5.83.67s3.92.27 5.85.6 3.78 1.06 5.7 1.43 3.99 0 5.91.41 3.92.45 5.83.89 3.63 1.68 5.53 2.15 3.73 1.19 5.62 1.7 3.68 1.34 5.56 1.89 4.08.02 5.95.6 3.65 1.46 5.5 2.08c1.86.62 3.51 1.82 5.36 2.47 1.85.66 3.97.53 5.8 1.22s4.28 3.2 5.6 2.94c1.32-.27 5.27-6.16 4.83-7.36s-4.26-1.74-6.16-2.46c-1.9-.73-3.92-1.14-5.84-1.83s-3.63-1.98-5.56-2.63-3.97-.98-5.91-1.6-3.83-1.43-5.78-2.01-4.22-.05-6.18-.59-3.63-2.21-5.6-2.71-4.25.27-6.24-.19c-1.98-.46-3.93-1.02-5.92-1.44s-3.82-1.65-5.82-2.03c-2-.39-3.94-1.14-5.94-1.49s-4.09-.27-6.1-.58-4.03-.63-6.05-.9-4.09-.07-6.12-.3c-2.02-.23-3.98-1.07-6.01-1.26-2.02-.19-4.04-.67-6.07-.82s-4.15 1.01-6.18.9c-2.03-.12-4.05-.2-6.09-.28-2.03-.08-4.04-1.03-6.08-1.07s-4.08-.15-6.11-.15-3.95.82-5.92.86-3.98-.71-5.95-.64c-1.98.07-3.98-.12-5.95 0s-3.94.53-5.91.68-3.87 1.18-5.84 1.36-4.01-.33-5.97-.11c-1.97.22-3.85 1.1-5.81 1.36-1.96.25-3.92.45-5.88.74s-4.07-.4-6.02-.07-3.89.78-5.83 1.15-3.83 1.06-5.77 1.46-3.98.35-5.91.79-3.75 1.35-5.67 1.83-3.82 1.03-5.73 1.54-3.89.8-5.79 1.35-3.79 1.15-5.68 1.73-3.71 1.41-5.59 2.02-3.47 2.07-5.34 2.72-4.14.17-5.99.85c-1.85.69-3.72 1.37-5.56 2.09s-3.4 2.16-5.22 2.92c-1.83.76-3.75 1.27-5.57 2.06s-3.88 1.03-5.68 1.85c-1.8.83-3.24 2.41-5.02 3.27s-3.49 1.85-5.26 2.74c-1.76.89-3.79 1.27-5.54 2.2s-3.6 1.68-5.33 2.64-3.17 2.43-4.89 3.42c-1.71.99-3.62 1.66-5.31 2.68s-2.91 2.82-4.58 3.87-3.35 2.08-5.01 3.17-3.58 1.76-5.21 2.88-3.14 2.41-4.75 3.56-3.22 2.29-4.81 3.47-3 2.57-4.57 3.78c-1.56 1.21-3.48 1.97-5.03 3.2-1.54 1.23-2.81 2.8-4.34 4.07s-3.58 1.89-5.08 3.19c-1.5 1.29-3.93 3.03-3.93 4.43s3.65 6.29 4.54 6.51c.9.22 3.31-2.08 4.81-3.38s2.69-2.96 4.21-4.24c1.53-1.27 2.56-3.16 4.11-4.4s3.76-1.65 5.33-2.87 3.15-2.42 4.74-3.6 3.2-2.35 4.82-3.5 3.03-2.6 4.67-3.72 3.29-2.24 4.95-3.32 3-2.7 4.68-3.76 3.75-1.66 5.45-2.69c1.7-1.02 3.12-2.39 4.84-3.38s3.55-1.82 5.29-2.78 3.54-1.82 5.3-2.74 3.98-.94 5.76-1.83 3.12-2.66 4.91-3.52 3.48-1.97 5.29-2.79 4.12-.5 5.95-1.29c1.83-.78 3.7-1.41 5.55-2.15 1.84-.75 3.51-1.89 5.37-2.6s3.7-1.43 5.57-2.1 3.65-1.59 5.53-2.23 3.68-1.54 5.57-2.14 3.79-1.2 5.7-1.77c1.9-.56 3.91-.79 5.83-1.32s3.81-1.13 5.74-1.62c1.92-.49 3.83-1.07 5.77-1.52s3.83-1.11 5.77-1.52 4.04-.09 5.99-.47 3.78-1.4 5.74-1.74 3.97-.39 5.93-.69 3.9-.8 5.87-1.07c1.97-.26 3.94-.6 5.91-.82 1.97-.23 4.03.38 6.01.2s3.87-1.37 5.85-1.52 4 .22 5.99.1c1.98-.11 3.98.19 5.97.11s3.96-.15 5.95-.19 3.97.28 5.96.28z"/><path d="m1.11 318.25c0 1.98-.53 3.96-.49 5.94s.3 3.95.38 5.93-.11 3.97 0 5.94c.11 1.98.02 3.97.17 5.94s.81 3.91.99 5.87c.18 1.97-.28 4.01-.07 5.97.22 1.97 1.62 3.79 1.87 5.75s-.21 4.02.08 5.97.71 3.89 1.04 5.84 1.39 3.77 1.75 5.71c.36 1.95.58 3.91.98 5.84.4 1.94.15 4.01.59 5.94s.39 3.98.86 5.9 2.02 3.57 2.53 5.48.88 3.85 1.43 5.75 1.47 3.68 2.06 5.57c.58 1.89.37 4.03.99 5.91s1.22 3.77 1.87 5.63 1.06 3.83 1.75 5.68 1.53 3.66 2.25 5.5 1.35 3.73 2.11 5.55c.76 1.83 1.6 3.63 2.39 5.44s2.18 3.36 3 5.16 1.43 3.69 2.29 5.47 2.01 3.41 2.91 5.18 1.07 3.9 2 5.65 2.43 3.19 3.39 4.92 1.79 3.53 2.78 5.24 2.38 3.18 3.4 4.88c1.02 1.69 1.64 3.63 2.7 5.3 1.05 1.67 2.23 3.27 3.32 4.92s2.7 2.94 3.81 4.58c1.12 1.63 2.28 3.21 3.43 4.82s1.75 3.61 2.93 5.2 2.65 2.95 3.86 4.52c1.21 1.56 2.75 2.85 3.99 4.4 1.23 1.54 2.07 3.4 3.34 4.92s2.58 2.99 3.88 4.48c1.29 1.5 2.07 3.44 3.39 4.92s3.29 2.34 4.64 3.79c1.34 1.45 2.37 3.2 3.74 4.62s2.74 2.85 4.14 4.25 2.63 2.98 4.05 4.35 2.66 2.96 4.11 4.3c1.45 1.35 3.21 2.36 4.68 3.68s2.85 2.76 4.35 4.05 3.47 2.02 4.99 3.29 3.26 2.25 4.8 3.49 2.71 2.94 4.28 4.15 3.51 1.9 5.1 3.08 2.89 2.74 4.5 3.89 3.06 2.53 4.69 3.65 3.45 1.96 5.1 3.04c1.65 1.09 3.16 2.4 4.83 3.45 1.67 1.06 3.57 1.74 5.26 2.77 1.69 1.02 3.35 2.1 5.06 3.09s3.22 2.34 4.95 3.3 3.23 2.36 4.97 3.29 3.87 1.14 5.64 2.03 3.29 2.28 5.07 3.14 4.08.62 5.87 1.45c1.8.83 3.18 2.57 4.99 3.36s3.66 1.51 5.49 2.26 3.67 1.48 5.51 2.2 3.78 1.18 5.64 1.87c1.85.69 3.47 2.04 5.34 2.69s3.89.87 5.77 1.48 3.9.79 5.79 1.37 3.82 1.02 5.72 1.56 3.55 2.02 5.46 2.53 3.94.58 5.86 1.05 3.77 1.28 5.7 1.72 3.91.66 5.85 1.06 3.91.63 5.85 1 3.98.18 5.93.5c1.95.33 3.83 1.08 5.79 1.37 1.95.29 4.01-.19 5.98.07 1.96.25 3.8 1.45 5.77 1.67s3.94.43 5.91.61 4-.42 5.97-.27c1.97.14 3.88 1.29 5.86 1.4 1.97.11 3.99-.69 5.97-.62s3.93.95 5.91.99c1.97.04 3.96-.28 5.94-.28 2.5 0 4.99-.15 7.48-.21s7.38.21 7.71-.13-.26-7.61-.94-8.17-4.74.21-7.12.26-4.76.09-7.14.09c-2.03 0-4.04-.68-6.06-.72s-4.04-.08-6.06-.16c-2.03-.08-4.03-.28-6.05-.4s-4.05.03-6.07-.13-4.08.23-6.09.03c-2.02-.2-4.08-.01-6.09-.25s-3.89-1.49-5.9-1.76-4.11.13-6.11-.19-3.93-1.03-5.93-1.38-4-.64-5.98-1.03-4.05-.41-6.03-.84-3.88-1.19-5.85-1.66-4.01-.68-5.96-1.19-4-.74-5.95-1.28c-1.95-.55-3.61-2.1-5.54-2.68s-3.87-1.15-5.8-1.77-4.01-.76-5.92-1.43-3.58-2-5.48-2.7-3.89-1.14-5.77-1.87c-1.88-.74-3.84-1.28-5.71-2.06s-3.85-1.3-5.7-2.11-3.74-1.56-5.58-2.41-3.34-2.41-5.16-3.29-3.96-1.13-5.76-2.05-3.52-2.02-5.3-2.98-3.68-1.72-5.45-2.71-3.45-2.12-5.2-3.15-3.57-1.93-5.29-2.99-3.06-2.73-4.76-3.83c-1.7-1.09-3.7-1.74-5.38-2.87s-2.9-2.92-4.56-4.08-3.4-2.18-5.04-3.37-3.6-1.94-5.21-3.17c-1.61-1.22-3.06-2.66-4.65-3.91s-3.1-2.59-4.67-3.88c-1.56-1.29-2.88-2.85-4.42-4.17s-3.66-1.96-5.17-3.31c-1.51-1.34-2.31-3.47-3.8-4.84s-2.85-2.85-4.31-4.26c-1.46-1.4-3.09-2.61-4.52-4.05s-3.14-2.59-4.54-4.05-3.28-2.48-4.65-3.97c-1.38-1.49-2.64-3.09-3.98-4.6s-2.41-3.28-3.73-4.81c-1.32-1.54-2.25-3.4-3.54-4.96s-2.94-2.83-4.2-4.41-2.38-3.28-3.61-4.89-2.28-3.35-3.47-4.99-3.15-2.73-4.31-4.39-1.35-3.99-2.48-5.67-3.01-2.87-4.1-4.57c-1.1-1.7-2.13-3.45-3.19-5.18s-1.92-3.58-2.95-5.32-2.3-3.36-3.29-5.12c-.99-1.77-1.85-3.61-2.8-5.4-.96-1.78-1.63-3.72-2.55-5.52s-1.84-3.61-2.72-5.43-1.3-3.86-2.15-5.7-1.37-3.81-2.18-5.66-2.64-3.27-3.41-5.14-1.08-3.93-1.82-5.82c-.74-1.88-1.02-3.94-1.72-5.83s-1.64-3.7-2.3-5.62c-.66-1.91-1.34-3.82-1.96-5.74s-.78-3.99-1.37-5.92-2.37-3.52-2.91-5.47c-.55-1.95.12-4.22-.39-6.18s-2.03-3.66-2.5-5.63-1.13-3.9-1.56-5.88-.31-4.07-.7-6.06c-.39-1.98-.31-4.05-.66-6.05s-1.41-3.87-1.72-5.87.1-4.1-.17-6.11-.91-3.96-1.14-5.97-.94-3.97-1.13-5.99-.22-4.05-.37-6.07.79-4.1.68-6.13c-.12-2.02-1.06-3.99-1.13-6.02s.55-4.06.51-6.08-.1-4.03-.1-6.06-.3-4.01-.26-6.01-.23-4.02-.16-6.02c.08-2.01.71-3.98.82-5.98s-.57-4.06-.42-6.06.11-4.03.3-6.02c.19-2 .72-3.97.95-5.96s.65-3.97.92-5.95.78-3.94 1.08-5.92.5-3.98.84-5.96c.35-1.98 1.13-3.87 1.52-5.83.38-1.97.61-3.96 1.03-5.92s.38-4.03.84-5.98 1.76-3.69 2.26-5.64c.5-1.94.96-3.88 1.5-5.82s.58-4 1.16-5.92c.57-1.92 1.87-3.61 2.48-5.52s.6-4.02 1.25-5.91 1.69-3.65 2.37-5.54c.69-1.88.66-4.03 1.39-5.9s1.38-3.77 2.15-5.63 2.25-3.4 3.05-5.24.86-4.01 1.69-5.83 1.71-3.64 2.58-5.45 2.55-3.21 3.46-5c.9-1.79 1.42-3.78 2.36-5.55s1.66-3.66 2.64-5.42 1.96-3.51 2.97-5.24 2.08-3.43 3.12-5.15c1.04-1.71 2.32-3.28 3.39-4.98s2.54-3.12 3.65-4.8c1.11-1.67 1.44-3.87 2.58-5.52s2.59-3.09 3.76-4.72 2.68-3 3.89-4.61c1.2-1.6 2.23-3.34 3.47-4.92s2.07-3.49 3.33-5.04 3.25-2.52 4.54-4.05 2.31-3.3 3.64-4.8 2.57-3.08 3.93-4.56c1.35-1.48 4.16-3.32 4.2-4.32s-3.37-6.82-4.45-6.82-3.07 2.5-4.44 3.98-2.85 2.89-4.19 4.4-2 3.63-3.31 5.17-2.57 3.12-3.85 4.68-3.33 2.51-4.59 4.09-2.35 3.31-3.58 4.92-1.76 3.74-2.95 5.37c-1.2 1.63-3.27 2.64-4.43 4.29s-2.34 3.31-3.48 4.99-2.13 3.46-3.23 5.15-1.9 3.59-2.97 5.31-2.46 3.25-3.5 4.98-1.4 3.87-2.4 5.63-1.65 3.7-2.62 5.48-2.62 3.18-3.56 4.98c-.93 1.8-2.06 3.5-2.96 5.31s-2.07 3.51-2.93 5.34-.67 4.15-1.5 5.99-1.9 3.58-2.69 5.44-2.12 3.51-2.87 5.38c-.76 1.88-.71 4.07-1.42 5.96-.72 1.89-2.26 3.48-2.94 5.38s-1.4 3.81-2.04 5.73-1 3.94-1.61 5.87-.9 3.96-1.47 5.9-1.75 3.71-2.28 5.67-.74 4-1.23 5.96-1.19 3.88-1.65 5.85.21 4.19-.21 6.17-1.98 3.73-2.36 5.71.53 4.2.19 6.2c-.34 1.99-.78 3.96-1.08 5.96s-1.42 3.88-1.68 5.89c-.27 2-.9 3.97-1.13 5.98s-.03 4.07-.22 6.09-.39 4.03-.54 6.05c-.15 2.01.17 4.06.05 6.09-.11 2.02-.84 4.01-.91 6.03-.08 2.02-.44 4.04-.47 6.07s1.11 4.06 1.11 6.08z"/><path d="m317.84 45.67c-2.02 0-4.03.05-6.04.09s-4.05-.29-6.06-.2-4.03.28-6.04.41c-2.02.13-4.01.48-6.02.66-2.02.18-4.08-.19-6.08.03s-4.06.17-6.05.44-3.85 1.62-5.84 1.93-4.22-.71-6.2-.36-3.84 1.5-5.81 1.9-3.88 1.14-5.85 1.59-3.85 1.2-5.81 1.69-4.25-.28-6.19.25c-1.95.53-3.87 1.22-5.8 1.79s-3.63 1.95-5.55 2.57-3.88 1.11-5.79 1.77-3.89 1.12-5.78 1.82-4.02.84-5.89 1.58-3.69 1.68-5.55 2.46c-1.86.79-3.81 1.41-5.65 2.24s-3.28 2.53-5.1 3.4-3.67 1.68-5.47 2.59-3.31 2.36-5.09 3.31-4.03 1.03-5.79 2.02-3.23 2.48-4.97 3.5-3.31 2.31-5.02 3.38c-1.72 1.07-3.48 2.03-5.17 3.14-1.69 1.1-3.51 2-5.18 3.14s-3.1 2.61-4.74 3.78c-1.64 1.18-3.2 2.45-4.81 3.66s-3.9 1.54-5.49 2.79-3.28 2.38-4.84 3.66-3.08 2.63-4.61 3.95-3.06 2.66-4.56 4.01-2.57 3.18-4.04 4.57-4.1 2.64-4.1 4.3.32 2.22.67 3.76.42 4.41 1.21 4.72 2.26-2.73 3.7-4.13 4.01-3.46 5.48-4.83 1.87-2.06 3.37-3.39 3.65-1.93 5.18-3.23 3.36-2.22 4.92-3.48c1.56-1.27 3.52-3.07 5.1-4.3s2.19-2.66 3.8-3.85 3.82-1.55 5.46-2.71 2.8-3 4.46-4.12 3.22-2.41 4.91-3.5 3.76-1.55 5.48-2.59 3.44-2.05 5.18-3.05 3.16-2.56 4.92-3.53c1.76-.96 3.77-1.45 5.56-2.38 1.78-.92 3.43-2.1 5.24-2.99s3.67-1.62 5.5-2.46c1.82-.84 3.37-2.31 5.21-3.12 1.84-.8 4.17-.43 6.03-1.19s3.43-2.21 5.31-2.93c1.87-.72 3.74-1.47 5.63-2.14s3.8-1.3 5.71-1.93 4.06-.45 5.98-1.03 3.82-1.17 5.76-1.72 3.54-2.31 5.48-2.81 4.23.42 6.19-.03c1.95-.45 3.63-2.16 5.6-2.57s4.07-.12 6.05-.48 4.01-.31 5.99-.63 3.83-1.54 5.82-1.81c1.98-.27 4.07.18 6.06-.05s3.92-1.11 5.92-1.3 4.07.54 6.07.41c2-.14 3.97-.79 5.98-.88s4.02.44 6.03.39 4-.35 6.01-.35 4.01-.7 6-.66 3.98.68 5.98.77 3.98.34 5.97.48c2 .13 4.02-.15 6.01.03s3.95.71 5.93.93 3.96.54 5.94.81 4.08-.19 6.05.12 3.83 1.38 5.79 1.74 4.06.09 6.01.49 3.78 1.47 5.72 1.92c1.95.45 4 .49 5.93.99s3.92.84 5.85 1.37 3.69 1.64 5.6 2.22 3.8 1.23 5.7 1.85 3.92.89 5.8 1.55 3.81 1.25 5.67 1.96c1.87.71 3.56 1.88 5.41 2.63s4.22 2.83 5.22 1.99.74-7.5.19-8.61-3.83-1.37-5.68-2.1c-1.85-.72-3.61-1.68-5.48-2.37-1.87-.68-3.68-1.55-5.56-2.19s-3.93-.79-5.83-1.39c-1.89-.6-3.61-1.82-5.52-2.38s-4.14.03-6.06-.48c-1.92-.52-3.65-1.73-5.59-2.21s-3.89-.82-5.84-1.25c-1.94-.43-4.03-.13-5.98-.52s-3.86-.92-5.82-1.27c-1.96-.34-3.8-1.34-5.77-1.64-1.96-.3-3.87-1.1-5.84-1.36s-4.08.59-6.06.37-3.93-.57-5.91-.74-3.98.06-5.97-.07-3.92-1.08-5.91-1.17c-1.98-.09-3.97-.19-5.97-.23-1.98-.04-3.98.74-5.97.74z"/><path d="m427.88 40.14c.54-1.3 2.31-2.56 1.65-3.69-.65-1.13-3.73-1.16-5.61-1.87s-3.47-2.23-5.36-2.89c-1.9-.66-4.14-.29-6.05-.92s-3.54-2.11-5.46-2.7-3.82-1.27-5.76-1.82c-1.93-.55-3.88-1.09-5.82-1.6s-4.13-.05-6.08-.52-3.9-.93-5.86-1.36-3.84-1.24-5.81-1.63-3.95-.7-5.93-1.05-3.92-.88-5.91-1.2-3.92-.98-5.91-1.26-3.95-.89-5.94-1.13-4.14.9-6.14.71c-2-.2-3.98-.51-5.98-.67s-4.01-.14-6.01-.26-4-.24-6.01-.32-3.98-1.15-5.99-1.19-4.02.3-6.04.3-4.03 0-6.03.04-4.01.37-6.02.45-3.99.62-6 .74-4.04-.16-6.04 0c-2.01.16-4.1-.65-6.1-.45s-3.99.68-5.98.92c-2 .24-3.85 1.61-5.84 1.88-1.99.28-4.03.19-6.01.5-1.99.32-3.93.85-5.91 1.21s-4.03.33-6 .73c-1.97.39-3.99.59-5.95 1.02s-3.77 1.53-5.73 2-3.99.59-5.94 1.1-4.1.28-6.03.83-3.47 2.45-5.39 3.04-4.09.39-6 1.01c-1.91.63-3.54 2.07-5.44 2.74s-4.19.22-6.08.93-3.34 2.5-5.21 3.24-4.1.59-5.95 1.37-3.85 1.26-5.69 2.08-3.66 1.69-5.48 2.55c-1.82.85-3.46 2.09-5.27 2.99s-3.23 2.52-5.01 3.45-3.52 1.91-5.29 2.87-3.84 1.36-5.58 2.36-3.3 2.32-5.03 3.35c-1.72 1.03-3.84 1.44-5.54 2.5s-3.28 2.35-4.96 3.45-3.59 1.88-5.25 3.01-3.11 2.59-4.74 3.76c-1.64 1.17-3.23 2.4-4.85 3.6-1.61 1.2-2.88 2.85-4.48 4.08s-3.74 1.76-5.3 3.02-2.71 3.04-4.25 4.34-3.03 2.63-4.55 3.96c-1.51 1.32-3.99 2.69-3.99 3.97s1.11 3.81 2.07 5.72c.96 1.9 2.01 3.74 2.88 5.7.86 1.94 1.22 4.08 1.98 6.07s2.01 5.75 2.82 5.75 3.07-2.48 4.52-3.82 2.93-2.65 4.41-3.95c1.48-1.31 3.02-2.54 4.53-3.81 1.51-1.28 2.91-2.68 4.44-3.92s2.97-2.61 4.53-3.83 3.04-2.54 4.63-3.72 3.61-1.75 5.22-2.89 3.11-2.43 4.75-3.54c1.63-1.11 3.44-1.94 5.1-3.02 1.66-1.07 3.32-2.12 5-3.16s3.05-2.58 4.75-3.59c1.7-1 3.13-2.49 4.86-3.46s3.36-2.12 5.11-3.05 3.99-.9 5.75-1.8 3.52-1.78 5.3-2.63c1.78-.86 3.67-1.46 5.47-2.27s3.39-2.08 5.21-2.86 3.37-2.19 5.21-2.93c1.83-.74 3.93-.8 5.78-1.51s3.92-.77 5.78-1.43 3.33-2.45 5.21-3.08c1.87-.62 3.92-.74 5.81-1.32s3.98-.45 5.88-.99 3.56-1.94 5.47-2.44 3.96-.43 5.89-.89c1.92-.46 3.73-1.4 5.66-1.82s3.96-.34 5.9-.72c1.94-.37 3.81-1.13 5.76-1.46s3.88-.79 5.83-1.09c1.95-.29 3.92-.48 5.89-.73 1.96-.25 3.86-1.05 5.83-1.26 1.96-.21 4.06.99 6.03.82s3.92-.42 5.89-.55 3.93-.18 5.91-.26c1.97-.08 3.92-.58 5.91-.62 1.97-.04 3.94-.08 5.93-.08s4-.31 5.99-.27c2 .04 3.99.35 5.98.43s4.03-.46 6.02-.33 4 .25 5.98.42c1.99.17 3.95.76 5.93.97s3.99.37 5.96.62 3.99.34 5.96.64c1.98.3 3.86 1.18 5.82 1.52s3.87 1 5.83 1.38 4.14-.27 6.08.16c1.95.43 3.59 2.21 5.53 2.68s4.06.2 5.99.71 3.95.72 5.86 1.27c1.92.55 3.93.83 5.84 1.43s3.4 2.46 5.29 3.09 3.81 1.16 5.69 1.83 4.03.61 5.89 1.32 4.19 3.08 5.35 2.37.79-4.28 1.25-6.48c.46-2.19 1.63-4.16 2.29-6.32s.63-4.49 1.49-6.58z"/><path d="m14.83 318.25c0 1.99-.69 3.98-.66 5.97s1.1 3.94 1.18 5.92c.08 1.99.17 3.96.29 5.94.11 1.98-.24 3.99-.09 5.97s-.23 4.01-.04 5.99 1.59 3.83 1.82 5.79c.23 1.97.23 3.96.5 5.93s-.16 4.04.14 6 .54 3.95.88 5.9 1.88 3.69 2.26 5.63.35 3.97.78 5.91c.42 1.94 1.21 3.79 1.67 5.72s.55 3.95 1.04 5.87 1.2 3.78 1.74 5.69.51 3.98 1.09 5.88c.57 1.9.69 3.95 1.3 5.84s1.31 3.76 1.95 5.64 2.26 3.41 2.95 5.27 1.34 3.73 2.06 5.58 1.45 3.69 2.21 5.52 1.04 3.87 1.84 5.69 1.84 3.53 2.68 5.33 1.26 3.8 2.13 5.59c.87 1.78 1.88 3.5 2.79 5.27.9 1.77 1.88 3.5 2.82 5.25s2.68 3.05 3.65 4.78 1.87 3.49 2.88 5.2 1.71 3.59 2.75 5.28 1.85 3.52 2.93 5.19c1.07 1.67 2.17 3.32 3.28 4.97s2.57 3.04 3.71 4.67 1.91 3.51 3.08 5.11 3.06 2.66 4.26 4.24 2.34 3.19 3.57 4.75 1.87 3.58 3.14 5.11c1.26 1.53 2.84 2.79 4.13 4.3s2.86 2.76 4.18 4.24 1.75 3.77 3.1 5.23 3.04 2.6 4.42 4.03 2.53 3.09 3.93 4.49c1.41 1.41 3.21 2.41 4.63 3.79s2.63 3.01 4.08 4.35 3.56 1.98 5.04 3.3 2.12 3.61 3.63 4.9 3.78 1.68 5.31 2.94 3.11 2.45 4.67 3.68 2.72 2.96 4.3 4.16 3.06 2.55 4.66 3.72 3.3 2.22 4.92 3.36 3.18 2.39 4.83 3.49c1.65 1.11 3.66 1.66 5.33 2.73s2.82 2.97 4.51 4.01 3.35 2.16 5.06 3.17 3.89 1.21 5.62 2.18 3.1 2.61 4.85 3.54 3.47 1.96 5.23 2.87 3.63 1.65 5.41 2.52 3.98.88 5.78 1.71 3.26 2.43 5.08 3.23 3.79 1.26 5.62 2.02 3.75 1.32 5.6 2.04 3.65 1.58 5.51 2.26 3.84 1.04 5.72 1.69 3.77 1.22 5.66 1.83 3.52 2.04 5.42 2.62c1.9.57 4.1.13 6.01.66s3.65 1.69 5.57 2.19 3.85 1 5.78 1.46 4.05.06 5.99.48 3.82 1.08 5.77 1.47c1.95.38 3.72 1.71 5.68 2.05s4.09-.4 6.05-.1c1.96.31 3.75 1.78 5.72 2.05s3.95.49 5.92.72 4.04-.44 6.02-.25c1.97.19 3.9.95 5.88 1.1s4-.41 5.99-.29 3.93.89 5.92.96 3.97.07 5.96.1 3.97-.84 5.96-.84c2.21 0 4.41.11 6.62.06s6.17.53 6.61.21-1.01-4.1-1.6-6.13c-.6-2.05-1.85-3.84-2.6-5.82-.75-1.99-1.37-3.99-2.27-5.91-.91-1.93-1.72-5.37-2.12-5.57s-3.21.36-4.64.36c-2.01 0-4.01-.53-6.01-.57s-4-.45-5.99-.53c-2-.09-3.98-.51-5.97-.64-2-.13-4.06.54-6.05.37s-4-.37-5.98-.59c-1.99-.21-3.98-.54-5.96-.8s-3.95-.7-5.93-1-4.05-.1-6.02-.44c-1.98-.34-3.95-.72-5.91-1.11-1.97-.39-3.9-.98-5.85-1.41s-3.96-.69-5.9-1.16-3.86-1.11-5.8-1.62-3.77-1.42-5.69-1.97c-1.93-.55-3.76-1.4-5.67-1.99-1.91-.6-3.94-.84-5.83-1.47s-3.71-1.52-5.6-2.19c-1.89-.68-3.77-1.36-5.63-2.07s-3.54-1.91-5.39-2.67-3.83-1.21-5.66-2c-1.84-.8-3.89-1.12-5.7-1.96-1.82-.84-3.5-1.97-5.3-2.85s-3.46-2.02-5.24-2.94-3.66-1.64-5.42-2.59-3.88-1.29-5.61-2.28c-1.74-.99-2.87-3.02-4.59-4.05s-3.47-1.98-5.17-3.05-3.6-1.8-5.27-2.9-3.02-2.68-4.66-3.82c-1.65-1.14-3.76-1.62-5.38-2.79s-3.51-2.01-5.11-3.22-3.05-2.63-4.62-3.86c-1.57-1.24-2.69-3.05-4.24-4.32s-3.44-2.13-4.96-3.44-2.97-2.69-4.46-4.03-2.65-3.04-4.11-4.4-3.17-2.48-4.6-3.88-2.43-3.23-3.83-4.66-2.71-2.94-4.08-4.4-3.23-2.46-4.57-3.95-3.03-2.68-4.33-4.2-1.82-3.7-3.1-5.25-2.78-2.89-4.02-4.47-2.83-2.88-4.03-4.48-1.88-3.6-3.05-5.22-2.71-2.99-3.85-4.63-1.64-3.72-2.74-5.39-2.09-3.4-3.16-5.1-2.12-3.38-3.15-5.1-2.23-3.32-3.22-5.06-2.45-3.22-3.4-4.98-1.82-3.57-2.74-5.35c-.91-1.78-1.94-3.51-2.82-5.31s-1.32-3.8-2.16-5.62-1.96-3.51-2.76-5.35-1.96-3.52-2.72-5.38-1.12-3.87-1.84-5.74-1.33-3.78-2.01-5.66-.64-4.01-1.27-5.91c-.64-1.9-2.06-3.53-2.65-5.45s-.41-4.05-.96-5.98-1.04-3.85-1.55-5.79c-.51-1.93-1.7-3.69-2.17-5.64-.47-1.94-.19-4.06-.61-6.01s-1.18-3.83-1.57-5.8c-.38-1.96-.79-3.92-1.13-5.89s-.54-3.96-.84-5.94-.3-3.99-.55-5.98-1.82-3.81-2.03-5.81.32-4.06.15-6.05-.61-3.97-.74-5.97-.15-4-.23-6.01c-.08-2-.34-4-.38-6s.35-4.01.35-6.01-.1-3.98-.06-5.96-.15-3.99-.07-5.96.2-3.98.32-5.95 1.23-3.89 1.4-5.86-.51-4.04-.3-6.01c.21-1.98.24-3.98.49-5.95s1.34-3.83 1.63-5.79c.29-1.97-.17-4.05.17-6.01s1.77-3.71 2.15-5.66-.06-4.06.36-6 .41-3.99.87-5.92 2.14-3.56 2.64-5.48.37-4.01.91-5.92c.55-1.91.86-3.89 1.45-5.79s1.27-3.77 1.89-5.65c.63-1.89 1.43-3.71 2.1-5.58s1.99-3.49 2.7-5.35.77-3.96 1.52-5.8 1.26-3.78 2.05-5.61c.79-1.82 1.91-3.5 2.74-5.31s1.64-3.62 2.5-5.4c.86-1.79 2.35-3.26 3.25-5.03s.93-3.99 1.87-5.74 2.63-3.09 3.6-4.82c.98-1.73 1.53-3.7 2.55-5.4s2.68-3.01 3.73-4.7 1.89-3.49 2.98-5.15c1.08-1.66 2.17-3.32 3.29-4.96s2.03-3.42 3.18-5.04 1.67-3.7 2.86-5.29 3.4-3.48 4.62-5.05 1.61-2.72 2.86-4.25c1.25-1.54 4.32-3.17 4.49-4.18s-1.52-3.63-1.95-5.43c-.43-1.82-.89-3.6-1.43-5.37-.54-1.79-1.37-3.46-2-5.21s-.68-3.69-1.41-5.4c-.73-1.72-1.19-4.93-2.25-4.93s-2.38 3.03-3.72 4.51-3.34 2.4-4.64 3.91-2.13 2.8-3.41 4.33-2.92 3.44-4.16 5c-1.25 1.56-2.58 3.07-3.8 4.66s-2.43 3.19-3.62 4.8-1.56 3.81-2.72 5.44-2.3 3.26-3.42 4.92-2.56 3.1-3.65 4.77c-1.09 1.68-2.1 3.4-3.16 5.1s-2.26 3.3-3.28 5.02-2.35 3.27-3.34 5c-.99 1.74-2.28 3.32-3.23 5.08s-.68 4.17-1.6 5.94c-.92 1.78-1.94 3.49-2.82 5.29s-1.6 3.66-2.45 5.47-1.69 3.61-2.5 5.44-2.53 3.26-3.3 5.11-1.19 3.84-1.93 5.7-1.47 3.72-2.17 5.6c-.7 1.87-1.12 3.85-1.78 5.74s-.87 3.92-1.49 5.82-1.61 3.68-2.19 5.59-2.09 3.56-2.64 5.48-.81 3.94-1.32 5.87.1 4.15-.37 6.09-1.29 3.8-1.72 5.75-.63 3.95-1.02 5.91-1.15 3.85-1.5 5.82-.9 3.9-1.21 5.88c-.31 1.97.05 4.05-.22 6.03s-.91 3.91-1.14 5.9c-.23 1.98-1.24 3.89-1.43 5.89s1.02 4.1.86 6.1-1.14 3.92-1.25 5.92.63 4.03.55 6.03-1.33 3.96-1.37 5.96.54 4.01.54 6.01z"/><path d="m616.36 520.59c1.12 1.22 3.16.63 4.37-.5 1.22-1.12 1.52-2.68.39-3.9-2.13-2.31-2.05-2.38-4.18-4.69s-2.27-2.17-4.4-4.48c-.54-.58-1.18-1.02-1.97-1.06-.82-.02-1.26.58-1.84 1.12-2.08 1.92-2.63 1.33-4.71 3.25s-1.33 2.07-3.41 4-3.15 2.5-5.23 4.43c-2.08 1.92-1.56 1.42-3.64 3.34s-1.73 2.31-3.81 4.23-2.26 1.34-4.34 3.26-2.64 2.77-4.72 4.7-1.4 1.62-3.49 3.55c-.73.68-1.19 1.36-1.04 2.34s.57 1.96 1.47 2.38c1.69.8 3.9.98 6.1 1.76 1.86.66 3.64 2.09 5.81 2.62 1.97.47 4.19 0 6.37.28 2.03.25 4.07 1.59 6.25 1.6 2.05 0 5.4-.91 6.06-.76s1.64 2.65 3.36 5.25c1.71 2.6 1.52 2.73 3.23 5.34.58.88 2.08 1.55 3.05 1.55.57 0 1.12-.75 1.63-1.08 1.38-.91 1.62-2.63.71-4.02-1.37-2.09-1.77-1.83-3.14-3.91-1.37-2.09-2.93-3.87-2.73-4.3s2.72-1.2 3.23-1.09 1.65 2.55 3.09 4.74 1.7 1.56 3.14 3.76c.58.88.94 2.26 1.92 2.26.57 0 1.47-.18 1.97-.52 1.38-.91 1.97-3.62 1.06-5-1.26-1.92-1.87-1.53-3.13-3.45s-2.83-3.36-2.81-3.77 3.15-2.03 3.62-1.92 1.49 2.12 2.93 4.19 1.14 2.33 2.57 4.41 2.38 3.26 2.43 4.31-3.05 3.49-6.3 5.18c-5.55 2.89-6.97 3.17-8.24 3.3s-2.62 1-2.45 2.65c.16 1.55 1.48 3.1 2.73 3.1s2.48-.19 5.69-1.52c1.35-.56 3.09-1.19 5.04-2.21 2.2-1.14 3.67-3 5.16-4.09 3.17-2.31 4.05-3.38 4.92-4.41s.74-2.18-.03-3.29c-1.94-2.8-1.9-2.82-3.83-5.62s-1.99-2.77-3.92-5.57c-1.94-2.8-1.92-2.81-3.86-5.61-.9-1.3-2.72-2.28-4.08-1.47-1.81 1.09-3.63 1.82-5.42 2.61-1.93.84-3.5 2.41-5.39 2.94-2.02.57-4.12.46-6.07.73-2.08.28-4.07.81-6.04.81-2.1 0-4.15-.14-6.1-.4-2.11-.28-3.95-1.37-5.82-1.86-2.1-.54-6.11-.58-6.32-1.5s2.39-2.24 4.69-4.37c2.31-2.13 2.64-1.77 4.95-3.91 2.31-2.13 2.69-1.72 4.99-3.86 2.31-2.14 1.5-3.01 3.81-5.15s2.48-1.95 4.79-4.09 3.53-3.51 4.88-3.64 1.34 1.55 2.82 3.42c1.5 1.89 1.6 1.82 3.22 3.58z"/><path d="m722.47 415.8c.11 1.17-1.22 3.84-3.27 6.29s-2.71 1.91-4.76 4.37-2.7 3.8-3.68 3.83-2.66-.97-5.03-3.11-2.41-2.1-4.79-4.24-2.13-2.42-4.51-4.56-2.01-2.89-5.01-4.01-3.33-.03-6.67-.03-3.34-.47-6.67-.47-3.53-.61-6.65.55c-2.85 1.05-1.91 2.38-4.14 4.44s-2.24 2.05-4.47 4.11-2.57 1.69-4.8 3.75-1.89 2.43-4.11 4.5c-2.23 2.06-2.16 2.13-4.39 4.19s-2.5 1.77-4.73 3.83-2.43 1.85-4.66 3.91-2.28 2.01-4.51 4.07-1.68 2.66-3.91 4.72-2.76 1.49-4.99 3.55-1.78 2.54-4.01 4.61c-2.23 2.06-2.43 1.84-4.66 3.9s-2.09 2.21-4.32 4.28-2.14 2.16-4.37 4.23-2.13 2.17-4.36 4.23-2.26 2.04-4.49 4.1-2.77 1.47-5 3.54c-2.23 2.06-1.64 2.7-3.87 4.76s-2.78 1.46-5.01 3.53c-2.23 2.06-2 2.3-4.23 4.37s-1.95 2.37-4.18 4.43-2.38 1.91-4.61 3.97-2.39 1.89-4.62 3.96-2.26 2.03-4.49 4.1c-2.23 2.06-2.33 1.95-4.56 4.01s-2.68 1.58-4.91 3.64-1.48 2.88-3.71 4.95-2.08 2.24-4.31 4.3-2.64 1.63-4.88 3.69c-.24.23-2.04 1.38-4.6 3.66-1.24 1.11-2.15 3.07-3.83 4.53-1.36 1.18-3.28 1.96-4.88 3.33-1.41 1.2-2.7 2.72-4.28 4.03-1.45 1.21-3.49 1.81-5.06 3.08-1.48 1.2-2.75 2.74-4.32 3.99-1.51 1.19-3.29 2.08-4.87 3.29s-2.7 2.87-4.29 4.05c-1.56 1.16-3.25 2.17-4.85 3.31-1.59 1.14-3.3 2.1-4.92 3.22s-3 2.56-4.64 3.63c-1.65 1.08-3.26 2.21-4.91 3.23-1.7 1.11-3.25 2.47-4.97 3.54-1.72 1.08-3.8 1.58-5.54 2.62s-3.28 2.44-5.04 3.45-3.73 1.65-5.51 2.62-3.74 1.6-5.54 2.54-3.17 2.73-4.99 3.63-3.65 1.8-5.49 2.66-4.04.93-5.89 1.76-3.42 2.33-5.29 3.12-3.94 1.1-5.83 1.85-3.55 2.09-5.45 2.8c-1.9.72-3.81 1.45-5.72 2.12-1.91.68-3.96 1-5.89 1.64s-3.86 1.28-5.8 1.89-3.99.84-5.94 1.41c-1.95.56-3.73 1.77-5.69 2.29s-3.97.92-5.94 1.4-4.04.57-6.02 1.02-4.06.39-6.05.8-3.46 1.14-5.46 1.51-4.52.22-6.53.55c-2 .33-3.9 1.32-5.91 1.61s-4.01.7-6.02.95-6.05-.47-6.55.2.7 7.46 1.52 7.93 3.51-.79 5.49-1.03 4.05.14 6.03-.14 3.86-1.21 5.83-1.53c1.98-.32 4.09.22 6.06-.13 1.97-.36 4.01-.38 5.97-.78s3.95-.71 5.91-1.14c1.95-.43 3.63-2.08 5.57-2.55 1.95-.47 3.87-.96 5.81-1.46s3.93-.77 5.86-1.31 3.73-1.48 5.64-2.06 3.97-.68 5.88-1.29 4.04-.55 5.93-1.2 3.68-1.62 5.56-2.3c1.88-.69 3.79-1.32 5.65-2.04 1.87-.72 3.83-1.22 5.68-1.97 1.85-.76 3.36-2.34 5.2-3.13s3.9-1.08 5.72-1.9c1.82-.83 3.2-2.59 5.01-3.45s3.97-.98 5.76-1.87 3.47-2 5.24-2.93 3.94-1.13 5.7-2.09c1.75-.96 3.2-2.49 4.94-3.48 1.73-1 3.74-1.55 5.45-2.58s3.38-2.17 5.07-3.23 2.93-2.86 4.6-3.95c1.68-1.05 3.34-2.16 5.02-3.26 1.66-1.09 3.84-1.45 5.49-2.59s2.6-3.26 4.22-4.42c1.63-1.17 3.52-1.97 5.11-3.15s3.61-1.89 5.18-3.1c1.61-1.24 2.85-2.91 4.39-4.12s3.46-2.17 4.97-3.39c1.6-1.3 3.08-2.67 4.56-3.9 1.61-1.34 3.13-2.65 4.57-3.88 1.64-1.39 3.43-2.4 4.81-3.61 1.72-1.5 3.01-3.09 4.27-4.23 2.45-2.19 3.34-4.37 3.75-4.76 2.22-2.06 2.78-1.46 5-3.51 2.22-2.06 2.53-1.72 4.76-3.78 2.22-2.06 1.69-2.63 3.92-4.69s3.15-3.09 4.61-3.33c1.47-.24 1.36 1.17 2.83 2.96 1.46 1.79 1.09 2.1 2.55 3.89.52.64 1.64 1.27 2.65 1.09s1.36-.85 1.92-1.37c2.29-2.12 2.19-2.23 4.48-4.35s2.11-2.32 4.41-4.44c2.29-2.12 2.4-2 4.7-4.12 2.29-2.12 2.19-2.23 4.49-4.35 2.29-2.12 2.91-1.45 5.21-3.57s1.94-2.51 4.23-4.63 2.34-2.07 4.63-4.2c2.3-2.12 2.49-2.23 4.79-4.36s1.61-2.95 4.52-4.09c2.52-.99 2.77.02 5.47.18s2.71-.03 5.41.13 4.49-.63 5.54.68-.63 3.64-.98 6.77.21 3-.15 6.13-.2 5.29-1.26 5.69-2.21-1.74-4.31-4.02-3.57-3.39-3.53-4.66 2.11.16 4.67.29c1.67.09 2.61-1.37 2.69-3.02s-.78-2.34-2.43-2.42c-3.11-.15-3.07-1.05-6.18-1.2s-1.46.1-4.57-.05c-1.2-.06-3.03.22-3.55 1.32-.51 1.1-.02 2.9.8 3.79 2.22 2.41 1.29 1.99 3.52 4.4s1.43 3.15 3.65 5.56 2.25 2.39 4.48 4.8 2.47 2.19 4.7 4.6c.8.86 2.35 1.33 3.46.96 1.12-.37 1.14-1.77 1.28-2.93.32-2.85.69-2.8 1.01-5.65.32-2.84 1.05-2.76 1.37-5.61s.21-2.86.53-5.7-.04-2.91.28-5.75c.32-2.85.77-2.78 1.09-5.63.09-.82-.6-1.53-1.13-2.16s-1.23-1.84-2.05-1.89c-3.44-.2-3.49.69-6.93.49s-3.42-.47-6.86-.67-3.45 0-6.89-.2c-.81-.05-2.03-.39-2.63.16-2.21 2.05-1.65 2.22-3.86 4.26-2.21 2.05-2.14 2.57-4.35 4.62s-2.7 1.52-4.92 3.57c-2.21 2.05-2.15 2.12-4.36 4.17s-2.07 2.21-4.28 4.26-1.88 2.41-4.09 4.46-2.19 2.08-4.41 4.13-2.35 1.91-4.56 3.96c-2.22 2.05-3.64 4.64-4.63 4.04s-2.79-3.33-3.27-4.21 1.69-2.65 3.89-4.68c2.2-2.04 2.34-1.89 4.55-3.93 2.2-2.04 1.44-2.86 3.64-4.9s2.14-2.11 4.35-4.14c2.2-2.04 2.5-1.72 4.7-3.76s2.14-2.1 4.35-4.14c2.2-2.04 2.56-1.65 4.77-3.69s1.67-2.61 3.88-4.65 2.06-2.2 4.26-4.24q2.2-2.04 4.41-4.08c2.2-2.04 2.24-2 4.44-4.04s2.3-1.94 4.51-3.98c2.2-2.04 2.4-1.82 4.61-3.86 2.2-2.04 2.25-1.99 4.46-4.03s2.49-1.73 4.7-3.77 1.67-2.62 3.88-4.66 2.85-1.34 5.06-3.38c2.2-2.04 1.93-2.34 4.13-4.38 2.21-2.04 2.22-2.02 4.43-4.06s2.56-1.66 4.77-3.7 1.37-2.95 3.58-4.99 4.43-3.14 5.08-3.3 3.61-.5 6.3-.48c2.14.02 4.43.07 6.5.09 3.57.02 6.63.76 6.7.73.32-.13 2.25.8 5.37 2.78 1.63 1.04 3.97 1.56 5.9 2.93 1.72 1.23 2.86 3.41 4.58 4.78 1.75 1.4 3.98 2.2 5.49 3.62 1.12 1.06 2.36 2.56 3.81 4.13 1.18 1.28 2.85 2.34 4.15 3.82 1.2 1.37 1.34 3.75 2.57 5.19 1.22 1.43 2.64 2.7 3.82 4.11 1.25 1.49 2.38 3.01 3.51 4.38 1.32 1.6 3.26 2.48 4.28 3.74 2.14 2.64.47 5.23 3.19 4.55 3.07-.77 2.71-1.6 5.39-3.31 2.67-1.7 2.56-1.87 5.24-3.57s2.75-1.58 5.42-3.29c2.68-1.71 2.43-2.08 5.11-3.79s5.96-1.26 5.95-3c-.02-2.81-1.86-2.25-4.66-1.99-2.58.24-3.18.1-5.87.51s-2.78-.16-5.47.26-2.74 1.72-5.44 1.34c-2.77-.39-1.93-1.4-3.99-3.95-1.05-1.3-2.17-3.3-3.41-4.87-1.15-1.45-2.2-3.07-3.31-4.53-1.1-1.44-2.11-2.98-3.32-4.31-1.32-1.45-2.44-2.97-3.61-4.11-2.29-2.23-3.62-2.42-3.82-3.45s1.61-2.07 3.26-4.14 1.5-2.08 3.16-4.16 2.06-1.87 3.71-3.94c1.66-2.08 3.08-3.36 3.11-4.56s-2.27-1.81-4.48-3.39c-2.21-1.57-2.16-1.64-4.37-3.22s-2.08-1.77-4.29-3.34c-2.21-1.58-2.35-1.23-4.56-2.81s-3.38-3.17-4.67-2.94-1.61 2.43-3.36 4.76c-1.76 2.34-1.38 2.62-3.14 4.96s-3.72 3.05-3.46 4.24 1.5 1.48 3.5 3.05c2 1.58 1.59 2.09 3.59 3.66 2 1.58 1.66 2.84 4.09 2.1 3.65-1.11 6.06-1.46 5.62-5.25-.49-4.22-5.29-1.66-6.19-5.81-.63-2.93 1.84-4.47 3.45-3.66s2.26 2.27 5.31 4.1c3.23 1.95 4.78 2.78 4.89 3.95z"/><path d="m686.5 376.78c-2.89-.99-2.98.17-6.04.17s-3.06-.7-6.12-.7-3.06-.02-6.12-.02-3.06.66-6.12.66-3.06-.82-6.12-.82-3.06.13-6.13.13c-3.06 0-3.1-.3-5.97.77-2.67 1-2.69 1.04-4.78 2.97q-2.09 1.94-4.18 3.87c-2.09 1.94-4.52 3.27-3.87 4.42.64 1.15 3.29-.23 6.46-.23s3.17-.1 6.34-.1 3.17.48 6.34.48 3.17-.66 6.34-.66 3.17-.07 6.34-.07 3.17.93 6.35.93 5-3.31 6.63-.59c1.43 2.39-1.21 3.63-3.25 5.52s-2.4 1.74-5 2.74c-2.71 1.04-3.1.09-6 .09s-2.9-.05-5.8-.05-2.9-1.1-5.8-1.1-2.9.67-5.8.67-2.9-.56-5.8-.56-2.9.65-5.8.65-4.38-1.6-5.8-.3-.09-.03-.09-.03c-2.2 2.04-1.96 2.3-4.16 4.34s-1.94 2.32-4.14 4.36-2.76 1.43-4.97 3.47c-2.2 2.04-2.12 2.13-4.32 4.17s-2.31 1.92-4.52 3.96c-2.2 2.04-1.53 2.76-3.74 4.8-2.2 2.04-2.81 1.38-5.02 3.41s-2.12 2.13-4.32 4.17-2.28 1.95-4.48 3.99-2.12 2.12-4.33 4.16-2.68 1.52-4.88 3.56-2.1 2.15-4.3 4.19-1.36 2.96-3.56 5-2.16 2.08-4.36 4.12-2.76 1.43-4.96 3.47-1.79 2.48-4 4.52c-2.2 2.04-2.33 1.9-4.54 3.93s-1.94 2.32-4.14 4.36-2.47 1.75-4.68 3.79c-2.2 2.04-2.62 1.59-4.83 3.63-2.2 2.04-2.43 1.8-4.63 3.84s-2.26 1.98-4.46 4.02-1.43 2.88-3.63 4.92c-2.21 2.04-2.5 1.73-4.7 3.77-2.21 2.04-2.13 2.12-4.34 4.16s-2.02 2.25-4.22 4.29c-.04.04-2.19 1.31-5.05 3.85-1.32 1.17-2.72 2.75-4.5 4.29-1.45 1.25-2.82 2.86-4.52 4.28-1.51 1.27-3.41 2.24-5.08 3.61-1.55 1.27-3.21 2.53-4.88 3.85-1.59 1.26-3.33 2.41-5 3.69s-2.8 3.15-4.48 4.38-3.71 1.94-5.41 3.14-3.42 2.37-5.13 3.51c-1.75 1.16-8.99 6-10.67 7.05s-3.32 2.19-5.02 3.2-3.62 1.66-5.35 2.63-3.11 2.59-4.86 3.52-3.84 1.21-5.61 2.1-3.77 1.3-5.56 2.15-3.22 2.47-5.03 3.28-3.6 1.68-5.42 2.45c-1.83.77-3.66 1.53-5.51 2.26-1.84.73-4.01.61-5.87 1.3s-3.59 1.7-5.47 2.34c-1.87.64-3.51 2.03-5.4 2.63s-3.9.83-5.8 1.39-3.82 1.07-5.74 1.58c-1.91.52-3.92.69-5.84 1.16s-3.99.29-5.93.72-3.67 1.77-5.61 2.16-4.03-.02-5.98.32-3.91.58-5.87.88-3.8 1.39-5.77 1.64c-1.96.25-3.92.66-5.89.87s-3.98.07-5.95.24-5.32-.15-5.7.42 3.32 7.23 4.32 7.71 4.24-.42 6.22-.62c1.97-.19 3.7-.15 5.67-.39s4.37-.73 6.33-1.01 3.47-.54 5.42-.86c1.96-.32 3.93-.57 5.87-.93 1.95-.36 3.91-.7 5.85-1.1 1.94-.41 3.74-1.44 5.67-1.89s4.58-.5 6.5-.99 3.1-1.41 5.01-1.94 3.89-.8 5.79-1.37c1.9-.58 3.79-1.16 5.67-1.78s3.94-.73 5.81-1.39 3.46-2.09 5.31-2.79 3.63-1.57 5.47-2.3 3.93-.86 5.75-1.64 3.37-2.17 5.18-2.99c1.8-.82 4.07-.66 5.85-1.52s3.58-1.74 5.34-2.64 2.9-3.01 4.65-3.94c1.75-.94 4.12-.72 5.85-1.7s3.22-2.36 4.93-3.37c1.7-1.01 3.71-1.54 5.4-2.59s4.84-3.89 5.02-4c1.62-1 3.35-1.9 4.97-2.98 1.6-1.06 3.15-2.22 4.74-3.33s3.2-2.17 4.76-3.3c1.57-1.14 2.78-2.75 4.31-3.91 1.56-1.18 2.87-2.64 4.37-3.81s3.78-1.51 5.25-2.7c1.55-1.25 2.39-3.28 3.83-4.46 1.56-1.29 3.01-2.55 4.41-3.74 1.58-1.34 3.91-1.6 5.26-2.77 1.66-1.44 3.08-2.78 4.31-3.88 2.67-2.38 3.51-4.61 3.58-4.67 2.16-2 2.35-1.8 4.51-3.81 2.17-2 2.18-1.99 4.34-4 2.16-2 1.86-2.34 4.02-4.34 2.17-2 2.15-2.02 4.32-4.02s2.6-1.54 4.76-3.54 1.83-2.36 4-4.37 2.27-1.89 4.43-3.9 2-2.18 4.17-4.19c2.17-2 2.96-1.14 5.13-3.15 2.16-2 1.75-2.45 3.92-4.45 2.16-2 1.92-2.27 4.08-4.27 2.17-2 2.05-2.13 4.22-4.13 2.16-2 2.77-1.35 4.94-3.35s2.29-1.87 4.46-3.87 1.34-2.9 3.5-4.9c2.17-2 2.28-1.89 4.44-3.89 2.17-2 2.7-1.43 4.86-3.44s1.57-2.65 3.74-4.65 2.46-1.69 4.63-3.69c2.17-2.01 2.78-1.35 4.94-3.36s1.56-2.66 3.73-4.67 1.6-3.15 4.43-4.01c4.23-1.29 5.76-3 9.05-.05 2.21 1.98-2.43 2.11-4.6 4.12s-2.29 1.88-4.47 3.89c-2.17 2.01-1.75 2.47-3.93 4.48s-1.95 2.25-4.13 4.26-2.72 1.42-4.89 3.43-1.62 2.61-3.79 4.62-2.23 1.95-4.4 3.97-2.76 1.38-4.93 3.39-2.15 2.03-4.33 4.05c-2.18 2.01-2.39 1.78-4.57 3.79-2.17 2.01-1.53 2.71-3.7 4.72s-1.95 2.25-4.13 4.26-2.21 1.97-4.39 3.98c-2.17 2.01-2.78 1.35-4.95 3.37-2.17 2.01-2.1 2.1-4.27 4.11-2.18 2.01-2.23 1.95-4.41 3.97-2.18 2.01-2.07 2.13-4.25 4.14s-2.27 1.91-4.45 3.92c-2.17 2.01-1.81 2.41-3.98 4.42s-2.46 1.71-4.63 3.72c-2.18 2.01-2.1 2.1-4.28 4.11-2.18 2.02-2.07 2.13-4.25 4.15s-2.33 1.85-4.51 3.86c-.06.06-1.27 1.96-3.99 4.38-1.25 1.11-3.06 2.07-4.74 3.53-1.37 1.19-2.87 2.47-4.48 3.83-1.43 1.21-2.79 2.65-4.38 3.96-1.46 1.21-3.52 1.8-5.1 3.07-1.5 1.2-2.67 2.9-4.25 4.13s-3.26 2.17-4.85 3.37-3.34 2.07-4.94 3.23c-1.59 1.16-3.18 2.3-4.79 3.43-1.62 1.13-2.92 2.72-4.55 3.8s-3.21 2.33-4.86 3.35c-.12.08-3.68 2.17-5.37 3.22s-3.08 2.61-4.79 3.63-3.5 1.93-5.23 2.91-3.73 1.5-5.48 2.45-3.5 1.9-5.28 2.8c-1.77.91-3.56 1.78-5.36 2.64s-3.34 2.27-5.15 3.1-4.17.43-5.99 1.22c-1.83.79-3.22 2.61-5.07 3.36s-4.07.53-5.93 1.24-3.43 2.19-5.31 2.86-4.01.58-5.9 1.21-3.61 1.75-5.52 2.34-3.79 1.22-5.71 1.77-3.8.74-5.72 1.24c-1.93.5-3.83 1.63-5.76 2.09-1.94.46-3.86 1.04-5.8 1.46s-4.03.2-5.98.58-3.78 1.52-5.74 1.86-4.04.03-6.01.33-3.92.7-5.9.95c-1.97.25-3.57-.07-5.55.14s-5.86.14-6.17.99 1.6 3.59 2.34 5.51 1.12 3.95 1.73 5.91c.61 1.95.76 4.01 1.26 6.01s1.31 4.83 2.26 5.34 3.57.16 5.55-.08 3.91-.85 5.89-1.13 3.88-1.01 5.84-1.33 4.43-.31 6.39-.67 3.4-1.12 5.35-1.52 4.21.57 6.15.13c1.95-.44 3.6-2.14 5.54-2.61s4.01-.41 5.94-.92 3.7-1.56 5.62-2.11 4.19.07 6.1-.52 3.52-2.1 5.42-2.73 4.1-.37 5.98-1.03 3.73-1.46 5.6-2.17c1.87-.7 3.24-2.67 5.1-3.41s3.97-.82 5.81-1.6 3.85-1.17 5.67-1.98 3.34-2.29 5.15-3.14 3.96-.98 5.75-1.87 3.17-2.58 4.94-3.51 3.88-1.21 5.63-2.17 3.28-2.32 5.02-3.31c1.73-.99 3.64-1.68 5.36-2.71 1.71-1.02 3.31-2.25 5-3.31s2.93-2.83 4.6-3.93c1.62-1.01 3.37-1.84 5-2.91s3.86-1.16 5.45-2.26c1.59-1.09 2.91-2.59 4.47-3.71s2.89-2.61 4.42-3.75 2.81-2.7 4.32-3.86 3.39-1.97 4.88-3.14c1.55-1.22 3.07-2.42 4.53-3.6 1.55-1.25 3.29-2.17 4.72-3.36 1.55-1.29 3.21-2.33 4.6-3.52 1.58-1.34 3.06-2.6 4.4-3.77 1.66-1.45 2.89-3 4.11-4.09 2.51-2.24 3.46-4.28 3.7-4.5 2.23-2.06 3.02-1.21 5.25-3.27s1.48-2.87 3.71-4.93 2.72-1.53 4.95-3.59 2.32-1.97 4.55-4.03 1.75-2.58 3.98-4.64 2.16-2.14 4.39-4.2 2.92-1.32 5.15-3.38 2.05-2.26 4.28-4.32 1.72-2.62 3.95-4.68 2.82-1.42 5.05-3.49c2.23-2.06 1.87-2.45 4.1-4.51s1.86-2.47 4.09-4.53 2.9-1.34 5.13-3.4 1.82-2.51 4.05-4.57 2.51-1.76 4.74-3.83 2.14-2.16 4.37-4.22 2.65-1.61 4.88-3.67q2.23-2.06 4.45-4.13c2.23-2.06 1.54-2.81 3.77-4.87s2.3-1.98 4.53-4.04 2.46-1.81 4.69-3.87 2.32-1.97 4.55-4.03 2.32-1.97 4.55-4.03 2.09-2.21 4.32-4.28c2.23-2.06 2.32-1.97 4.55-4.03s2.46-1.82 4.69-3.88c2.23-2.07 2.04-2.28 4.27-4.34 2.23-2.07 1.73-2.62 3.96-4.68s1.98-2.69 4.82-3.78c2.9-1.12 3.13-.59 6.24-.59s3.11.92 6.23.92 3.11-.4 6.23-.4 3.7 2.08 6.52.75c2.68-1.26 2.48-2.26 4.31-4.58s1.33-2.67 3.16-4.99 1.81-2.34 3.65-4.66c1.83-2.32 2.28-4.53 3.44-4.77s2.33 1.03 4.59 2.64 2.12 1.81 4.38 3.42 2.51 1.26 4.77 2.87 2.07 1.88 4.33 3.49 2.3 1.56 4.57 3.17c2.26 1.61 3.3 3.23 4.17 3.22s1.35-3.04 2.38-6.19-.87-4.68 1.83-6.61c3.16-2.26 4.31-1.75 7.98-.47 3.35 1.17 2.56 2.5 5.01 5.06s3.96 5.69 4.88 5.64.64-4.28 1.7-7.71-.34-4.14 2.24-6.64c2.27-2.2 5.16-1.75 6.56-2.16 1.4-.42 5.02-1.24 6.37-.43s-.43 2.95-.42 5.84-.03 3.4-.02 6.29-.78 5.33.07 6.01 2.53-2.16 4.42-4.39.98-3 2.88-5.23c1.89-2.23 2.23-1.95 4.12-4.18 1.9-2.23 1.93-2.2 3.83-4.43s1.7-2.31 3.23-4.8c1.21-1.98 2.55-2.74 2.36-4.05s-2.61-1.43-4.89-3.16-2.08-1.98-4.36-3.71-2.31-1.69-4.58-3.41-2.05-2.03-4.33-3.75-2.5-1.44-4.78-3.17-2.26-1.75-4.55-3.48c-2.28-1.73-3.28-4.09-4.68-3.92s-1.95 3.1-4.04 5.68-1.74 2.86-3.83 5.44-4.22 3.53-4.09 4.93.65 1.91 2.53 2.48c3.64 1.11 5.08.37 7.68.26 4.78-.22 4.84 1.36 7.9-1.49.87-.81.65-1.2-.43-1.67-3.68-1.6-6.69.25-7.71-1.72-.56-1.08.23-1.77.86-2.61.98-1.29 1.61-2.53 2.85-2.06s2.15.65 4 1.99 2.2 1.18 3.19 3.24c.97 2.03 1.33 2.63.32 4.64-1.47 2.92-2.81.82-6.61 1.94-1.82.54-3.91 1.34-6.25 1.93-2 .51-4.13 1.15-6.35 1.62-2.1.44-4.27.99-6.44 1.31-2.18.33-4.42.55-6.55.69-1.94.13-3.83-.56-5.57-.48-1.99.1-3.81 1.03-5.49 1.07-2.11.06-3.54.29-5.09.3-3.51.02-3.91.9-6.09-.78-2.45-1.89-2.39-2.07-4.45-4.39s-1.89-2.46-3.94-4.78-1.88-2.47-3.93-4.79-2.03-2.35-4.08-4.67c-2.06-2.32-1.94-2.42-4-4.74s-1.69-4.85-3.85-5.25-3.44 1.02-6.6.99-3.16.2-6.33.17-3.16-.63-6.32-.66-3.49-1.57-6.44-.42c-2.97 1.15-1.85 2.86-4.19 5.02s-2.79 1.68-5.13 3.84c-2.34 2.17-5.17 1.28-4.39 4.37.7 2.79 2.68.68 5.56.68s2.88-.41 5.76-.41 2.88.39 5.76.39 2.88-.65 5.76-.65 2.88.19 5.77.19 2.95-.84 5.65.18c2.63 1 2.27 1.5 4.36 3.39 2.09 1.88 2.15 1.82 4.24 3.71 2.1 1.89 2.3 1.66 4.4 3.54s5.63 1.9 3.74 3.99c-2.54 2.82-3.89 1.46-7.52.36-2.82-.85-2.29-2-4.44-4.02-2.14-2.03-2.01-2.37-4.8-3.33z"/><path d="m451.99 229.08c-1.62-2.25-1.61-2.33-3.66-4.2s-2.71-3.97-4.48-3.97-2.68.67-4.53 2.5c-1.84 1.84-4.04 4.29-3.35 5.69.7 1.4 3.26-.36 5.93.09 2.66.45 2.6.84 5.26 1.29s2.56 1.02 5.25.74c1.32-.14.33-1.09-.43-2.14z"/><path d="m454.16 31.89c-1.06 0-4.3 4.77-4.3 6.03s3.03 1.83 4.81 2.71 3.47 1.95 5.23 2.86 3.42 2.02 5.16 2.97 3.81 1.33 5.53 2.31 3.02 2.7 4.73 3.72 3.76 1.45 5.45 2.5 3.19 2.39 4.86 3.47 3.29 2.23 4.93 3.34 2.97 2.67 4.6 3.82c1.62 1.14 3.89 1.39 5.49 2.56s3.01 2.61 4.59 3.82c1.58 1.2 3.43 2.07 4.98 3.31 1.55 1.23 2.47 3.26 4 4.53s3.47 2.04 4.98 3.34c1.5 1.29 2.28 3.42 3.76 4.74s3.93 1.58 5.39 2.93c1.45 1.35 2.71 2.93 4.14 4.31s2.39 3.23 3.8 4.64c1.43 1.43 3.49 2.26 4.89 3.71s2.6 3.13 3.97 4.61c1.38 1.49 2.57 3.14 3.92 4.65s3 2.77 4.32 4.3 2.34 3.33 3.63 4.89 2.82 2.94 4.08 4.52 2.47 3.22 3.7 4.83 2.2 3.42 3.4 5.05 2.09 3.49 3.25 5.14 2.35 3.29 3.48 4.97 2.51 3.2 3.6 4.9 2.31 3.34 3.37 5.06 1.81 3.64 2.84 5.38 1.45 3.83 2.44 5.6 2.27 3.36 3.22 5.15 2.65 3.19 3.57 4.99 1.36 3.85 2.25 5.67c.88 1.82 1.65 3.7 2.5 5.53s1.28 3.86 2.1 5.71 1.67 3.68 2.44 5.55 1.73 3.66 2.47 5.55 2.19 3.5 2.89 5.4 1.16 3.89 1.83 5.81.94 3.96 1.56 5.88 1.47 3.78 2.06 5.72.23 4.14.78 6.09 2.24 3.59 2.75 5.55 1.24 3.87 1.71 5.84.09 4.14.52 6.12 1.18 3.89 1.57 5.88.93 3.95 1.28 5.94.19 4.07.51 6.07.63 4 .9 6 .1 4.06.34 6.07c.23 2.01 1.53 3.91 1.72 5.92s.17 4.06.32 6.08c.16 2.02.18 4.05.3 6.07s-.41 4.07-.34 6.09c.08 2.02-.26 4.04-.22 6.07s.52 4.03.52 6.06.64 4.01.6 6.01-.28 4-.36 6-.77 3.97-.89 5.97-.49 3.97-.65 5.96-.14 4-.33 5.99-.27 3.99-.5 5.98.53 4.11.26 6.09-.67 3.96-.98 5.94-1.46 3.82-1.8 5.79c-.35 1.97-.98 3.88-1.37 5.84s-.69 3.93-1.12 5.89-2.49 5.24-1.08 5.69c1.4.45 2.78-2.05 5.34-4.42s3.85-3.7 4.9-4.94c1.06-1.24 1.47-3.85 1.84-5.9s.32-4.16.64-6.22-.2-4.22.09-6.28 1.09-4.04 1.33-6.1-.05-4.17.15-6.24c.2-2.06.75-4.09.91-6.16s.08-4.15.2-6.22.16-4.14.24-6.21 1.23-4.12 1.27-6.19-.22-4.16-.22-6.24-.05-3.96-.09-5.94-.22-3.96-.29-5.93c-.07-1.98-.02-3.96-.13-5.94s.15-3.98 0-5.95-.92-3.9-1.1-5.87-.03-3.98-.25-5.94-.26-3.96-.52-5.92c-.25-1.96-.37-3.95-.66-5.91s-1.44-3.78-1.77-5.73-.17-3.99-.53-5.93c-.36-1.95-1.51-3.73-1.91-5.67s0-4.05-.44-5.97c-.44-1.93-1.95-3.6-2.43-5.52-.47-1.92.03-4.09-.48-6s-.85-3.88-1.4-5.78c-.54-1.9-1.91-3.56-2.49-5.45s-.64-3.94-1.26-5.82-1.38-3.71-2.03-5.58-1.19-3.78-1.88-5.63-1.73-3.58-2.45-5.42-.69-3.99-1.44-5.82c-.76-1.83-2.57-3.21-3.36-5.02s-1.48-3.66-2.3-5.46c-.83-1.8-1.01-3.9-1.87-5.68s-1.83-3.52-2.72-5.28-2.38-3.22-3.3-4.97-1.66-3.6-2.62-5.33-1.71-3.58-2.7-5.29-2.66-3.01-3.69-4.71-2.07-3.35-3.13-5.03-1.55-3.7-2.63-5.35c-1.09-1.65-2.09-3.36-3.21-4.99s-2.79-2.87-3.94-4.48-1.81-3.56-2.99-5.15-2.06-3.41-3.26-4.98-3.18-2.53-4.41-4.08-1.92-3.53-3.19-5.05-2.8-2.81-4.1-4.31-2.13-3.4-3.45-4.87-2.61-2.99-3.95-4.44-3.47-2.16-4.85-3.59c-1.37-1.42-2.11-3.47-3.51-4.87s-3.67-1.99-5.11-3.38c-1.45-1.39-2.62-3.06-4.09-4.42-1.47-1.37-3.06-2.6-4.55-3.94-1.5-1.34-2.54-3.19-4.06-4.5s-3.05-2.62-4.59-3.9c-1.55-1.28-3.52-2.04-5.09-3.29s-2.65-3.13-4.24-4.35-3.28-2.33-4.9-3.52-3.71-1.72-5.35-2.88-2.66-3.21-4.32-4.34-3.34-2.25-5.02-3.34-3.65-1.76-5.35-2.83-3.57-1.85-5.29-2.89c-1.72-1.03-3.5-1.96-5.24-2.96s-3.26-2.4-5.01-3.37c-1.76-.97-3.84-1.33-5.62-2.26s-3.59-1.78-5.38-2.68c-1.8-.9-4.06-2.89-5.11-2.89z"/><path d="m56.2 275.53c-.69-.65-.17-2.46.18-4.41s1.56-3.74 1.96-5.68c.4-1.95.54-3.94.98-5.87s1.02-3.83 1.5-5.75.36-4.01.88-5.92 1.92-3.58 2.48-5.47.91-3.86 1.52-5.75 1.37-3.72 2.03-5.59c.65-1.87 1.28-3.75 1.97-5.6s.58-4.03 1.31-5.87c.74-1.84 2.65-3.2 3.43-5.02s1.42-3.7 2.24-5.5c.82-1.81.69-4.06 1.55-5.84s2.09-3.4 2.99-5.17 2.68-3.07 3.62-4.81c.94-1.75 1.75-3.55 2.73-5.27s1.87-3.49 2.89-5.19 1.89-3.48 2.95-5.16 1.47-3.77 2.56-5.43c1.09-1.65 2.55-3.07 3.68-4.7s2.25-3.27 3.41-4.87 4.38-6.35 4.38-7.19c0-1.65-.15-3.32-.23-4.95-.08-1.65-.22-4.17-.93-4.47s-2.39 2.8-3.63 4.38-2.22 3.36-3.42 4.97-2.49 3.15-3.66 4.78-2.14 3.39-3.28 5.06-2.98 2.84-4.08 4.53c-1.09 1.69-1.38 3.88-2.44 5.59s-3.02 2.87-4.04 4.61-1.84 3.59-2.82 5.35c-.98 1.75-1.95 3.52-2.89 5.3-.94 1.77-1.72 3.64-2.62 5.44s-1.45 3.77-2.31 5.58-1.92 3.54-2.74 5.37-1.62 3.68-2.4 5.53-1.19 3.85-1.93 5.72-1.96 3.55-2.66 5.44c-.7 1.88-1.12 3.87-1.77 5.77s-1.31 3.8-1.92 5.71-1.28 3.81-1.85 5.74c-.57 1.92-1.67 3.71-2.2 5.65s-.09 4.13-.57 6.08-1.61 3.75-2.05 5.71-1.22 3.86-1.62 5.83-.67 3.98-1.02 5.96-.75 3.96-1.06 5.95c-.31 1.98-.47 4-.74 6s.2 4.07-.02 6.07-1.11 3.93-1.29 5.93-.42 4.01-.55 6.02.38 4.05.29 6.06c-.09 2-.89 4-.93 6.01-.04 2 .92 4.03.92 6.05s.31 3.97.35 5.95.17 3.96.26 5.94c.09 1.99-.85 4.03-.72 6 .13 1.99.32 3.97.49 5.95s1.32 3.86 1.53 5.83.45 3.94.7 5.9c.26 1.97-.63 4.11-.33 6.07s.95 3.88 1.3 5.83c.34 1.96 1.54 3.75 1.93 5.7s.91 3.86 1.34 5.79c.43 1.94-.25 4.14.22 6.06.47 1.93.96 3.87 1.47 5.78s1.62 3.68 2.18 5.58c.56 1.91.35 4.06.94 5.95.6 1.9 2.54 3.35 3.18 5.23s.51 4.03 1.19 5.89c.68 1.87.85 3.94 1.57 5.79s1.95 3.51 2.71 5.34 1.53 3.67 2.33 5.49 1.69 3.6 2.54 5.4c.84 1.8 2.04 3.43 2.92 5.21s1.65 3.62 2.57 5.37c.92 1.76 1.4 3.76 2.36 5.5s2.55 3.13 3.54 4.84c1 1.72 2.24 3.28 3.27 4.98s1.94 3.46 3 5.14 1.63 3.68 2.73 5.33c1.11 1.65 2.12 3.38 3.26 5 1.14 1.63 2.07 3.42 3.24 5.02s2.63 3 3.85 4.58c1.21 1.57 2.84 2.83 4.08 4.37 1.24 1.55 2.54 3.06 3.81 4.58s2.9 2.73 4.21 4.23 1.72 3.8 3.06 5.26 2.76 2.87 4.14 4.31c1.37 1.43 2.99 2.64 4.4 4.05s2.72 2.91 4.16 4.28 3.09 2.52 4.56 3.86c1.46 1.34 3.39 2.16 4.88 3.47s3.02 2.56 4.54 3.83 2.71 2.95 4.26 4.19 3.16 2.4 4.74 3.61c1.57 1.21 2.99 2.64 4.59 3.81 1.6 1.18 3.14 2.44 4.77 3.58 1.62 1.14 3.09 2.53 4.74 3.64s3.62 1.74 5.29 2.81 3.38 2.09 5.08 3.12 3.18 2.43 4.9 3.43 3.79 1.37 5.53 2.33 3.66 1.55 5.42 2.47 3.11 2.63 4.89 3.51 3.67 1.54 5.47 2.39c1.8.84 3.48 1.95 5.3 2.75s3.73 1.39 5.56 2.15 3.79 1.23 5.64 1.95 3.78 1.22 5.64 1.9 3.71 1.39 5.59 2.03 3.46 2.19 5.36 2.79c1.89.6 4.14.04 6.05.6s3.63 1.75 5.55 2.26 4.02.29 5.95.76 3.72 1.48 5.66 1.91 3.95.46 5.91.85c1.94.39 3.76 1.5 5.72 1.84 1.95.34 3.98.29 5.95.59s3.97.22 5.95.48 3.97.14 5.95.36c1.97.21 3.82 1.71 5.8 1.88 1.97.17 4.01-.27 5.99-.14s3.95.57 5.93.65 3.98-.14 5.97-.09c1.98.04 3.97.8 5.96.8.19 0 .25-.32.2-.55s-2.14-2.57-3.19-3.91c-1.05-1.35-2.15-4.11-2.7-4.43s-4.04-.61-6.04-.7c-2.02-.09-4.02-.05-6.03-.19-2.01-.13-4.04.06-6.04-.12-2.01-.18-3.97-.77-5.96-1s-4.13.53-6.12.26c-2-.27-3.82-1.74-5.8-2.05s-4.02-.35-5.99-.72-4.15.21-6.12-.19-3.8-1.53-5.76-1.98c-1.97-.45-3.9-.99-5.85-1.49s-4.08-.34-6.02-.88-3.86-1.21-5.78-1.79-3.78-1.44-5.69-2.07-3.77-1.44-5.67-2.11-3.87-1.16-5.75-1.87-3.45-2.22-5.31-2.98c-1.87-.76-3.73-1.48-5.58-2.29s-3.85-1.24-5.68-2.08c-1.83-.85-3.34-2.33-5.15-3.21s-3.69-1.59-5.48-2.52-3.74-1.53-5.5-2.5c-1.77-.97-3.34-2.27-5.08-3.28s-3.58-1.84-5.3-2.89-3.45-2.06-5.15-3.15-3.66-1.76-5.33-2.88-3.32-2.29-4.97-3.45-2.72-3.11-4.33-4.31-3.8-1.64-5.39-2.88-2.51-3.3-4.07-4.57-3.82-1.69-5.36-3-2.62-3.13-4.12-4.47-3.29-2.37-4.76-3.74-2.69-3.01-4.13-4.42-2.62-3.07-4.02-4.51c-1.41-1.44-3.25-2.46-4.62-3.93-1.38-1.47-2.32-3.33-3.66-4.83s-3.22-2.53-4.53-4.06-2.29-3.33-3.56-4.89-3.14-2.66-4.37-4.24c-1.24-1.59-2.02-3.53-3.22-5.15s-2-3.52-3.16-5.16-2.03-3.47-3.16-5.14-3.43-2.56-4.52-4.26-1.86-3.6-2.91-5.32-2.24-3.36-3.25-5.1-1.92-3.55-2.9-5.31c-.97-1.76-1.75-3.64-2.68-5.43-.93-1.78-2.19-3.42-3.07-5.22-.89-1.81-1.56-3.73-2.41-5.56s-1.4-3.79-2.21-5.64-1.29-3.82-2.06-5.69c-.76-1.86-1.87-3.59-2.59-5.47s-.55-4.08-1.22-5.98c-.68-1.89-2.55-3.38-3.19-5.29-.63-1.91-.78-3.98-1.37-5.91s-1.16-3.85-1.71-5.8c-.54-1.94-1.48-3.78-1.98-5.73s-.83-3.95-1.29-5.91c-.45-1.96-.14-4.09-.55-6.06s-1.41-3.82-1.77-5.81-.65-3.97-.97-5.97c-.32-1.98-.17-4.04-.45-6.04s-.83-3.95-1.06-5.95.13-4.05-.05-6.06c-.18-2-1.27-3.93-1.41-5.95-.14-2 .3-4.05.21-6.06s-.37-4.01-.42-6.03.49-4.02.49-6.04-.23-3.83-.18-5.73c.04-1.92-.31-3.84-.23-5.75s1.06-3.77 1.18-5.68-.58-3.88-.42-5.78.38-3.81.58-5.71.37-3.91 1.15-4.94 3.14-2.62 4.95-3.4 3.62-1.55 5.4-2.4c1.78-.86 3.88-1.09 5.62-2.02 1.74-.94 3.14-2.48 4.84-3.48s3.43-1.95 5.08-3.02c1.66-1.08 3.02-2.55 4.63-3.7s3.8-1.51 5.35-2.73 3.04-2.55 4.54-3.83 2.96-2.64 4.4-3.98c1.44-1.35 2.62-2.98 4-4.39s2.94-2.67 4.26-4.13c1.32-1.47 2.62-2.97 3.88-4.49s1.92-3.51 3.11-5.09 2.26-3.21 3.38-4.84 3.15-2.65 4.2-4.33 1.12-3.93 2.1-5.65 2.54-3.11 3.44-4.86 1.13-3.83 1.95-5.63c.83-1.79 1.75-3.52 2.5-5.35s1.21-3.74 1.88-5.6 1.3-3.7 1.88-5.59c.59-1.88 2.24-3.46 2.74-5.37s.25-4 .67-5.94c.42-1.93.99-3.82 1.33-5.77s1.35-3.8 1.61-5.76.38-3.95.55-5.93c.17-1.96-.55-3.99-.47-5.97.08-1.97.94-3.93.94-5.91 0-2.8-1.82-6.7-.28-8.28s2.55-2.63 3.95-3.99c1.4-1.37 2.14-3.43 3.56-4.76 1.43-1.33 3.44-2.04 4.9-3.33s2.84-2.68 4.33-3.94 2.8-2.75 4.32-3.97 2.78-2.81 4.33-4 3.93-1.28 5.51-2.42 2.63-3.05 4.23-4.16c1.61-1.11 3.22-2.23 4.85-3.3s3.58-1.66 5.23-2.7c1.66-1.03 2.99-3.44 4.51-2.48s1.44 3.15 1.88 5.13.93 3.95 1.31 5.94-.19 4.13.12 6.13 2.05 3.8 2.3 5.81-.89 4.17-.7 6.19c.19 2.01 1.11 3.96 1.23 5.99.13 2.02.85 4.03.92 6.05.06 2.02-.69 4.07-.69 6.1s-.4 4-.46 6c-.06 2.01.09 4.01-.04 6.01s.31 4.05.12 6.04-.33 4.01-.58 6-1.02 3.91-1.34 5.89-.25 4.03-.63 6-1.46 3.8-1.9 5.75c-.44 1.96-.78 3.93-1.28 5.87s-.26 4.1-.81 6.02c-.56 1.93-1.7 3.69-2.32 5.59-.62 1.91-2.02 3.54-2.7 5.42-.68 1.89-.99 3.89-1.72 5.76s-1.17 3.85-1.96 5.69-1.44 3.75-2.28 5.57-1.94 3.52-2.84 5.31-1.5 3.75-2.46 5.51-2.87 2.98-3.88 4.71-1.37 3.85-2.43 5.55-2.42 3.21-3.54 4.87c-1.11 1.67-2.23 3.32-3.4 4.95s-2.15 3.4-3.36 4.99-2.16 3.41-3.42 4.97-2.67 3-3.98 4.52-2.98 2.71-4.34 4.19-2.18 3.46-3.58 4.9-3.76 1.9-5.21 3.29c-1.44 1.39-2.12 3.59-3.61 4.94s-3.03 2.65-4.55 3.94c-1.53 1.3-3.17 2.46-4.74 3.71s-3.14 2.5-4.75 3.7-3.36 2.2-5 3.35-3.73 1.62-5.41 2.72c-1.67 1.1-3.11 2.54-4.83 3.59s-3.27 2.33-5.02 3.32-3.76 1.45-5.54 2.39-3.13 2.67-4.94 3.55c-1.8.88-3.71 1.54-5.54 2.36-1.82.82-3.52 1.98-5.37 2.75-1.85.76-3.85 1.18-5.73 1.89-1.55.58-1.93 1.92-1.35 3.47.45 1.2.69 2.3 1.91 2.3.35 0 1.26.12 1.61-.01 1.92-.72 3.56-2.14 5.45-2.92 1.9-.78 3.71-1.72 5.57-2.55s3.74-1.64 5.58-2.54 3.59-1.95 5.4-2.9c1.82-.95 3.96-1.28 5.74-2.28 1.78-1.01 3.84-1.57 5.59-2.63s2.94-3.04 4.66-4.15 3.99-1.42 5.67-2.58 3.35-2.4 4.99-3.61 2.68-3.24 4.29-4.51 3.03-3.09 4.02-2.24c.98.85.9 1.87.86 3.49s.04 3.25.04 4.87c0 1.93 0 3.85.07 5.77s-.61 3.89-.5 5.81c.12 1.92.49 3.84.67 5.76s1.2 3.74 1.43 5.65c.24 1.91-.15 3.91.15 5.81s.94 3.75 1.3 5.64.22 3.89.64 5.77 1.56 3.59 2.04 5.45.22 3.93.76 5.78 1.37 3.62 1.97 5.45.81 3.81 1.46 5.62 2.19 3.29 2.9 5.08.8 3.84 1.57 5.6c.49 1.13 2.02 2 3.17 2 .4 0 .9-.24 1.29-.41 1.52-.66 2.22-2.69 1.56-4.21-.8-1.85-2.32-3.42-3.06-5.29s-1.15-3.9-1.82-5.8-.94-3.95-1.55-5.87-1.37-3.8-1.91-5.75-.57-4.02-1.05-5.98-.76-3.95-1.17-5.93-1.86-3.76-2.2-5.75.05-4.1-.22-6.1-1.27-3.92-1.47-5.93c-.2-2-.04-4.06-.17-6.08-.13-2.01.68-4.07.61-6.09-.07-2.01-.08-4.01-.08-6.03 0-1.71-1.24-3.43-1.19-5.14s.26-3.43.36-5.13.07-4.01 1.12-4.97c1.04-.96 3-2.74 4.48-4.18s3.15-2.71 4.59-4.2 2.98-2.9 4.37-4.44 2.5-3.33 3.76-4.98c2.25-2.94 3.85-3.93 1.82 1.18-.78 1.98-.55 4.25-.89 6.35s-.92 4.19-1.17 6.31c-.25 2.11-.34 4.27-.51 6.39s.54 4.3.46 6.43-1.18 4.24-1.18 6.38c0 1.98.23 3.98.3 5.96s.59 3.95.73 5.92c.14 1.98.05 3.98.26 5.95.22 1.97 1.41 3.81 1.7 5.76s.66 3.88 1.03 5.83-.31 4.1.12 6.03 2.07 3.57 2.58 5.48.11 4.08.69 5.97c.58 1.9 1.97 3.52 2.61 5.39s1.02 3.83 1.74 5.67 1.62 3.6 2.4 5.42 1.1 3.84 1.95 5.63 1.91 3.47 2.83 5.22 1.41 3.75 2.39 5.47 2.23 3.29 3.27 4.97c1.05 1.68 1.95 3.46 3.06 5.1s2.11 3.38 3.27 4.98c1.17 1.6 3.02 2.68 4.25 4.24 1.23 1.55 2.26 3.26 3.54 4.77s2.42 3.15 3.76 4.61 2.71 2.89 4.11 4.3 3.17 2.42 4.61 3.78 2.94 2.63 4.44 3.93c1.49 1.3 3.4 3.75 4.32 4.1s2.6-.6 5.21-1.08 2.64-.37 5.25-.85 5.12-1.41 6.18-2.08c1.06-.68.88-1.91 2.3-4.47s1.44-1.88 2.86-4.44 4.61-3.47 2.37-5.35c-2.66-2.23-4.32-2.33-8.36-2.02-3.35.26-1.76 2.65-2.89 5.81-1.13 3.17.52 4.03-1.79 6.47-1.61 1.7-2.15 1.02-4.45 1.46s-3.16 1.29-4.74.69c-1.57-.6-4.84-4.75-4.77-5.34s2.89-.19 6.17-1.08 5.67-.66 6.75-1.82.6-3.49 1.23-6.78c.62-3.29 3.6-4.55.91-6.54s-4.98-1.42-8.33-.67c-2.23.49-.13 2.2.1 4.47s.65 2.48.44 4.23-2.54 1.87-5.58 2.96c-3.05 1.1-5.25 1.61-6.49 1-1.23-.61-2.23-2.58-3.62-4.06s-3.07-2.7-4.4-4.23c-1.34-1.54-2.8-2.97-4.07-4.55s-2.91-2.92-4.11-4.56-1.67-3.81-2.81-5.5-2.42-3.28-3.49-5.01-2.27-3.39-3.27-5.16-2.14-3.48-3.07-5.29-1.48-3.81-2.34-5.66-1.63-3.73-2.41-5.6-1.56-3.75-2.27-5.66-1.87-3.66-2.51-5.6c-.63-1.93-1.29-3.88-1.84-5.84s-1.05-3.95-1.53-5.93-.94-3.98-1.34-5.97.24-4.17-.08-6.19c-.32-2.01-1.89-3.85-2.13-5.87s.61-4.15.45-6.19-.48-4.04-.56-6.08c-.08-2.03-.86-4.06-.86-6.1s.55-3.99.62-5.98c.08-1.99 1.01-3.92 1.16-5.91s-.88-4.08-.65-6.06 1.69-3.79 2-5.76-.36-4.1.02-6.05 1.1-3.84 1.56-5.78 1.21-3.8 1.74-5.72.18-4.11.79-6.01c.61-1.89 2.58-3.23 3.26-5.11 1.11-1.67.93-4.06 1.98-5.76 1.06-1.7 3.04-2.84 4.04-4.57s1.26-3.89 2.21-5.65 2.51-3.21 3.41-4.99 1.9-3.54 2.75-5.36c.84-1.82.68-4.08 1.47-5.92s2.04-3.48 2.77-5.34 1.15-3.84 1.82-5.72c.67-1.89 1.62-3.67 2.24-5.58.62-1.9.79-3.94 1.34-5.86s1.76-3.67 2.26-5.6 1.5-3.77 1.94-5.72.57-3.99.95-5.96.05-4.06.37-6.04c.32-1.97.64-7.1 5.6-9.71 1.74-.91 3.15-2.34 4.73-3.49s3.53-1.78 5.15-2.87c1.62-1.1 2.92-2.68 4.58-3.72s3.31-2.1 5-3.09 3.37-2.01 5.09-2.94 3.45-1.86 5.21-2.74c1.75-.87 3.36-2.09 5.14-2.9s3.83-1.04 5.64-1.8 3.76-1.12 5.59-1.82 3.39-2.14 5.24-2.77c1.85-.64 3.8-1 5.68-1.57s3.83-.87 5.72-1.39 3.86-.69 5.76-1.14 3.71-1.32 5.63-1.7 3.74-1.38 5.67-1.7 3.94-.27 5.88-.53 3.97.28 5.92.08 3.81-1.41 5.77-1.54 3.95.26 5.9.2 3.92-.29 5.88-.29 4.09.89 6.13.96c2.05.07 4.14-.59 6.18-.45s4.12.15 6.15.36c2.04.21 3.97 1.39 5.99 1.67 2.03.28 4.07.45 6.08.8s3.96 1.04 5.97 1.46 4.1.39 6.09.89 4.11.5 6.09 1.06c1.97.56 3.83 1.52 5.78 2.15s3.77 1.62 5.7 2.32 3.69 1.77 5.6 2.53c5.31 1.16 8.41 4.8 9.73 6.26s2.89 2.71 4.27 4.11c1.38 1.41 2.25 3.36 3.69 4.71s3.07 2.52 4.57 3.81 3.07 2.5 4.62 3.73 3.52 1.9 5.11 3.06c1.6 1.16 2.87 2.78 4.52 3.88 1.64 1.09 3.78 1.4 5.47 2.42s2.84 2.98 4.57 3.93 3.43 2 5.2 2.88 3.82 1.2 5.62 2 3.45 2.02 5.28 2.75 3.83 1.06 5.7 1.71c1.86.65 3.66 1.54 5.56 2.11 1.89.57 4.06.13 5.97.62s3.74 1.25 5.68 1.66 3.88.61 5.84.94 3.89.5 5.86.74 3.86.81 5.84.97 3.9.97 5.88 1.05 4.44.04 6.42.04c1.26 0 3.7.8 4.39 1.68s1.09 1.33 2.1 3.11c1.01 1.79 2.37 3.39 3.33 5.2s1.61 3.8 2.51 5.63c.91 1.84 1.71 3.73 2.56 5.6s1.62 3.77 2.41 5.66 1.74 3.72 2.48 5.63 1.49 3.83 2.18 5.76.59 4.12 1.23 6.07c.63 1.95 1.98 3.67 2.56 5.64s.48 4.12 1 6.1 2.05 3.72 2.51 5.72-.08 4.22.33 6.23.53 4.06.88 6.08 1.26 3.94 1.55 5.97.99 4.01 1.22 6.05-.08 4.13.09 6.18.07 4.1.18 6.15c.12 2.04.15 4.08.21 6.14.06 2.05-.07 4.09-.07 6.14s.94 4.01.89 6.01-.09 4.01-.2 6.01-1.18 3.93-1.35 5.92.78 4.1.56 6.08c-.22 1.99-1.49 3.85-1.77 5.83s-.49 3.96-.82 5.93-.91 3.89-1.29 5.85c-.39 1.96-1.05 3.85-1.49 5.8s-.41 4-.91 5.94-1.3 3.78-1.85 5.7-1.27 3.78-1.88 5.68-.16 4.16-.81 6.05c-.66 1.89-1.37 3.77-2.08 5.64s-2.13 3.46-2.89 5.31-1.33 3.78-2.14 5.6-1.73 3.6-2.59 5.41c-.86 1.8-1.84 3.54-2.75 5.32s-1.52 3.72-2.48 5.47-1.94 3.5-2.95 5.23-2.35 3.25-3.41 4.95-2.14 3.37-3.24 5.04-2.17 3.35-3.32 4.99-1.7 3.71-2.89 5.32-3.05 2.71-4.28 4.28-2 3.53-3.28 5.07c-1.28 1.53-2.42 3.21-3.75 4.71s-2.85 2.83-4.22 4.29-2.62 3.05-4.02 4.47-3.03 2.63-4.48 4.02c-1.44 1.38-3.22 2.41-4.7 3.76s-3.1 2.51-4.62 3.81-3.11 2.49-4.67 3.75-2.76 2.95-4.35 4.16-4.14 2.75-5.24 2.7-1.88-1.49-3.63-4-.86-3.14-2.61-5.65-2.6-1.92-4.36-4.43c-1.75-2.51-1.34-2.8-3.1-5.31s-1.26-2.86-3.02-5.37-1.78-2.5-3.53-5.01-2.18-2.22-3.93-4.73c-1.76-2.51-1.96-2.37-3.71-4.89-1.76-2.51-2.48-3.39-2.5-4.52-.03-1.13 2.78-2.43 4.36-3.67 1.58-1.25 2.25-3.61 3.78-4.91 1.54-1.31 3.14-2.5 4.62-3.86s2.82-2.85 4.25-4.26c1.43-1.42 2.79-2.87 4.17-4.33s2.93-2.75 4.25-4.27 3.29-2.5 4.55-4.06c1.26-1.57 2.53-3.16 3.73-4.77s2.26-3.36 3.39-5.01c1.14-1.66 1.44-3.86 2.52-5.56s2.01-3.46 3.02-5.2 2.09-3.41 3.03-5.19c.95-1.78 2.16-3.4 3.04-5.21s2.05-3.48 2.86-5.32.92-3.97 1.66-5.84 2.29-3.43 2.96-5.33.88-3.95 1.48-5.87 1.26-3.82 1.79-5.76.6-3.99 1.05-5.95 1.83-3.72 2.21-5.7c.38-1.97.69-3.98.99-5.97s-.38-4.11-.15-6.11.41-3.98.56-5.99c.15-2 1.34-3.95 1.42-5.97s-.02-4.04-.02-6.06-1.02-3.92-1.09-5.89-.05-3.93-.2-5.89.38-3.99.17-5.95c-.22-1.96-1.08-3.83-1.37-5.78s-.3-3.94-.66-5.88-.13-4.01-.56-5.93-1.21-3.78-1.72-5.68c-.5-1.91-1.21-3.76-1.78-5.65s-.73-3.92-1.37-5.78-1.75-3.57-2.46-5.41-1.57-3.62-2.35-5.43-1.42-3.69-2.26-5.47-2.41-3.2-3.32-4.94c-.91-1.75-1.87-3.44-2.85-5.16s-1.69-3.99-2.66-5.01-2.45-1.01-5.08-1.4-2.5-.1-5.13-.49-3.75-1.2-5.35-.6-1.88 2.15-4.05 4.11c-2.18 1.96-2.64 1.45-4.82 3.41s-4.95 1.18-3.71 3.83 2.82 4.16 6.74 5.7c3.13 1.23 2.37-3.39 4.47-6.01 2.1-2.63 2.53-4.28 3.64-4.66s2.64-.49 4.96-.17c2.32.33 2.67-.38 4.8.59 1.2 2 3.14 4.9 2.1 5.86-1.03.96-2.25.29-5.63.06s-5.5-2.6-7.04-.75-1.24 3.5-2.9 6.4c-1.66 2.91-5.64 3.38-3.1 5.55 2.46 2.09 4.1 2.64 7.38 3.3 2.24.45.53-1.94 1.05-4.16s.1-2.7 1.34-3.99 2.96 0 6.18-.04c3.22-.05 3.23-1.03 6.37-.31.86 1.75 1.88 3.19 2.68 4.97.79 1.79 1.76 3.51 2.49 5.32s1.13 3.76 1.78 5.6.67 3.88 1.26 5.75 1.91 3.5 2.43 5.39c.51 1.88.88 3.81 1.32 5.72.44 1.9.78 3.83 1.15 5.75s.27 3.91.56 5.84.35 3.87.57 5.82.47 3.86.62 5.81.85 3.85.92 5.81.17 3.9.17 5.86-.26 3.95-.34 5.92-.84 3.9-.99 5.86c-.15 1.97.73 4.04.5 5.99s-.35 3.96-.65 5.91-1.21 3.81-1.59 5.75-.42 3.96-.87 5.88-1 3.83-1.53 5.74-1.95 3.53-2.55 5.42c-.6 1.88-.59 3.96-1.26 5.82s-1.52 3.65-2.26 5.48-.8 3.97-1.61 5.77-1.89 3.5-2.77 5.27-1.79 3.54-2.74 5.27-2.72 2.99-3.74 4.69c-1.01 1.7-1.77 3.54-2.84 5.19-1.08 1.66-2.37 3.15-3.51 4.77s-1.49 3.81-2.69 5.38-2.43 3.14-3.69 4.67-3.31 2.37-4.63 3.84-1.9 3.63-3.27 5.06-3.52 2.07-4.95 3.44c-1.42 1.37-2.49 3.12-3.97 4.43-1.47 1.31-3.44 2.03-4.97 3.29-1.52 1.25-2.75 2.87-4.33 4.06s-3.4 2.02-5.02 3.15c-1.36.95-1.47 3.22-.52 4.57 1.75 2.5 2.3 2.12 4.05 4.62s.66 3.27 2.41 5.77 2.41 2.04 4.17 4.55c1.75 2.51 1.52 2.67 3.27 5.17 1.75 2.51 1.92 2.39 3.67 4.9s1.48 2.7 3.23 5.21 2.22 2.18 3.97 4.68c1.75 2.51 1.01 3.03 2.76 5.53s2.52 1.97 4.28 4.48 1.9 2.41 3.65 4.92c.46.65 1.9 1.46 2.08 1.46.61 0 .99-.41 1.5-.77 1.66-1.16 3.59-1.94 5.22-3.14 1.63-1.21 2.99-2.76 4.58-4.01s3.17-2.51 4.73-3.81 3.41-2.25 4.93-3.58c1.52-1.34 3.3-2.41 4.78-3.79s2.44-3.33 3.88-4.74 3.2-2.54 4.6-3.99 2.8-2.94 4.17-4.43 2.38-3.31 3.7-4.84c1.33-1.53 3.11-2.68 4.39-4.25s1.83-3.72 3.07-5.32 2.93-2.86 4.12-4.5c1.2-1.64 2.44-3.24 3.59-4.91s2.08-3.48 3.19-5.18c1.1-1.7 2.02-3.51 3.08-5.24s2.26-3.37 3.27-5.12c1.01-1.76 1.43-3.83 2.39-5.61s2.82-3.1 3.73-4.9 1.45-3.8 2.31-5.64c.86-1.83 1.48-3.77 2.29-5.63s1.52-3.75 2.28-5.62 1.34-3.81 2.05-5.71 1.36-3.8 2.02-5.72 1.93-3.62 2.54-5.56c.6-1.93.59-4.05 1.14-6s1.12-3.88 1.62-5.85 1.7-3.76 2.14-5.74.85-3.97 1.23-5.96-.23-4.15.11-6.15c.33-2 1.16-3.91 1.44-5.92s.45-4.02.67-6.04.4-4.02.56-6.04.41-4.03.53-6.05c.11-2.02.42-4.03.47-6.06.06-2.02.16-4.05.16-6.08s-.5-4.1-.55-6.14-.22-4.09-.33-6.14-.63-4.06-.8-6.1-.1-4.1-.33-6.13c-.23-2.04-.3-4.09-.58-6.12s-.77-4.02-1.1-6.05c-.34-2.02-.36-4.1-.75-6.11s-1.36-3.9-1.81-5.9-.68-4.04-1.19-6.03-1.24-3.9-1.8-5.87-1.28-3.88-1.89-5.84c-.62-1.96-.72-4.07-1.39-6.01s-1.68-3.74-2.41-5.66c-.72-1.92-.44-4.23-1.22-6.13s-1.91-3.66-2.74-5.53-1.92-3.63-2.81-5.48c-.88-1.85-1.21-3.99-2.14-5.81s-3.04-3.03-4.03-4.83c-.98-1.8-1.74-4.37-1.42-5.07.75-1.68 2.7-1.16 4.59-1.38 1.89-.21 3.77-.42 5.64-.7s3.75-.55 5.61-.92 3.62-1.16 5.46-1.6 3.86-.19 5.69-.7c1.82-.52 3.74-.8 5.54-1.39s3.53-1.44 5.31-2.1 3.63-1.59 5.62-1.09 1.58 2.23 2.46 4.03 1.36 3.77 2.2 5.59c.84 1.81 1.37 3.75 2.17 5.59s2.39 3.32 3.15 5.17 1.13 3.85 1.85 5.71 1.16 3.82 1.84 5.7 1.74 3.62 2.37 5.52c.63 1.89 1.41 3.75 2 5.66s.48 4.02 1.02 5.94 1.27 3.78 1.77 5.72c.5 1.93 1.69 3.7 2.15 5.65.45 1.94-.09 4.11.32 6.07.41 1.95 1.7 3.73 2.06 5.7s.82 3.66.3 5.21-2.59 1.36-5.5 1.81-2.86.72-5.77 1.17-3.02-.32-5.93.12c-1.64.25-3.31 2.2-3.06 3.84.3 2.02 1.53 3.92 1.79 5.96.25 2.03-.5 4.17-.3 6.22.2 2.04 1.39 3.99 1.54 6.03s.29 4.1.4 6.15-.92 4.13-.86 6.18.88 4.08.88 6.13-.82 4.02-.87 6.03c-.05 2.02.79 4.06.69 6.07-.1 2.02-.52 4.02-.67 6.02s-.55 4-.75 6c-.2 2.01.17 4.08-.08 6.08-.25 2.01-.75 3.98-1.05 5.97s0 4.1-.36 6.08c-.35 1.99-1.33 3.87-1.73 5.84s-1.15 3.88-1.6 5.84c-.45 1.97-.21 4.1-.7 6.06-.5 1.96-2.14 3.6-2.69 5.54s-.05 4.19-.64 6.11-1.63 3.72-2.27 5.63-.58 4.08-1.27 5.97c-.69 1.9-2.28 3.46-3.01 5.34s-1.68 3.66-2.46 5.52-1.63 3.68-2.45 5.52c-.83 1.84-1.76 3.62-2.63 5.44s-1.77 3.61-2.68 5.41c-.92 1.8-1.49 3.76-2.45 5.54s-1.92 3.55-2.92 5.3-1.28 3.94-2.33 5.66c-1.05 1.73-3.13 2.8-4.22 4.5s-1.67 3.73-2.79 5.4-2.65 3.07-3.82 4.71-2.63 3.06-3.84 4.68-1.58 3.87-2.83 5.45-3.31 2.51-4.6 4.06-1.69 3.86-3.02 5.38-2.98 2.76-4.35 4.24c-1.36 1.49-2.37 3.32-3.77 4.78s-2.94 2.78-4.38 4.2c-1.43 1.42-2.89 2.83-4.36 4.21s-3.41 2.26-4.91 3.6c-1.5 1.35-3.31 2.33-4.85 3.64-1.53 1.31-2.97 2.72-4.53 3.99s-2.61 3.21-4.21 4.44-3.38 2.23-5.01 3.42-3.6 1.9-5.26 3.05-3.4 2.15-5.09 3.26-3.3 2.3-5.01 3.37-3.14 2.59-4.88 3.62-3.79 1.49-5.55 2.47-3.21 2.53-5 3.47c-1.78.94-3.87 1.29-5.68 2.18s-3.28 2.48-5.11 3.33-3.94 1.08-5.79 1.88-3.65 1.71-5.52 2.47c-1.87.75-3.93.98-5.82 1.69s-3.63 1.77-5.54 2.43c-1.9.66-3.55 2.12-5.48 2.73s-4.1.4-6.04.96-4 .61-5.96 1.13c-1.95.51-3.72 1.71-5.68 2.18s-3.79 1.55-5.77 1.97-4.07.27-6.05.64-4.06.16-6.06.47c-1.99.32-3.92.74-5.57.24s-2.15-1.68-3.74-3.58c-1.08-1.28-2.09-2.97-3.54-4.54-1.2-1.29-2.49-2.75-3.95-4.18-1.29-1.26-3.52-1.69-5.01-3.03-1.36-1.22-2.38-2.96-3.91-4.22-1.43-1.17-3.05-2.2-4.63-3.38-1.49-1.12-2.7-2.82-4.39-3.97-1.56-1.06-3.83-1.17-5.55-2.23-1.62-1-3.13-2.25-4.89-3.23-1.67-.93-2.97-2.69-4.76-3.58s-4-.61-5.83-1.42-3.16-2.52-5.02-3.24-3.81-.91-5.7-1.54-3.77-.92-5.69-1.47c-1.85-.53-3.85-.56-5.79-1.01s-3.57-1.85-5.53-2.21c-1.9-.35-3.97.25-5.94-.02-1.91-.26-3.79-.89-5.77-1.07s-3.83-1.14-5.82-1.23-3.92 1.25-5.91 1.25c-1.92 0-3.83-.67-5.74-.59s-3.78.71-5.68.88c-1.91.17-3.9-.41-5.79-.16-1.9.26-3.78.65-5.67 1s-3.58 1.55-5.45 1.97c-1.87.43-3.87.27-5.71.78-1.85.51-3.69 1.03-5.51 1.63s-3.56 1.41-5.35 2.09-3.35 1.86-5.11 2.62c-1.76.75-3.77.91-5.5 1.75-1.72.83-3.76 2.9-5.12 2.63s-2.92-2.54-4.52-3.59-3.65-1.42-5.23-2.5-3.24-2.06-4.79-3.18-3-2.39-4.53-3.54c-1.52-1.16-4.91-2.5-5-3.77s3.82-2.33 5.51-3.35c1.7-1.02 3.28-2.27 5-3.23s3.7-1.49 5.47-2.37c1.77-.89 3.51-1.84 5.31-2.66s3.86-1.04 5.69-1.78 3.78-1.14 5.63-1.81 3.63-1.55 5.51-2.15 3.48-2.17 5.39-2.7 4.03-.24 5.95-.7 3.68-1.75 5.62-2.13 3.94-.54 5.9-.84c1.95-.3 3.91-.71 5.88-.94 1.96-.23 4.02.46 6 .31 1.97-.15 3.91-.97 5.89-1.05 1.97-.07 3.97.21 5.95.21s4.02.62 6.03.7c2.02.08 4.04-.21 6.05-.05s4 .46 6 .69c2 .24 3.92.97 5.91 1.29 1.99.31 3.98.55 5.95.95s4.15-.12 6.11.35 3.63 2.03 5.57 2.58 4.21 0 6.13.62 3.79 1.43 5.68 2.13 3.81 1.38 5.67 2.15 3.55 1.96 5.38 2.81 3.61 1.8 5.4 2.71c1.79.92 3.62 1.77 5.38 2.76 1.75.99 3.11 2.63 4.83 3.69s3.97 1.27 5.64 2.39 3.18 2.49 4.81 3.68c1.62 1.19 3.12 2.56 4.7 3.81s3.28 2.35 4.82 3.67 2.93 2.77 4.41 4.14c.58.54 1.25.16 1.98.16.81 0 1.97.72 2.57.09 1.13-1.22 1.05-3.84-.17-4.96-1.46-1.35-3.34-2.25-4.85-3.54-1.51-1.3-3.24-2.32-4.79-3.56-1.56-1.24-2.57-3.19-4.17-4.37s-3.54-1.91-5.18-3.03-3.45-1.98-5.14-3.04c-1.68-1.06-3.06-2.64-4.78-3.63-1.72-1-3.77-1.41-5.52-2.34s-3.17-2.57-4.96-3.43-3.89-1.09-5.71-1.89-3.9-.94-5.75-1.66-3.38-2.3-5.26-2.95c-1.88-.66-3.86-.99-5.76-1.57s-3.87-.92-5.79-1.43-3.83-1.04-5.77-1.48-3.86-.92-5.82-1.28c-1.95-.37-3.88-.84-5.85-1.14-1.96-.29-3.94-.51-5.92-.73s-3.98.01-5.97-.13c-1.98-.15-3.95-.19-5.94-.27-1.98-.07-3.95-.06-5.94-.06s-3.93-.46-5.89-.38c-1.97.07-3.93.09-5.89.24s-3.9.5-5.85.72-3.99-.14-5.93.15-3.71 1.66-5.64 2.02-4.08-.33-5.99.1c-1.92.43-3.68 1.52-5.58 2.02s-3.64 1.51-5.52 2.08-3.77 1.05-5.62 1.69-3.68 1.32-5.51 2.03-3.8 1.05-5.61 1.83c-1.8.78-3.44 1.89-5.22 2.73s-3.42 1.89-5.17 2.8-3.6 1.57-5.31 2.54c-1.7.97-3.76 1.36-5.43 2.39s-3.43 3.25-4.91 3.05-3.23-1.89-4.75-3.23-2.61-3.17-4.09-4.55-2.76-2.97-4.22-4.38c-1.45-1.41-3.51-2.22-4.93-3.67s-2.03-3.66-3.41-5.15-3.45-2.34-4.79-3.86-2.52-3.19-3.83-4.74-2.72-3.02-3.98-4.61-2.65-3.09-3.88-4.7-1.6-3.86-2.78-5.5c-1.19-1.64-2.61-3.1-3.76-4.78-1.15-1.67-1.99-3.53-3.1-5.23-1.1-1.7-2.43-3.25-3.49-4.97-1.06-1.73-2.11-3.45-3.13-5.2s-2.92-3.01-3.89-4.79-.84-4.15-1.77-5.95c-.76-1.47-2.79-1.33-4.27-.57-1.47.76-2.02 1.94-1.26 3.42.91 1.77 2.15 3.35 3.1 5.1s1.72 3.59 2.72 5.31c1 1.73 1.04 4.02 2.07 5.72s2.25 3.31 3.32 4.98c1.08 1.68 2.8 2.93 3.92 4.57 1.12 1.65 2.55 3.06 3.71 4.68s2.1 3.38 3.3 4.97c1.19 1.59 2.64 2.98 3.87 4.55 1.23 1.56 2.56 3.03 3.83 4.56s2.48 3.09 3.79 4.6c1.3 1.5 2.38 3.19 3.72 4.67s2.87 2.75 4.25 4.19c1.37 1.44 1.89 3.72 3.3 5.13s3.31 2.32 4.75 3.69 3.22 2.37 4.69 3.71 2.41 3.28 3.91 4.58 2.77 2.91 4.3 4.18 3.15 2.46 4.71 3.69 3.6 1.86 5.19 3.05 3.17 2.41 4.79 3.56 2.95 2.74 4.6 3.86 3.42 2.06 5.09 3.14 3.22 2.38 4.92 3.41c.93.57 2.56.45 3.5-.08 1.8-1.01 3.43-2.33 5.27-3.24 1.85-.91 3.66-1.93 5.55-2.75s3.81-1.61 5.74-2.33 3.92-1.3 5.89-1.92 4.01-.99 6-1.51 4.08-.58 6.1-1 4.01-.88 6.05-1.2c2.04-.31 4.08-.44 6.13-.65s4.02-1.53 6.08-1.63 4.15.32 6.22.32c2 0 4-.3 5.95-.2s3.95.74 5.89.93 3.87 1.07 5.79 1.35c1.98.29 3.97.25 5.88.63 1.97.39 3.9.76 5.79 1.23s3.87.92 5.73 1.48c1.92.58 3.61 1.71 5.44 2.37 1.89.68 3.8 1.14 5.6 1.89 1.86.77 3.67 1.51 5.42 2.35s3.54 1.79 5.25 2.71c1.78.95 3.73 1.5 5.39 2.49s3.54 1.9 5.15 2.97c1.69 1.12 2.72 3.1 4.26 4.23 1.64 1.21 3.28 2.28 4.76 3.48 1.6 1.29 3.54 2.04 4.96 3.3 1.56 1.38 2.44 3.32 3.77 4.62 1.53 1.49 3.42 2.4 4.64 3.72 1.54 1.66 3.31 2.78 4.38 4.06 2.34 2.82 2.46 5.4 2.52 5.49.56.85.37 1.4 2.18 1.28 3.57-.24 5.88-.34 7.31-.6 1.98-.36 4.29-1.07 6.26-1.41s3.52-.97 5.49-1.36c1.97-.4 4.07-.21 6.03-.65s3.79-1.44 5.74-1.93 3.72-1.62 5.65-2.16 4.16-.09 6.07-.67 3.92-.96 5.83-1.59 3.45-2.33 5.34-3 3.77-1.36 5.64-2.08 3.79-1.32 5.64-2.09 3.98-.92 5.81-1.73c1.84-.81 3.3-2.44 5.12-3.29s3.62-1.73 5.41-2.63c1.8-.9 3.53-1.89 5.3-2.84s3.6-1.76 5.35-2.75 3.43-2.07 5.15-3.1 3.75-1.56 5.45-2.63 3.16-2.51 4.83-3.62 3.82-1.53 5.47-2.68 3.12-2.56 4.74-3.75 3.45-2.11 5.04-3.34 2.62-3.17 4.17-4.44c1.56-1.27 2.76-2.94 4.29-4.24s3.19-2.44 4.68-3.78 3.81-1.8 5.27-3.17c1.46-1.38 2.11-3.6 3.54-5.01s3.37-2.31 4.77-3.76 2.46-3.21 3.82-4.68c1.36-1.48 3.23-2.51 4.55-4.01 1.33-1.51 2.64-3.04 3.93-4.58s1.62-3.86 2.87-5.43 3-2.75 4.21-4.35 2.76-2.96 3.94-4.58 2.02-3.5 3.15-5.15 2.39-3.24 3.49-4.92 2.2-3.36 3.26-5.07 1.91-3.54 2.92-5.28 2.16-3.39 3.14-5.15 1.96-3.51 2.89-5.29 1.43-3.78 2.32-5.58 1.77-3.6 2.61-5.42 2.15-3.44 2.95-5.28 1.83-3.6 2.59-5.46.26-4.21.98-6.09 1.41-3.74 2.07-5.64c.66-1.89 1.67-3.66 2.29-5.57s1.85-3.63 2.42-5.56 1.1-3.87 1.62-5.81.97-3.9 1.45-5.85.89-3.92 1.33-5.88.3-4.04.68-6.01.42-3.99.76-5.97 1.88-3.77 2.16-5.76c.29-1.98.67-3.97.91-5.97.24-1.99-.75-4.12-.55-6.12s1.35-3.91 1.49-5.92c.14-2 .33-4.01.43-6.02s-.36-4.03-.31-6.05c.05-2 .52-4.01.52-6.02s-.56-3.86-.6-5.8c-.04-1.93-.28-3.85-.37-5.79-.09-1.93-.25-3.85-.38-5.78s.49-3.92.31-5.84c-.18-1.93-.18-3.88-.4-5.8s-1.2-4.29-.54-5.29 2.67-1.57 6.3-2.12c3.62-.55 5.58-1.43 7.03-.07 1.45 1.37.97 3.66 1.21 5.7s-.07 4.13.12 6.18c.19 2.04.14 4.1.29 6.15.14 2.05.76 4.06.86 6.12s.15 4.1.2 6.16c.05 2.05-.28 4.1-.28 6.17s.71 4.05.66 6.06c-.05 2.02-.59 4.02-.69 6.04-.09 2.02-.24 4.03-.37 6.04-.14 2.02.69 4.11.5 6.12-.18 2.01-.71 4-.94 6-.23 2.01-.33 4.04-.6 6.04s-1.84 3.81-2.16 5.8.7 4.22.34 6.2-1.41 3.85-1.82 5.82-.6 4.01-1.06 5.97-1.23 3.86-1.73 5.81-.82 3.96-1.36 5.91-1.51 3.76-2.1 5.69-1.22 3.84-1.85 5.76-.38 4.15-1.05 6.05c-.68 1.9-1.8 3.65-2.52 5.54s-1.56 3.73-2.33 5.6c-.76 1.87-1.43 3.78-2.24 5.63s-2.05 3.5-2.9 5.34-1.89 3.56-2.78 5.37-1.07 3.98-2.01 5.77c-.93 1.79-2.37 3.32-3.34 5.09s-2.01 3.5-3.02 5.24c-1.01 1.75-2.12 3.43-3.17 5.15s-.89 2.6 1.58.31 3.06-1.65 5.53-3.94 2.01-2.78 4.49-5.07c2.47-2.29 2.68-2.05 4.96-4.52.9-1.75 2.24-3.2 3.1-4.97s.99-3.88 1.82-5.67 2.74-3.09 3.53-4.89 1.1-3.82 1.84-5.64.68-3.96 1.39-5.79 1.86-3.5 2.52-5.35 1.34-3.7 1.97-5.56 1.21-3.74 1.8-5.62 1.92-3.54 2.47-5.43 1.04-3.81 1.55-5.71c.5-1.9.86-3.85 1.32-5.77.46-1.91.36-3.96.78-5.88s.84-3.84 1.22-5.77.64-3.88.98-5.82.48-3.9.78-5.85.69-3.87.94-5.82.42-3.91.63-5.86.12-3.93.29-5.89 1.46-3.83 1.59-5.8-.68-3.98-.6-5.95.82-3.91.86-5.88.4-3.94.4-5.91-1.1-4.02-1.14-6.02.56-4.04.47-6.05-1.18-3.96-1.31-5.96 1.04-4.11.87-6.11-1.15-3.93-1.37-5.93.33-4.1.06-6.09-.85-3.95-1.16-5.93-1.4-3.84-1.75-5.82-.62-3.97-1.01-5.94c-.4-1.97.17-4.15-.27-6.11s-1.57-3.77-2.05-5.72-1.03-3.89-1.55-5.83c-.53-1.94-1.07-3.88-1.64-5.8-.57-1.93-1.83-3.64-2.44-5.55s-.96-3.9-1.62-5.8-1.47-3.73-2.17-5.62-1.13-3.86-1.87-5.73-1.01-3.93-1.79-5.78-2.2-3.42-3.02-5.26-1.12-3.91-1.98-5.72c-.86-1.82-2.07-3.46-2.98-5.26-.9-1.8-.99-4.02-1.93-5.79-.94-1.78-3.07-2.91-4.04-4.66-.98-1.76-1.35-3.85-2.37-5.58s-2.58-3.13-3.64-4.84-1.9-3.54-2.99-5.23-2.21-3.35-3.34-5.01-1.99-3.51-3.16-5.15-2.63-3.06-3.83-4.67-2.27-3.32-3.51-4.91-2.33-3.28-3.6-4.84-3.07-2.67-4.38-4.19-2-3.59-3.34-5.09-3.2-2.52-4.58-3.99-2.52-3.15-3.92-4.58c-1.4-1.44-2.78-2.91-4.21-4.31-1.43-1.41-2.52-3.19-3.99-4.56-1.46-1.38-3.71-1.91-5.2-3.25s-2.79-2.89-4.32-4.21c-1.52-1.31-3.35-2.25-4.9-3.53s-2.49-3.31-4.07-4.56-3.57-1.95-5.18-3.16-2.58-3.28-4.21-4.45-4.11-1.13-5.77-2.27-3.16-2.49-4.84-3.59-3.02-2.73-4.73-3.79c-1.7-1.06-3.88-1.34-5.61-2.37-1.73-1.02-3.32-2.26-5.07-3.25s-3.4-2.15-5.17-3.1-3.9-3.33-5-2.41.42 2.85.78 4.55-.4 3.66 1.51 4.7c1.91 1.05 3.29 1.79 5 2.76s3.27 2.21 4.95 3.22 3.18 2.33 4.84 3.37 3.35 2.05 4.99 3.13 3.45 1.91 5.07 3.03 3.32 2.12 4.91 3.27 2.97 2.6 4.54 3.78 2.7 2.92 4.24 4.14 3.28 2.18 4.79 3.43 3.56 1.88 5.05 3.16 2.62 2.98 4.07 4.3c1.46 1.32 2.82 2.73 4.25 4.09s2.53 3.02 3.93 4.4 2.82 2.72 4.19 4.13c1.36 1.41 2.87 2.69 4.2 4.13s3.24 2.38 4.54 3.85 2.42 3.12 3.69 4.62 2.23 3.26 3.46 4.79 2.65 2.91 3.86 4.47 1.62 3.69 2.79 5.27 3.29 2.46 4.42 4.07c1.13 1.6 2.46 3.09 3.55 4.72 1.1 1.63 1.47 3.74 2.53 5.4 1.06 1.65 2.4 3.14 3.42 4.81 1.02 1.68 2.17 3.28 3.16 4.98s2.21 3.29 1.64 4.53-2.78 2.22-4.62 2.89-3.84.9-5.72 1.49-3.47 2.19-5.37 2.69-3.88.78-5.81 1.21c-1.92.42-3.89.7-5.83 1.04s-3.97.01-5.93.27c-1.95.25-3.92.07-5.89.24-1.96.17-3.87.75-5.84.84s-3.92.78-5.89.78-4.07-.23-6.08-.32c-2.03-.09-4.01-.82-6.02-1s-3.99-.65-5.99-.92c-2.01-.27-4.02-.4-6-.76s-3.99-.63-5.96-1.08-4.2.04-6.15-.5-3.89-1.23-5.81-1.86c-1.93-.63-3.57-2.08-5.47-2.8-1.9-.71-3.66-1.72-5.52-2.51-1.86-.8-3.73-1.54-5.55-2.42s-3.95-1.18-5.73-2.14-3.36-2.3-5.09-3.34c-1.74-1.04-3.61-1.87-5.3-2.98s-2.93-2.87-4.57-4.06-3.48-2.09-5.06-3.35-3.68-1.92-5.21-3.25-2.67-3.11-4.13-4.51c-1.47-1.4-3.28-2.47-4.68-3.93s-2.52-3.22-3.85-4.74-2.82-2.94-4.09-4.52-2.56-3.17-3.76-4.8-1.47-3.91-2.59-5.6-2.44-3.23-3.48-4.96-2.08-3.46-3.04-5.25c-.96-1.78-2.01-3.51-2.89-5.34-.88-1.82-1.59-3.71-2.4-5.58-.8-1.85-1.2-3.86-1.92-5.76s-1.97-3.58-2.6-5.51-.88-3.95-1.42-5.91c-.54-1.94-.85-3.94-1.31-5.92-.45-1.97-.71-3.95-1.07-5.95-.36-1.98-1.52-3.84-1.8-5.85-.27-2-2.02-4.6-.29-5.82s3.91.1 5.92.53 3.82 1.7 5.82 2.18 4.26-.07 6.24.46 4.08.24 5.51 2.57.44 3.84.87 5.78 1.73 3.69 2.26 5.61.58 3.99 1.21 5.88 1.45 3.73 2.18 5.58c.73 1.86 1.39 3.75 2.22 5.57s2.03 3.45 2.96 5.22 1.18 3.93 2.2 5.64 3.04 2.8 4.15 4.46 2.14 3.35 3.34 4.95 1.86 3.62 3.14 5.15 2.68 2.98 4.04 4.44c1.35 1.46 3.21 2.43 4.65 3.83 1.43 1.39 2.73 2.91 4.24 4.22 1.56 1.36 3 2.88 4.63 4.15 1.64 1.27 3.75 1.87 5.45 3.05s3.42 2.28 5.18 3.36 3.2 2.71 5.02 3.69 3.62 2.02 5.49 2.91 4.02 1.11 5.94 1.89 3.63 2.07 5.59 2.74 3.83 1.67 5.82 2.24c1.99.56 4.23.15 6.25.6s3.91 1.56 5.95 1.9 4.14.29 6.2.51c2.05.23 4.08 1.02 6.15 1.14 2.06.11 4.16.24 6.24.24 1.88 0 3.74-1.1 5.62-1.19s3.84.68 5.7.49c1.65-.16 2.16-2.09 2-3.74s-.97-2.66-2.62-2.51c-1.76.18-3.55.46-5.33.55s-3.58-.57-5.36-.57c-2.03 0-4.04-.08-6.05-.19s-4.1.36-6.1.13-3.9-1.33-5.89-1.68c-2-.35-3.98-.62-5.95-1.08s-4.14-.21-6.07-.78-3.52-2.25-5.42-2.93-3.76-1.41-5.62-2.2-3.89-1.18-5.7-2.07-3.75-1.58-5.51-2.57c-1.76-1-3.56-1.96-5.26-3.06s-3.1-2.63-4.74-3.82-3.65-1.9-5.22-3.18-3.16-2.57-4.66-3.93-2.31-3.44-3.72-4.88-3.34-2.42-4.67-3.94-2.79-2.98-4.03-4.57-2.49-3.23-3.64-4.89-2.32-3.35-3.38-5.08-2.04-3.53-2.99-5.32c-.95-1.78-.87-4.08-1.73-5.92-.85-1.83-2.26-3.42-3.01-5.3-.74-1.88-.9-3.96-1.54-5.89-.63-1.91-1.83-3.66-2.36-5.62-.52-1.95-.7-3.99-1.11-5.98s-.7-3.97-.99-5.98c-.17-1.15-1.18-1.86-2.29-2.2-1.97-.6-4.05-.8-6.03-1.35-1.99-.55-3.76-1.88-5.76-2.38s-4.04-.86-6.05-1.31-4-1.04-6.02-1.44-4.22.19-6.25-.16-3.91-1.57-5.95-1.87-4.1-.45-6.14-.71-4.08-.59-6.13-.79-4.11-.26-6.17-.41-4.08-.98-6.14-1.08-4.14-.02-6.2-.07-4.13 1.17-6.2 1.17-3.99.08-5.99.13-4.03-.7-6.02-.61-3.96.82-5.95.96c-2 .14-4 .11-5.99.3s-3.93.78-5.92 1.02-4.01.1-5.99.38-4.06-.02-6.03.31-4.01.37-5.98.75-3.96.71-5.91 1.13-3.65 1.99-5.6 2.46-3.98.56-5.92 1.08-3.83 1.17-5.75 1.74-3.74 1.43-5.65 2.04c-1.9.61-4.03.55-5.93 1.21-1.89.66-3.7 1.54-5.58 2.24s-3.64 1.68-5.5 2.43c-1.85.75-3.57 1.82-5.41 2.62-1.89.82-3.94 1.23-5.8 2.09s-3.75 1.69-5.59 2.59-3.75 1.69-5.57 2.64-3.24 2.63-5.03 3.63c-1.8.99-3.88 1.47-5.65 2.51s-3.53 2.09-5.28 3.17-3.09 2.78-4.8 3.9c-1.72 1.12-3.68 1.86-5.37 3.02s-3.38 2.32-5.04 3.53-3.22 2.54-4.85 3.79-3.48 2.21-5.08 3.5-2.69 3.18-4.25 4.51-3.57 2.13-5.11 3.5c-1.53 1.36-3.4 2.38-4.9 3.78s-2.38 3.45-3.84 4.89-2.84 2.95-4.27 4.42c-.59.61-.79 1.17-.73 2.02.11 1.54-.69 3.15-.64 4.71s.45 3.1.45 4.66c0 2 .75 4.02.66 6-.09 2-.6 3.98-.78 5.96-.18 1.99-.44 3.98-.71 5.94-.27 1.98-.92 3.9-1.28 5.85s-1.4 3.76-1.85 5.7-.01 4.1-.55 6.01-1.87 3.59-2.49 5.48-1.36 3.72-2.07 5.58-.7 4.01-1.49 5.83-1.48 3.72-2.35 5.51-2.09 3.42-3.04 5.16-1.79 3.57-2.82 5.27-2.34 3.23-3.45 4.89-1.68 3.71-2.86 5.31-3.1 2.65-4.36 4.2-2.07 3.47-3.39 4.96-3 2.66-4.39 4.08-2.88 2.75-4.33 4.11-2.97 2.64-4.48 3.94c-1.51 1.29-2.67 3.03-4.24 4.26-1.57 1.22-3.79 1.57-5.42 2.72s-2.69 3.11-4.37 4.19-3.54 1.86-5.27 2.86-3.48 1.95-5.25 2.87c-1.76.92-3.79 1.3-5.6 2.13-1.8.83-4.31 1.87-5 1.23zm261.64-201.75c1.89 0 3.79-.51 5.68-.46s3.75.96 5.64 1.05 3.79-.08 5.67.05 3.76.41 5.64.58 3.83-.28 5.71-.07 3.64 1.32 5.52 1.58 3.57-.27 4.54 1.71 1.22 2.91 1.47 4.96c.26 2.07.61 4.12.96 6.16s1.62 3.91 2.06 5.93c.44 2.03-.29 4.34.23 6.34.53 2.01 1.27 3.98 1.88 5.96.62 1.99 2.29 3.61 2.99 5.56.7 1.96 1.09 4.01 1.87 5.93.79 1.92.73 4.22 1.6 6.1.87 1.89 1.95 3.7 2.9 5.54.96 1.84 2.07 3.63 3.1 5.42s2.28 3.49 3.39 5.24-.15 3.81-2.04 3.17-3.8-1.22-5.71-1.79-3.89-.88-5.82-1.4-3.61-2.06-5.55-2.51-3.94-.77-5.9-1.16-4.1.21-6.07-.12-3.9-.88-5.88-1.14-3.99-.18-5.98-.38-3.95-.48-5.95-.61-3.98-.02-5.98-.08c-1.99-.06-3.97-.99-5.98-.99s-4.03.96-6.05 1.03-4.1-.91-6.12-.77c-2.02.13-4.03.52-6.04.72-2.02.2-4.04.43-6.04.7-2.01.27-3.99.73-5.99 1.07s-3.92 1.07-5.9 1.47-4.01.6-5.98 1.06-3.93.96-5.88 1.49-3.79 1.45-5.72 2.04-4.02.7-5.94 1.36c-1.91.66-3.73 1.6-5.62 2.32s-3.77 1.45-5.64 2.23-3.75 1.52-5.59 2.37-3.92 1.2-5.73 2.11c-1.81.9-3.16 2.7-4.94 3.67s-3.87 1.36-5.62 2.38-3.68 1.76-5.39 2.84-3.36 2.28-5.04 3.42-3.38 2.25-5.02 3.44c-1.63 1.19-4.81 4.01-4.26-1.84.18-1.99.91-3.96.97-5.96.06-1.99.18-4 .18-6.01s-.65-3.83-.7-5.75.6-3.87.49-5.79-1.23-3.76-1.4-5.67-.64-3.78-.86-5.68c-.22-1.91-.53-3.78-.8-5.68s.46-3.95.13-5.84-.73-3.78-1.11-5.65c-.38-1.88-.29-4.25-.84-6.09-1.69-5.57-1-5.54 3.34-7.34 1.82-.75 3.33-2.1 5.09-2.97s3.17-2.49 4.95-3.31c1.78-.83 3.54-1.75 5.34-2.53s4.07-.48 5.89-1.22 3.64-1.44 5.48-2.14 3.48-1.92 5.33-2.57 3.97-.49 5.84-1.09 3.33-2.51 5.22-3.07c1.88-.56 4.01-.29 5.91-.8s3.93-.44 5.84-.9 3.69-1.41 5.62-1.82c1.92-.42 3.84-.79 5.77-1.16s3.84-.79 5.78-1.12 3.82-.99 5.77-1.27c1.94-.28 3.91-.39 5.87-.62s3.95.08 5.91-.1c1.95-.18 3.85-1.04 5.81-1.18s3.91-.52 5.88-.61c1.96-.09 3.94 0 5.91-.04s3.93.31 5.9.31z"/><path d="m597.6 318.25c0 1.96-1.01 3.91-1.05 5.86-.04 1.96.03 3.91-.05 5.86-.08 1.96.56 3.95.44 5.9s0 3.94-.17 5.88-.58 3.89-.79 5.83-1.31 3.79-1.56 5.73-.31 3.9-.59 5.83-.98 3.8-1.31 5.72.39 4.05.03 5.97-.67 3.87-1.07 5.78c-.41 1.91-1.58 3.66-2.03 5.56s-.21 3.98-.69 5.88-2.22 3.45-2.75 5.33.13 4.11-.44 5.98-2.32 3.37-2.92 5.23c-.61 1.86-.39 3.99-1.03 5.84s-1.05 3.79-1.73 5.62-1.55 3.6-2.27 5.42-1.15 3.77-2.03 5.52c-.8 1.59.96 1.26 1.84.31 1.96-2.1 1.17-1.46 3.28-3.41s2.66-1.34 4.77-3.29 1.8-2.27 3.9-4.22 2.33-1.7 4.43-3.65 2.16-1.88 4.27-3.83 2.14-1.91 4.24-3.86c2.11-1.95 1.79-2.29 3.9-4.24s2.25-1.74 4.05-3.98c.53-1.97 2.08-3.51 2.57-5.5.49-1.98.27-4.15.72-6.14s.97-3.98 1.38-5.98.64-4.04 1.01-6.06c.37-2.01.54-4.05.87-6.07s.3-4.08.59-6.11c.29-2.02 1.28-3.95 1.53-5.98s.82-4.03 1.03-6.07c.21-2.03-.69-4.17-.52-6.21.16-2.04.51-4.05.63-6.1s.16-4.08.24-6.12.93-4.06.97-6.11.43-4.1.43-6.14-.67-3.97-.71-5.96.11-3.98.03-5.96.03-3.98-.09-5.96c-.11-1.98-1.08-3.91-1.24-5.88s.37-4.02.18-5.99c-.19-1.98-.58-3.94-.81-5.91s-1.12-3.86-1.38-5.82-.58-3.92-.88-5.88c-.31-1.96.35-4.08 0-6.04s-1.71-3.72-2.09-5.67-.33-3.98-.75-5.92-.46-3.97-.92-5.9-1.57-3.7-2.07-5.62-.58-3.95-1.12-5.86-1-3.85-1.57-5.75-.96-3.86-1.58-5.75-1.79-3.59-2.43-5.47c-.65-1.88-1.81-3.56-2.5-5.42s-.36-4.1-1.09-5.95-1.47-3.7-2.23-5.53-2.6-3.2-3.4-5.02-1.47-3.68-2.3-5.48-1.6-3.62-2.47-5.41-.99-3.94-1.89-5.71-1.47-3.72-2.41-5.47-2.84-2.97-3.81-4.71c-.97-1.73-1.65-3.63-2.66-5.34s-2.2-3.3-3.24-4.99-1.8-3.55-2.88-5.22c-1.07-1.67-2.72-2.95-3.83-4.6s-1.63-3.69-2.77-5.32c-1.14-1.62-2.3-3.24-3.47-4.84s-2.03-3.44-3.24-5.02c-1.2-1.58-3.37-2.41-4.6-3.97s-1.65-3.77-2.91-5.3-3.14-2.55-4.43-4.06-2.46-3.12-3.78-4.6-2.93-2.69-4.28-4.15c-1.35-1.45-2.11-3.46-3.49-4.9s-3.18-2.44-4.58-3.85c-1.38-1.38-2.65-2.89-4.05-4.24-1.41-1.36-2.98-2.54-4.41-3.87s-2.2-3.4-3.66-4.7-3.3-2.18-4.78-3.46c-1.49-1.28-3.5-1.92-5-3.16s-2.49-3.13-4.02-4.35-3.39-2.01-4.94-3.2-2.98-2.54-4.56-3.7-3.45-1.89-5.05-3.02-2.85-2.75-4.47-3.84-3.68-1.52-5.32-2.58-2.78-2.92-4.44-3.95-3.62-1.57-5.3-2.57-3.27-2.14-4.97-3.11-3.58-1.59-5.3-2.52-3.12-2.45-4.86-3.35-3.41-1.93-5.16-2.8c-1.75-.86-3.98-2.28-5.39-1.74-1.42.54-.63 2.11-1.13 3.32-.67 1.63-1.46 3.17-1.97 4.83s-1 3.34-1.35 5.05c-.35 1.72-.22 3.47-.41 5.21s-1.75 3.36-.74 5c1.01 1.63 3.07 2.43 4.84 3.35s3.86 1.24 5.61 2.2 3.43 2.06 5.16 3.05 3.2 2.43 4.91 3.46 3.82 1.42 5.5 2.48 3.41 2.09 5.07 3.2c1.67 1.1 3.03 2.66 4.67 3.79 1.64 1.14 2.92 2.78 4.53 3.95 1.62 1.17 3.85 1.51 5.44 2.71s3.24 2.35 4.81 3.59 3.27 2.33 4.8 3.6 2.72 2.98 4.23 4.28c1.51 1.31 2.55 3.14 4.03 4.47s3.26 2.35 4.71 3.72 3.42 2.22 4.84 3.62 2.65 3.01 4.05 4.44 2.46 3.17 3.83 4.63c1.36 1.46 3.09 2.59 4.42 4.08s1.87 3.67 3.17 5.19 2.64 2.99 3.9 4.53 2.85 2.83 4.08 4.4 3.09 2.67 4.29 4.26 1.42 3.91 2.59 5.53 2.68 2.99 3.81 4.63 2.69 3.01 3.78 4.68 1.46 3.81 2.52 5.5 2.34 3.25 3.36 4.96 1.92 3.5 2.91 5.24c.99 1.73 2.53 3.17 3.48 4.92s1.1 3.93 2.01 5.71 2.03 3.44 2.9 5.24c.87 1.79 1.6 3.65 2.43 5.47s1.69 3.61 2.49 5.44 2.4 3.33 3.15 5.18.33 4.16 1.04 6.03 1.56 3.67 2.24 5.55c.67 1.88 2.34 3.42 2.97 5.31s.89 3.92 1.48 5.83.23 4.09.78 6.01 1.23 3.79 1.74 5.72 1.11 3.83 1.58 5.77 1.09 3.84 1.52 5.79c.42 1.95 1.6 3.75 1.98 5.71s.34 4 .68 5.97.7 3.93.99 5.91c.3 1.97.82 3.92 1.08 5.9.25 1.98-.59 4.08-.38 6.07.21 1.98.51 3.95.68 5.94s1.28 3.9 1.41 5.9-.04 4 .04 6 .45 3.98.49 5.98.23 4 .23 6z"/></g></svg>