<svg viewBox="0 0 547.52 547.29" xmlns="http://www.w3.org/2000/svg"><g fill="#fff"><path d="m467.39 256.83c1.66 0 2.76-1.41 3.85-2.49s1.8-2.19 1.8-3.85"/><path d="m116.87 257.74c-.16 1.29-1.15 2.57.13 2.36 2.66-.45 2.33-1.4 4.45-3.06 2.13-1.66 1.94-1.9 4.07-3.57 2.13-1.66 3.82-2.33 3.79-3.26s-2.04-.77-4.54-1.51-3.49-2.08-4.96-1.49-.94 2.58-1.8 5.21c-.85 2.59-.79 2.57-1.14 5.32z"/><path d="m407.39 359.23c.73-1.07 1.31-2.24.07-2.63-2.58-.81-2.82.37-5.47.88s-2.72.18-5.37.69-5.32.03-5.63 1.08 2.21 2.53 4.09 4.33c1.89 1.8 2.73 2.28 3.79 2.28s1.77-1.53 4.01-3.15c2.34-1.7 2.96-1.19 4.52-3.47z"/><path d="m.95 273.27c0 2.01-.99 4.03-.95 6.03s.71 4 .8 6c.09 2.01.12 4.02.25 6.01s-.04 4.03.14 6.03 1.04 3.93 1.26 5.92.23 4.01.5 6c.26 1.99.01 4.06.32 6.04.31 1.99 1.59 3.8 1.94 5.78s.92 3.9 1.31 5.86c.4 1.97.42 4 .86 5.96s.36 4.04.84 5.98 1.54 3.75 2.06 5.68c.53 1.94.74 3.96 1.31 5.88.57 1.93 1 3.89 1.61 5.8s1.32 3.79 1.97 5.69 1.46 3.74 2.15 5.62.96 3.93 1.7 5.8 1.18 3.87 1.95 5.72 2.71 3.21 3.52 5.04.76 4.07 1.61 5.88c.86 1.82 2.46 3.27 3.36 5.06.9 1.8 1.54 3.72 2.47 5.49s1.3 3.87 2.27 5.62 2.18 3.39 3.2 5.12c1.01 1.73 2.27 3.33 3.32 5.03 1.05 1.71 2.77 2.99 3.86 4.68s1.23 4 2.35 5.66 2.97 2.82 4.13 4.46 2.27 3.3 3.46 4.91 1.78 3.69 3.01 5.28 2.46 3.19 3.72 4.75 3.11 2.64 4.4 4.17c1.3 1.53 2.81 2.87 4.14 4.37s2.19 3.43 3.55 4.9 2.97 2.72 4.36 4.16c1.4 1.44 2.58 3.09 4.01 4.5s2.83 2.85 4.29 4.23 2.79 2.9 4.28 4.25 3.67 1.91 5.18 3.23 2.68 3.04 4.23 4.32c1.54 1.28 2.9 2.8 4.48 4.05s3.88 1.53 5.48 2.74 3 2.67 4.63 3.84 2.93 2.8 4.58 3.94 3.51 1.97 5.18 3.08c1.68 1.1 3.66 1.7 5.37 2.76 1.7 1.06 2.84 3.04 4.57 4.06s3.43 2.1 5.17 3.09 3.71 1.58 5.48 2.53 3.31 2.33 5.1 3.24 3.73 1.53 5.54 2.4 3.77 1.41 5.6 2.24c1.82.83 3.36 2.34 5.2 3.13s3.68 1.64 5.54 2.39 4.24.17 6.12.88 3.72 1.45 5.62 2.12 3.48 2.2 5.39 2.82c1.67.56 1.63.7 3.3 1.24 1.88.59 3.8 1.09 5.69 1.64s3.96.43 5.87.93 3.64 1.66 5.55 2.13 3.97.29 5.9.71 3.91.5 5.84.88 3.64 1.97 5.58 2.31 4.07-.48 6.01-.19 3.85.87 5.8 1.12 3.85.99 5.8 1.2 3.96-.05 5.92.12 3.88.96 5.84 1.09 3.98-.72 5.95-.63 3.9 1.18 5.87 1.22 3.95-.6 5.92-.6 4.01-.63 6.02-.68c2.02-.04 4.02.16 6.03.07s4.08.87 6.09.73c2.01-.13 4-.63 6-.81 2.01-.18 3.99-.65 5.98-.87s4.04-.21 6.03-.47 4.02-.4 6-.71 4.01-.5 5.99-.86c1.98-.35 3.93-.93 5.9-1.33s3.96-.79 5.92-1.23 3.72-1.78 5.66-2.27c1.95-.49 4.05-.42 5.99-.95s3.99-.73 5.91-1.3c1.93-.57 3.55-2.14 5.46-2.76s4.12-.37 6.02-1.03 3.68-1.68 5.56-2.38c1.89-.7 3.85-1.22 5.71-1.96 1.87-.74 3.46-2.18 5.31-2.96s3.86-1.2 5.69-2.02 3.73-1.53 5.54-2.39 3.37-2.26 5.16-3.17c1.8-.9 3.74-1.51 5.52-2.46s3.73-1.57 5.48-2.55 3.06-2.74 4.79-3.76 4.08-1.04 5.78-2.09c1.71-1.06 3.41-2.17 5.09-3.26 1.69-1.1 2.71-3.19 4.37-4.33s3.96-1.36 5.59-2.53 3.01-2.71 4.62-3.92 2.71-3.07 4.29-4.3 3.33-2.26 4.88-3.54 4.6-1.88 4.68-3.54-3.51-.77-5.4-.91c-1.86-.14-3.76.45-5.66.45-.08 0 3.37-.41.01-.08-3.35.33-3.5 2.03-5.1 3.25-1.59 1.22-3.41 2.13-5.03 3.31-1.62 1.19-2.53 3.37-4.18 4.52s-4.12 1.08-5.79 2.19-2.77 3.1-4.47 4.17-3.78 1.52-5.5 2.56-3.41 2.1-5.16 3.1c-1.74 1-3.37 2.2-5.13 3.15-1.76.96-3.32 2.32-5.11 3.23s-3.89 1.19-5.7 2.07c-1.81.87-3.73 1.48-5.56 2.32s-3.16 2.79-5 3.58-3.87 1.19-5.73 1.94-4 .79-5.88 1.49-3.62 1.78-5.52 2.44-3.9.97-5.82 1.59c-1.91.62-3.71 1.58-5.63 2.16s-3.93.84-5.87 1.38c-1.93.53-3.67 1.82-5.62 2.31s-4.12.02-6.08.46-3.78 1.49-5.75 1.88c-1.96.4-3.95.71-5.93 1.06-1.97.35-3.96.65-5.95.96s-3.89 1.24-5.88 1.5-4.09-.38-6.09-.17c-1.99.21-5.47 1.09-6.06.34s.19-3.65.5-5.62.96-3.91 1.35-5.87 1.47-3.77 1.94-5.71-.13-4.18.43-6.1c.56-1.93 2.4-3.45 3.04-5.34s1.17-3.81 1.89-5.68 1.47-3.7 2.26-5.54c.8-1.84 1.02-3.93 1.89-5.73.87-1.81 1.98-3.49 2.93-5.25.95-1.77 1.7-3.64 2.72-5.36 1.02-1.73 2.1-3.42 3.19-5.09s2.07-3.44 3.23-5.08 2.29-3.31 3.51-4.89 3.12-2.63 4.4-4.16c1.29-1.53 2.49-3.12 3.84-4.6s2.26-3.38 3.67-4.8 2.81-2.87 4.28-4.24c1.47-1.36 3.34-2.28 4.86-3.59 1.52-1.3 3.07-2.57 4.64-3.8s2.65-3.15 4.27-4.33 3.95-1.33 5.62-2.44 3.3-2.23 5.02-3.27c1.71-1.04 2.92-2.97 4.67-3.93s3.9-1.2 5.69-2.1c1.79-.89 3.82-1.25 5.65-2.07 1.83-.81 3.51-1.92 5.37-2.66s3.6-1.78 5.49-2.44 3.84-1.13 5.76-1.71c1.91-.58 3.72-1.59 5.66-2.09s3.95-.71 5.92-1.12c1.95-.42 4.06.03 6.04-.31 1.97-.33 3.91-.72 5.9-.97s3.87-1.4 5.87-1.56 4.04.73 6.05.64c1.99-.08 3.97-.17 5.98-.17 2.16 0 4.29 0 6.44.09 2.16.1 4.31-.13 6.46.06s4.31.22 6.45.5c2.14.29 4.15 1.3 6.27 1.68s4.24.63 6.35 1.11 4.26.66 6.34 1.23c1.24.34 2.54-.38 3.26-1.44 1.11-1.64 1.95-3.46 3.02-5.13s2.18-3.31 3.21-5 1.9-3.47 2.89-5.19 2.81-2.97 3.76-4.71 1.18-3.87 2.09-5.63 2.6-3.14 3.47-4.92 1.83-3.54 2.65-5.34.98-3.91 1.76-5.73.82-3.94 1.56-5.78 1.82-3.53 2.52-5.39c.69-1.86 1.26-3.75 1.91-5.62s1.5-3.67 2.1-5.56.69-3.92 1.24-5.83c.56-1.9 1.86-3.59 2.37-5.5s1.2-3.79 1.67-5.72 1-3.85 1.42-5.79.13-4.02.5-5.97.37-3.95.7-5.91c.33-1.95 1.28-3.81 1.56-5.77s1.2-3.85 1.43-5.82-.9-4.08-.71-6.06c.19-1.97.27-3.94.41-5.92s.36-3.93.45-5.92.53-3.94.58-5.92.56-3.96.56-5.94-.49-4.02-.54-6.03-.16-4.02-.26-6.02c-.1-2.01-.33-4-.48-6.01-.14-2.01.83-4.11.63-6.11-.19-2-.44-4.02-.68-6.01-.24-2-.8-3.97-1.09-5.96s-1.04-3.91-1.37-5.9c-.34-1.98-.32-4.04-.71-6.01s-1.46-3.81-1.89-5.77c-.43-1.97-1.08-3.87-1.56-5.82s.25-4.22-.28-6.16-1.23-3.85-1.8-5.78-2.29-3.5-2.9-5.42c-.62-1.91-1.08-3.87-1.74-5.77s-.56-4.08-1.27-5.96-2.29-3.42-3.05-5.28-1.46-3.74-2.26-5.58-.99-3.96-1.84-5.79c-.84-1.82-1.38-3.81-2.27-5.62-.89-1.8-1.92-3.55-2.85-5.34-.93-1.78-2.14-3.42-3.12-5.18-.97-1.76-1.77-3.63-2.79-5.37-1.02-1.73-2.53-3.17-3.59-4.88s-2.63-3.09-3.73-4.77-1.7-3.69-2.84-5.35-2.4-3.22-3.58-4.85-1.89-3.61-3.11-5.21-2.68-3.02-3.94-4.59-2.54-3.12-3.83-4.66-2.18-3.44-3.51-4.95-3.65-2.12-5.02-3.6c-1.36-1.47-2.49-3.16-3.9-4.61-1.4-1.44-2.62-3.06-4.06-4.47-1.43-1.41-2.45-3.26-3.92-4.64s-3.18-2.5-4.68-3.84-3-2.69-4.53-4c-.61-.52-1.72-1.2-2.51-1.13s-1.08 1.51-1.59 2.11c-2 2.36-1.86 2.48-3.86 4.84s-2.17 2.21-4.17 4.57-2.68 1.78-4.68 4.14-2.03 2.33-4.03 4.69-1.41 2.86-3.41 5.22-1.81 2.53-3.81 4.89-2.82 1.67-4.82 4.03-1.98 3.79-3.33 3.82-3.27-1.4-4.83-2.61-3.58-1.8-5.18-2.96-2.89-2.75-4.52-3.87-3.41-2-5.08-3.06-3.18-2.37-4.87-3.39c-1.69-1.01-3.23-2.33-4.95-3.29s-3.8-1.28-5.56-2.19c-1.75-.91-3.59-1.63-5.37-2.49s-3.46-1.9-5.27-2.71-3.73-1.3-5.56-2.05-3.61-1.56-5.47-2.26c-1.85-.7-3.77-1.13-5.65-1.77s-3.41-2.27-5.3-2.85-4.03-.29-5.94-.82-3.74-1.26-5.66-1.73-3.66-1.74-5.59-2.15-4.11.41-6.05.06-3.75-1.46-5.71-1.76c-1.95-.29-3.93-.39-5.9-.63s-3.91-.62-5.88-.8-3.96.05-5.94-.07c-1.97-.12-3.91-.94-5.9-1-1.97-.06-3.96.48-5.94.48s-3.95.19-5.93.25-3.98-.37-5.96-.25-3.88 1.21-5.85 1.39-3.93.35-5.89.58-4.06-.51-6.02-.21-3.8 1.32-5.74 1.67c-1.95.35-3.9.66-5.83 1.07-1.94.41-3.86.86-5.78 1.33s-3.77 1.19-5.68 1.72-3.81 1.02-5.7 1.61c-1.07.33-2.68.71-2.89 1.81-.37 1.98.01 4.1-.42 6.06s-.39 4.06-.89 6.01c-.51 1.95-2 3.63-2.58 5.55s-1.1 3.87-1.74 5.77c-.64 1.91-.63 4.05-1.34 5.93-.71 1.89-1.3 3.84-2.08 5.69s-1.55 3.74-2.39 5.57-1.78 3.63-2.68 5.43-2.34 3.33-3.31 5.09-2.05 3.46-3.08 5.19-1.63 3.73-2.71 5.42c-1.09 1.69-3.11 2.76-4.26 4.41s-1.33 4-2.53 5.61-2.45 3.22-3.7 4.79c-1.26 1.57-2.43 3.24-3.74 4.77s-2.91 2.83-4.27 4.3-2.6 3.1-4.02 4.53-3.09 2.62-4.55 4c-1.47 1.38-2.72 3.02-4.23 4.35s-3.57 2.02-5.13 3.3c-1.56 1.27-2.96 2.75-4.56 3.96-1.6 1.22-3.34 2.25-4.99 3.41s-3.1 2.61-4.78 3.71-3.33 2.29-5.05 3.33-3.68 1.69-5.44 2.67c-1.75.98-3.7 1.61-5.49 2.53s-3.31 2.39-5.13 3.25-3.93 1.06-5.79 1.85-3.48 2.12-5.36 2.84-3.9 1.05-5.81 1.7c-1.9.66-4.01.64-5.93 1.23s-4.3 1.93-4.97 1.48.33-3.15.96-5.13 2.1-3.66 2.8-5.61c.69-1.95 1.21-3.95 1.97-5.88s.78-4.16 1.6-6.06 1.96-3.67 2.84-5.55 1.69-3.79 2.63-5.64 1.95-3.66 2.95-5.47 2.58-3.29 3.65-5.07c1.06-1.78 1.65-3.84 2.77-5.59 1.11-1.74 1.77-3.81 2.94-5.52 1.17-1.7 2.55-3.4 3.78-5.07 1.67-1.19 4.03-1.6 5.63-2.87s2.62-3.27 4.16-4.6c1.55-1.34 3.23-2.52 4.71-3.93 1.48-1.42 3.31-2.49 4.72-3.97s2.1-3.62 3.44-5.16 3.5-2.42 4.76-4.03 2.44-3.32 3.63-4.98 1.53-3.91 2.64-5.63 2.99-2.97 4.01-4.74 2.05-3.57 2.99-5.39.7-4.2 1.55-6.06 2.12-3.52 2.89-5.42 1.37-3.84 2.04-5.78c.67-1.93 1.96-3.67 2.53-5.63s.04-4.22.52-6.21 2.11-3.72 2.5-5.73.83-4.03 1.12-6.06c.29-2.02.04-4.13.24-6.17.19-2.03.5-4.07.6-6.12s-.37-4.1-.37-6.15c0-1.4-.34-3.51.31-5.09s3.48-1.06 5.36-1.85c1.88-.8 4.03-.92 5.92-1.67 1.9-.75 3.62-1.95 5.53-2.65s3.99-.94 5.92-1.59 3.72-1.74 5.67-2.34 3.83-1.45 5.79-2.01 3.9-1.24 5.88-1.75 4.02-.79 6-1.24c1.99-.45 4.19.09 6.19-.31s3.86-1.47 5.87-1.82 3.93-1.28 5.95-1.58 4.14.15 6.17-.1c2.02-.25 4.01-.79 6.05-.99 2.03-.2 4.03-.78 6.07-.93s4.1.19 6.14.09c2.03-.1 4.08.21 6.13.16s4.07-.27 6.11-.27 4.14-.38 6.2-.33 4.08 1.24 6.14 1.34 4.17-.62 6.22-.47 4.09.59 6.14.8 4.02 1.04 6.07 1.3 4.29-.9 6.33-.59 3.92 1.63 5.95 1.99 3.97 1.15 5.99 1.56 4.22 0 6.23.46 3.98 1.12 5.97 1.63c2 .51 3.97 1.11 5.96 1.68 1.98.57 3.95 1.18 5.92 1.8 1.58.49 2.67-.61 3.16-2.19.5-1.58.35-3.48-1.23-3.97-1.86-.58-4.06-.05-5.93-.59-1.88-.54-3.66-1.34-5.55-1.84-1.89-.49-3.68-1.37-5.57-1.82s-3.93-.26-5.84-.67-3.75-1.1-5.66-1.46c-1.92-.36-3.68-1.61-5.61-1.93s-3.96.08-5.9-.19-3.9-.18-5.84-.4-3.8-1.16-5.74-1.34-3.89-.43-5.83-.56-3.89-.41-5.84-.5-3.93.88-5.89.83-3.89-.42-5.84-.42-4.09.1-6.13.15c-2.05.05-4.11-.48-6.15-.39s-4.11.04-6.14.19-3.98 1.52-6.01 1.72-4.08.18-6.11.42-4.06.4-6.08.69-3.96 1.03-5.98 1.38-4.2-.24-6.2.16-3.93 1.2-5.92 1.65-4.12.35-6.1.85c-1.98.49-3.69 2.02-5.66 2.56s-4.14.38-6.09.98c-1.95.59-3.93 1.15-5.87 1.79s-3.62 2.01-5.55 2.7-3.79 1.49-5.7 2.23-4.16.6-6.05 1.38-4.28 2.2-4.89 1.66-.61-2.36-.81-4.05c-.21-1.7-.06-3.47-.34-5.16s-.91-3.12-.41-4.04 2.64-1.84 4.47-2.57 3.69-1.33 5.53-2.02 3.54-1.74 5.4-2.38 3.7-1.32 5.57-1.93c1.87-.6 3.46-2.13 5.35-2.7s3.86-.84 5.76-1.36 3.98-.31 5.9-.79c1.91-.48 3.8-1.01 5.72-1.44s3.82-.93 5.75-1.32c1.92-.39 3.77-1.23 5.71-1.58 1.93-.35 3.88-.67 5.83-.97s3.95-.14 5.91-.4 3.91-.35 5.87-.57c1.95-.22 3.91-.29 5.88-.47s3.88-.69 5.85-.82 3.9-.73 5.87-.82 3.94.1 5.92.05 3.94.88 5.91.88 4.02-.39 6.03-.35c2.02.05 4.01.35 6.01.44s4.03-.01 6.03.12c2.01.14 4.04-.06 6.04.12 2.01.18 3.96.87 5.95 1.09 2 .23 4 .42 5.99.69 2 .27 4.04.17 6.03.48 1.99.32 3.85 1.31 5.83 1.67s4.14-.2 6.1.21c1.97.41 3.85 1.25 5.81 1.7s4 .62 5.94 1.11c1.95.5 4.04.53 5.97 1.07s3.61 2.01 5.53 2.6 4.03.62 5.94 1.25 3.44 2.36 5.34 3.03 4.27.07 6.14.79 3.28 2.65 5.14 3.41 4.01.84 5.85 1.64 3.81 1.35 5.64 2.2 3.66 1.7 5.47 2.58 3.27 2.46 5.06 3.38c1.79.93 3.5 1.97 5.27 2.94s3.45 2.06 5.19 3.07 3.66 1.7 5.38 2.75 3.35 2.23 5.04 3.32 3.25 2.37 4.92 3.49c1.67 1.13 3.23 2.38 4.87 3.54s3.48 2.04 5.09 3.24 3.37 2.21 4.96 3.44c1.59 1.24 2.89 2.83 4.45 4.1s3.04 2.63 4.57 3.93c1.53 1.31 2.88 2.8 4.38 4.14s3.16 2.48 4.63 3.86c1.47 1.37 2.96 2.72 4.39 4.12s3.62 2.07 5.03 3.51 2.47 3.22 3.84 4.69 2.92 2.79 4.26 4.29 1.9 3.68 3.21 5.21 2.68 2.99 3.95 4.55 3.37 2.46 4.61 4.05 2.33 3.3 3.53 4.91 1.81 3.66 2.97 5.3 2.43 3.21 3.55 4.88 1.84 3.6 2.92 5.29c1.09 1.69 2.51 3.16 3.56 4.88s2.34 3.29 3.35 5.03 1.28 3.89 2.25 5.66c.97 1.76 2.45 3.24 3.38 5.03s1.39 3.8 2.28 5.61 1.95 3.51 2.8 5.34 2.3 3.38 3.1 5.22 1.22 3.86 1.98 5.72 1.7 3.66 2.42 5.54.63 4.05 1.31 5.95 1.5 3.72 2.13 5.63 1.38 3.77 1.97 5.7c.59 1.92 1.74 3.68 2.28 5.62s.56 4.01 1.06 5.97 1.84 3.7 2.29 5.66.06 4.11.47 6.08 1.43 3.82 1.8 5.8c.36 1.98-.45 4.15-.13 6.14.32 1.98 1.13 3.89 1.4 5.88s1.2 3.9 1.43 5.91-.58 4.1-.4 6.11 1.58 3.91 1.71 5.92c.14 2-.35 4.06-.26 6.07s.24 4.02.28 6.03c.05 2.01-.28 4.02-.28 6.04s-.61 4.04-.65 6.07c-.05 2.03.16 4.06.07 6.08-.09 2.03-.49 4.03-.63 6.04-.14 2.03.41 4.1.23 6.11s-.2 4.06-.43 6.07-.01 4.1-.29 6.1-1.43 3.9-1.76 5.89-.77 3.98-1.14 5.97c-.37 2-.81 3.97-1.22 5.95-.42 1.99.18 4.2-.28 6.17-.46 1.98-1.09 3.93-1.6 5.89s-1.27 3.87-1.82 5.82-1.44 3.81-2.04 5.74c-.6 1.94-.9 3.98-1.54 5.9-.64 1.93-2.03 3.59-2.72 5.5s-.4 4.18-1.13 6.07-1.8 3.66-2.57 5.53c-.77 1.88-2.04 3.54-2.85 5.4-.82 1.86-1.51 3.77-2.36 5.6s-1.96 3.55-2.86 5.37-1.33 3.87-2.27 5.67-2.08 3.49-3.07 5.26c-.98 1.77-1.65 3.73-2.68 5.48-1.02 1.75-1.85 3.63-2.91 5.36s-2.14 3.46-3.24 5.16-2.68 3.1-3.82 4.78-2.07 3.51-3.25 5.16-3.13 2.74-4.34 4.36-2.48 3.19-3.73 4.79-1.6 3.92-2.88 5.49c-1.29 1.57-3.4 2.44-4.72 3.98s-2.13 3.52-3.49 5.03-2.74 3-4.13 4.48c-1.39 1.47-3.08 2.67-4.5 4.11s-4.41 3.09-3.56 4.31 2.32.84 3.83 1.22 3.19 1.55 4.71 1.62 3.04-2.93 4.41-4.36c1.37-1.44 1.93-3.63 3.27-5.1 1.34-1.46 2.5-3.07 3.81-4.57 1.31-1.49 2.84-2.78 4.11-4.3s2.8-2.83 4.04-4.38 2.66-2.96 3.87-4.54c1.21-1.57 2.35-3.21 3.52-4.81s2.22-3.29 3.36-4.92 2.66-3 3.76-4.65 1.33-3.87 2.39-5.55c1.07-1.67 2.25-3.26 3.28-4.96s2.07-3.38 3.07-5.09 2.12-3.35 3.08-5.09 2.66-3.08 3.58-4.85.59-4.15 1.47-5.93 2.86-3.03 3.7-4.83 1.66-3.62 2.47-5.43c.8-1.81 1.14-3.83 1.91-5.67s1.64-3.62 2.36-5.47 1.28-3.76 1.96-5.63c.68-1.86 1.68-3.62 2.32-5.5s1.4-3.73 1.99-5.63c.6-1.89.58-3.98 1.13-5.89.55-1.9.96-3.85 1.47-5.77s1.5-3.71 1.97-5.64.52-3.95.95-5.9c.43-1.94 1.37-3.77 1.75-5.72.39-1.94.03-4.03.37-5.99.34-1.95.22-3.97.52-5.94s1.4-3.8 1.65-5.77c.26-1.96.25-3.96.47-5.94s1.16-3.88 1.33-5.86-.43-4.02-.3-6 .72-3.94.81-5.92-.03-3.98.02-5.97.63-3.97.63-5.96-1.19-3.97-1.23-5.95.63-4 .54-5.98c-.09-1.99-.24-3.98-.37-5.95-.13-1.99-1.26-3.89-1.43-5.86-.17-1.98.54-4.04.33-6.01s-1.36-3.84-1.62-5.8c-.26-1.97-.13-3.99-.44-5.95s-.58-3.93-.92-5.88c-.34-1.96.02-4.05-.37-6s-.89-3.89-1.32-5.82-1.97-3.62-2.44-5.55.35-4.19-.16-6.11-1.99-3.57-2.54-5.48-1.32-3.74-1.91-5.64c-.6-1.9-.54-4-1.18-5.88s-1.85-3.56-2.53-5.42c-.68-1.87-1.42-3.7-2.14-5.55s-.53-4.07-1.3-5.9-1.39-3.74-2.19-5.56-2.59-3.19-3.43-4.99-1.63-3.62-2.51-5.4-1.37-3.76-2.29-5.52-1.87-3.51-2.83-5.25-1.87-3.52-2.86-5.23c-1-1.72-1.72-3.61-2.76-5.3s-2.13-3.37-3.2-5.04-2.73-2.97-3.84-4.62-2.64-3-3.78-4.63-2.01-3.43-3.19-5.03-2.59-3.01-3.8-4.58-1.79-3.65-3.03-5.19-2.86-2.79-4.14-4.31-2.84-2.79-4.15-4.28-2.73-2.87-4.07-4.33-2.61-2.98-3.99-4.41-2.66-2.94-4.06-4.35-2.08-3.56-3.52-4.93-3.32-2.28-4.78-3.62-2.6-3.06-4.1-4.37c-1.49-1.31-3.56-1.96-5.08-3.24s-2.72-2.94-4.27-4.19-3.03-2.58-4.61-3.79-2.98-2.66-4.58-3.84-3.27-2.27-4.9-3.42-3.97-1.23-5.62-2.34-2.54-3.38-4.21-4.45-3.61-1.74-5.3-2.78c-1.7-1.03-3.89-1.21-5.61-2.21s-2.82-3.08-4.56-4.04-3.55-1.8-5.32-2.72c-1.76-.92-3.93-1.03-5.71-1.92-1.78-.88-3.68-1.49-5.48-2.33s-3.46-1.96-5.28-2.76-3.72-1.38-5.55-2.14-3.5-1.93-5.35-2.65-3.76-1.27-5.63-1.96-3.47-2.11-5.35-2.75-4.04-.42-5.94-1.01-3.56-1.94-5.47-2.5c-1.9-.56-3.87-.93-5.79-1.44s-3.84-1.04-5.77-1.51-3.9-.79-5.84-1.22-3.91-.71-5.86-1.1-3.78-1.42-5.74-1.77-3.94-.61-5.9-.91-4.06.35-6.04.09-3.97-.14-5.95-.35c-1.97-.21-3.83-1.63-5.81-1.8-1.97-.17-4.04.7-6.02.57s-3.96-.03-5.95-.11-3.94-.95-5.93-.99-3.97.6-5.96.6-4.01-.3-6-.25c-2.01.04-4.02-.28-6.02-.19-2.01.09-4.02.06-6.01.19s-4.03.05-6.02.22c-2 .17-4.01.32-6 .54-2 .22-3.93.98-5.91 1.24-1.99.26-4 .37-5.98.67s-3.83 1.4-5.8 1.75-4.17-.46-6.13-.07-3.74 1.73-5.69 2.17-4 .49-5.94.97-3.97.69-5.9 1.21c-1.94.52-3.6 2.01-5.52 2.57-1.92.57-3.78 1.3-5.69 1.91s-4.2.07-6.09.72-3.49 2.16-5.37 2.85-3.74 1.42-5.6 2.16-4.1.58-5.94 1.35c-1.85.78-3.25 2.59-5.08 3.4s-3.92 1.07-5.73 1.92-3.81 1.36-5.6 2.25c-1.79.9-3.54 1.9-5.31 2.83-1.77.94-3.28 2.36-5.03 3.34s-3.54 1.88-5.27 2.89-3.1 2.61-4.81 3.65c-1.71 1.05-4.14 1.45-4.86 3.04s-.31 2.96-.19 4.48-.72 4.34.41 4.5c1.13.15 3.89-2.96 5.91-4.23s4.48-3.44 5.43-2.78 1.29 2.49 1.38 4.14.37 3.31.37 4.96c0 2.01-.4 4.01-.52 5.99s-.04 4.03-.29 6-1.58 3.79-1.95 5.74c-.37 1.97-.63 3.92-1.12 5.84s-1.32 3.74-1.93 5.63-1.09 3.81-1.82 5.66c-.74 1.86-1.15 3.83-2 5.63-.85 1.81-1.06 3.96-2.02 5.71-.97 1.75-2.5 3.19-3.57 4.87s-1.78 3.64-2.96 5.25-2.59 3.08-3.86 4.62-2.98 2.7-4.34 4.16c-1.37 1.45-2.33 3.32-3.79 4.69s-3.06 2.6-4.6 3.88-3.72 1.69-5.34 2.87c-1.61 1.17-2.51 3.4-4.2 4.47-1.68 1.07-3.8 1.44-5.55 2.41-1.74.96-3.29 2.35-5.09 3.21-1.8.85-3.56 1.9-5.42 2.64-1.85.73-4.09.43-6 1.05s-3.8 1.1-5.74 1.6-3.66 1.91-5.63 2.28-3.96.65-5.95.9-4 .33-6 .45-4 .3-6.01.3c-1.69 0-4.48 0-5.1-1.18s1.29-3.45 2.27-5.2c.98-1.76 2.74-3.08 3.76-4.82s2-3.49 3.06-5.21 2.38-3.25 3.48-4.94 2.42-3.21 3.56-4.87 2.12-3.42 3.29-5.05c1.17-1.64 2.55-3.11 3.75-4.72s1.53-3.9 2.78-5.48 2.98-2.78 4.26-4.33 2.1-3.5 3.42-5.03c1.32-1.52 3.19-2.56 4.53-4.06s2.26-3.4 3.64-4.86 2.91-2.8 4.33-4.23 2.76-2.95 4.21-4.35 2.69-3.04 4.17-4.4c1.48-1.37 3.53-2.11 5.04-3.45 1.51-1.33 3.1-2.56 4.64-3.86s4.46-2.5 4.97-3.74.15-3.92.33-5.77 1.18-4.82.34-5.27-3.07 2.35-4.64 3.59c-1.56 1.24-2.87 2.06-4.4 3.34-1.54 1.28-3.63 2.63-5.14 3.94s-2.41 3.3-3.89 4.64-2.87 2.76-4.32 4.13c-1.45 1.38-3.11 2.52-4.53 3.92s-2.79 2.85-4.18 4.29-3.48 2.21-4.84 3.67-2.69 2.98-4.01 4.47c-1.32 1.5-1.66 3.85-2.95 5.37s-2.6 3.02-3.86 4.57-3.05 2.68-4.27 4.25-2.06 3.45-3.25 5.05-3.09 2.7-4.24 4.33-1.67 3.71-2.78 5.36c-1.12 1.65-1.98 3.47-3.06 5.15s-2.34 3.24-3.38 4.94-2.49 3.16-3.5 4.89-1.22 3.9-2.19 5.64-2.11 3.39-3.04 5.16-2.18 3.36-3.07 5.15-1.55 3.68-2.4 5.49-2.18 3.39-3 5.22-1.52 3.7-2.29 5.54-.86 3.96-1.59 5.82-2.21 3.43-2.9 5.31-1.03 3.87-1.68 5.76-1.18 3.81-1.78 5.72c-.6 1.9-.84 3.91-1.4 5.83-.56 1.91-.99 3.86-1.51 5.79s-2.39 3.51-2.87 5.45.25 4.16-.19 6.11-.94 3.87-1.33 5.83-1.85 3.72-2.2 5.69c-.35 1.96-.33 4-.63 5.98-.3 1.97-.79 3.93-1.05 5.91s-.43 3.98-.64 5.97.11 4.03-.06 6.02-.85 3.94-.98 5.94.34 4.02.26 6.02c-.09 1.99-.24 3.99-.28 5.99s.39 3.99.39 5.99zm288.96 264.3c-.86.95-3.49.27-5.32.35s-3.63.74-5.47.78c-1.83.04-3.66-.02-5.5-.02-2.06 0-4.11-.35-6.16-.4-2.06-.05-4.14.55-6.19.46-2.06-.09-4.1-.44-6.15-.58s-4.06-.85-6.1-1.04-4.2.56-6.24.32-4.12-.3-6.16-.59-4.02-.99-6.05-1.32-3.96-1.23-5.98-1.61-4.15-.22-6.16-.64-3.95-1.21-5.95-1.68-3.96-1.12-5.95-1.64-3.99-.98-5.97-1.54-3.99-1.02-5.95-1.63c-1.67-.55-1.52-1.02-3.19-1.58-1.93-.63-3.73-1.61-5.63-2.28s-4.24-.21-6.13-.93c-1.9-.72-3.42-2.38-5.3-3.14s-4.06-.8-5.92-1.6-3.59-1.92-5.43-2.76c-1.84-.85-3.38-2.33-5.19-3.22-1.82-.89-3.73-1.58-5.53-2.51s-3.71-1.65-5.48-2.62-3.93-1.29-5.68-2.31c-1.76-1.01-2.91-3.04-4.64-4.1-1.73-1.05-3.9-1.4-5.61-2.49s-3.36-2.28-5.04-3.41-2.9-2.93-4.55-4.1c-1.66-1.17-3.26-2.38-4.89-3.59s-3.67-1.86-5.27-3.1c-1.6-1.25-3.35-2.31-4.92-3.59s-2.7-3.09-4.24-4.41-3.26-2.42-4.77-3.77-2.78-2.96-4.26-4.34c-1.48-1.39-2.9-2.83-4.34-4.24-1.45-1.42-2.72-3-4.13-4.45s-3.55-2.22-4.93-3.7-2.33-3.36-3.68-4.88c-1.35-1.51-2.42-3.26-3.73-4.8s-3.52-2.35-4.79-3.93-2.27-3.39-3.51-4.99-2-3.57-3.21-5.2-2.66-3.08-3.83-4.73c-1.17-1.66-2.79-3.01-3.92-4.7-1.13-1.68-1.33-3.98-2.42-5.69s-2.09-3.46-3.14-5.2c-1.05-1.73-2.45-3.25-3.46-5.01s-1.56-3.77-2.53-5.55-2.19-3.42-3.11-5.22c-.93-1.8-2.15-3.46-3.04-5.28s-1.36-2.57-.87-4.58 1.99-1.8 5.29-3.27 4.41-3.56 6.53-3.21 2.05 2.95 2.92 4.73.92 3.98 1.83 5.74 1.74 3.58 2.69 5.32 1.99 3.45 2.99 5.16c1 1.72 2.58 3.09 3.62 4.78s1.5 3.75 2.58 5.41 2.7 2.98 3.82 4.62 2.51 3.08 3.66 4.69 1.32 3.96 2.51 5.55 3.32 2.46 4.55 4.02 2.24 3.29 3.51 4.81 2.16 3.38 3.46 4.87c1.3 1.5 2.96 2.68 4.3 4.15s2.22 3.37 3.59 4.8 3.44 2.19 4.85 3.59 2.11 3.53 3.55 4.89c1.44 1.37 3.35 2.24 4.82 3.57s3.36 2.18 4.86 3.48 2.84 2.77 4.37 4.04 2.42 3.34 3.98 4.56 3.36 2.17 4.95 3.35c1.59 1.19 3.36 2.14 4.98 3.29s3.11 2.49 4.75 3.6 3.22 2.34 4.89 3.41 3.29 2.25 4.99 3.28 3.52 1.87 5.24 2.86 3.44 2 5.19 2.95 3.92 1.08 5.68 1.99 3.27 2.32 5.06 3.19 3.43 2.05 5.24 2.87 4.03.69 5.86 1.47c1.82.78 3.3 2.4 5.14 3.14s3.83 1.12 5.69 1.81 3.66 1.57 5.53 2.22 3.99.59 5.88 1.19 3.66 1.59 5.56 2.15 3.77 1.25 5.69 1.76 3.98.45 5.91.92 3.78 1.25 5.72 1.68c1.94.42 3.81 1.2 5.76 1.57 1.95.38 4.05-.13 6.01.2 1.95.33 3.73 1.82 5.7 2.1s3.95.52 5.92.75c1.97.24 3.94-.07 5.92.11s3.99.83 5.97.97 3.99-.17 5.98-.08 3.98-.64 5.97-.6c1.98.05 3.95.36 5.94.36 2.09 0 4.17.16 6.27.11 2.09-.05 4.2.29 6.29.19s4.99-.82 5.78.26.24 2.46-.04 4.11-1.13 3.2-1.36 4.86c-.23 1.65.23 3.45-.64 4.4zm-245.97-381.8c2.86 0 7.64-.35 8.17.53s-1.44 3.12-2.33 4.89-1.83 3.51-2.68 5.3-1.97 3.46-2.78 5.26c-.8 1.81-.97 3.89-1.73 5.72s-1.71 3.57-2.43 5.42-1.92 3.51-2.59 5.37-.41 4.05-1.04 5.93-1.04 3.81-1.62 5.7-1.52 3.66-2.06 5.57-1.59 3.67-2.08 5.59-.4 3.97-.85 5.9-1.2 3.78-1.6 5.72c-.33 1.62.67 3.36 2.3 3.7.21.04.44-.02.64-.02 1.39 0 2.57-1.06 2.86-2.48.41-2.01 1.32-3.9 1.78-5.9s1.28-3.89 1.8-5.87-.14-4.28.43-6.25 2.1-3.65 2.71-5.6.49-4.15 1.15-6.09 1.65-3.77 2.36-5.69 2.08-3.58 2.84-5.48 1.32-3.87 2.13-5.76c.81-1.88 1.4-3.85 2.26-5.71s1.04-4.05 1.94-5.89 2.86-3.14 3.81-4.96 1.87-4.69 2.87-5.3 3.43-1.26 5.37-1.69c1.95-.43 4.08-.15 5.99-.68s3.86-1.11 5.73-1.76 3.5-2.04 5.33-2.8 3.53-1.82 5.32-2.68 3.86-1.2 5.59-2.18c1.74-.98 3.29-2.26 4.96-3.34s3.5-1.94 5.11-3.11 3.23-2.35 4.77-3.62 3.2-2.43 4.65-3.78c1.46-1.35 2.17-3.47 3.55-4.9s3.12-2.52 4.42-4.03c1.29-1.51 2.81-2.86 4.01-4.45 1.2-1.58 1.39-3.88 2.5-5.53s2.44-3.12 3.45-4.84 2.47-3.17 3.37-4.94 1.45-3.71 2.25-5.53 1-3.85 1.7-5.72c.69-1.86 2.35-3.39 2.93-5.29s1.18-3.82 1.65-5.76.45-3.97.8-5.94c.35-1.95 1.14-3.86 1.37-5.84.23-1.96.1-3.99.22-5.99.12-1.97-.17-3.97-.17-5.97 0-2.2.68-4.43.54-6.62s-.68-5.84-.15-6.95 1.87-2.02 3.55-2.91 3.39-1.71 5.08-2.57c1.69-.85 3.8-.85 5.51-1.67s3.21-1.67 4.44-.92.91 2.15 1.19 4.09 1.17 3.81 1.35 5.76c.19 1.95-.37 3.95-.28 5.92s.77 3.9.77 5.86.27 3.95.18 5.9-1.49 3.82-1.68 5.76.72 4.03.44 5.96-.91 3.84-1.28 5.75-1.29 3.72-1.76 5.62-.54 3.91-1.09 5.78c-.56 1.88-1.77 3.53-2.42 5.38s-.45 4.01-1.18 5.83-2.45 3.2-3.27 4.98-1.07 3.82-1.97 5.56-1.31 3.76-2.3 5.46c-.98 1.69-2.25 3.24-3.31 4.89-1.06 1.64-3.04 2.66-4.18 4.25s-2.03 3.34-3.24 4.88-2.25 3.21-3.53 4.68-2.79 2.74-4.14 4.16c-1.35 1.41-2.84 2.67-4.26 4.02s-2.94 2.54-4.43 3.82c-1.48 1.28-2.84 2.66-4.39 3.87-1.54 1.2-4.59 4.52-4.78 4.78-1.19 1.61-2.83 2.89-3.96 4.52-1.14 1.64-2.56 3.11-3.65 4.78-1.09 1.68-1.29 3.91-2.32 5.62s-2.85 2.96-3.83 4.69-1.63 3.67-2.56 5.43c-.93 1.77-2.03 3.45-2.91 5.25-.88 1.79-1.07 3.91-1.89 5.73s-2 3.48-2.76 5.32-1.65 3.64-2.36 5.51-.85 3.94-1.5 5.82-1.6 3.67-2.2 5.57c-.59 1.91-1.53 3.72-2.06 5.64s-.19 4.07-.67 6.01c-.47 1.94-2.09 3.62-2.51 5.57s-.78 3.93-1.14 5.9c-.36 1.96.48 4.12.18 6.1-.3 1.97-1.68 3.8-1.92 5.78s-.01 4.02-.19 6.01.48 4.03.36 6.02-.5 3.95-.56 5.95c-.06 1.99-.28 3.98-.28 5.98s-.4 4.12-.34 6.17c.06 2.06.81 4.08.94 6.12s.28 4.09.47 6.13-.19 4.15.06 6.19.17 4.14.48 6.16c.31 2.03.81 3.94 1.19 5.96s.44 4.22.88 6.23 1.95 3.77 2.46 5.76c.5 1.99.35 4.16.92 6.13s1.23 3.93 1.86 5.89c.63 1.95 1.54 3.82 2.23 5.76.69 1.93 1.86 3.68 2.61 5.6.75 1.91.89 4.07 1.7 5.96.81 1.88 1.41 3.88 2.28 5.74s2.89 3.16 3.82 4.99c.89 1.77 1.44 3.71 2.39 5.45s1.28 3.84 2.28 5.55 2.38 3.21 3.43 4.89 1.83 3.55 2.94 5.2 2.55 3.07 3.7 4.69 2.09 3.4 3.29 4.98 3.05 2.65 4.3 4.19c1.24 1.55 1.77 3.68 3.06 5.19s3.08 2.58 4.42 4.05 2.64 2.96 4.02 4.39 2.75 2.86 4.17 4.25 3.3 2.27 4.76 3.62 2.34 3.33 3.84 4.63 3.52 1.97 5.06 3.22 2.92 2.68 4.5 3.89c.54.42.95.84 1.59.84.9 0 2.25.03 2.84-.74 1.01-1.31-.05-3.08-1.37-4.09-1.62-1.24-2.41-3.53-3.99-4.82s-3.22-2.48-4.76-3.82-3.04-2.7-4.53-4.08c-1.5-1.39-3.43-2.31-4.87-3.75-1.45-1.44-2.72-3.05-4.12-4.53-1.41-1.48-2.98-2.8-4.34-4.32s-2.67-3.09-3.98-4.65c-1.31-1.57-3.3-3.75-3.26-5.06s1.59-1.79 3.91-3.55 2.82-1.1 5.14-2.86 2.24-1.87 4.57-3.62c2.32-1.76 1.93-2.27 4.26-4.03s2.29-1.81 4.61-3.57c2.33-1.76 2.66-1.31 4.99-3.07s3.45-.95 4.71-3.58c.65-1.35-.6-2.4-1.51-3.6-1.25-1.65-2.52-2.48-3.7-4.17-1.18-1.7-2.38-3.36-3.49-5.1s-3.1-2.96-4.14-4.74-1.36-3.99-2.32-5.81c-.96-1.83-1.4-3.9-2.29-5.77s-2.06-3.58-2.87-5.48-1.91-3.68-2.64-5.61-1.27-3.93-1.91-5.9-1.72-3.8-2.28-5.79-.84-4.06-1.32-6.07-.11-4.19-.51-6.22-.85-4.02-1.16-6.06-1.52-3.96-1.75-6.01.6-4.19.45-6.26-1.14-4.82-.58-5.66 2.73-1.46 5.62-2.97 4.29-3.43 5.48-3.32c1.2.11 1.51 1.49 3.03 3.2s1.72 5.13 3.31 4.06 5.37-5.52 5.49-7.39c.13-1.87-3.28-1.9-6.12-3.67s-2.44-3.32-5.78-3.29c-3.41.03-2.68 2.06-5.56 3.88s-5.26 4.14-5.9 3.62-.64-6.16-.25-7.62 3.89-2.58 4.57-3.1 2.95-2.07 4.2-2.33 2.01 2.01 5.1 3.32 5.41 3.49 6.75 2.72 3.52-6.08 3.63-7.29-2.93-1.17-5.78-1.85c-2.85-.69-2.75-1.08-5.6-1.77s-2.65-1.8-5.54-1.27c-2.61.48-2.08 1.32-4.2 2.92s-1.82 2.01-3.94 3.61-4.7 2.15-4.82 3.21-.36 2.9-.42 4.65-.18 3.51-.18 5.26c0 2.06.73 4.11.81 6.16s.55 4.08.7 6.13c.16 2.06-.3 4.16-.06 6.2.24 2.05.58 4.83.89 6.86.32 2.04 1.28 3.19 1.68 5.21s.9 3.99 1.38 5.99.89 4 1.44 5.98c.56 1.98.79 4.04 1.43 6s.85 4.06 1.56 5.99 1.9 3.68 2.69 5.58 1.65 3.76 2.51 5.63 1.86 3.65 2.8 5.49.9 4.19 1.92 5.99 2.09 3.57 3.17 5.33 2.45 3.34 3.6 5.06c1.14 1.71 4.06 3.95 3.9 4.85s-2.55 1.45-4.87 3.2-1.91 2.29-4.22 4.04c-2.32 1.75-2.19 1.91-4.51 3.66s-3.08.74-5.4 2.49-2.22 1.88-4.54 3.63-3.21 2.69-4.41 2.71c-1.21.02-2.58-1.79-3.72-3.46-1.15-1.67-1.56-3.82-2.65-5.52s-2.93-2.94-3.97-4.68-1.98-3.54-2.96-5.31-1.32-3.88-2.24-5.68-1.47-3.76-2.34-5.59c-.86-1.83-1.8-3.6-2.61-5.46-.81-1.85-1.84-3.6-2.59-5.48s-1.24-3.84-1.92-5.75c-.69-1.9-1.86-3.63-2.49-5.55-.62-1.92-1.78-3.69-2.34-5.64-.56-1.94-.5-4.06-1-6.03s-1.1-3.9-1.54-5.87-.24-4.07-.62-6.06c-.38-1.98-.99-3.92-1.3-5.92-.31-1.99-.6-3.99-.85-6-.25-2 .1-4.06-.08-6.08-.19-2.01-1.65-3.92-1.77-5.94s.12-4.06.06-6.09c-.06-2.02.18-4.05.18-6.07s.66-3.84.72-5.76-.18-3.85-.07-5.77.29-3.83.46-5.75.7-3.79.93-5.7c.23-1.92-.75-3.99-.47-5.89.29-1.91.42-3.86.76-5.75s.94-3.76 1.33-5.64 1.26-3.39 2.23-4.34 3.47-1.74 5.37-2.28 3.57-1.86 5.45-2.46 3.66-1.48 5.52-2.14c1.86-.67 4.09-.36 5.92-1.09 1.84-.73 3.55-1.8 5.35-2.59s3.62-1.6 5.4-2.45 3.22-2.39 4.97-3.29c1.76-.91 3.75-1.35 5.47-2.31s3.31-2.17 5-3.19 3.53-1.81 5.18-2.88 3.51-1.89 5.12-3.02c1.62-1.13 2.81-2.87 4.39-4.05s3.02-2.54 4.56-3.78 3.2-2.31 4.7-3.6 2.76-2.82 4.22-4.16c1.45-1.34 2.94-2.62 4.35-4s2.61-2.95 3.97-4.38 3.48-2.16 4.8-3.63 1.93-3.55 3.2-5.06c1.26-1.52 2.69-2.89 3.9-4.45s3.08-2.63 4.24-4.23 1.29-3.92 2.39-5.56 2.85-2.85 3.9-4.52 1.93-3.45 2.93-5.16 2.12-3.34 3.06-5.08 1.51-3.66 2.39-5.44 2.4-3.24 3.22-5.04 1.09-3.84 1.85-5.67 1.33-3.72 2.03-5.57 1.85-3.53 2.49-5.41c.63-1.87.33-4.03.9-5.93s1.14-3.76 1.64-5.67 1.97-3.58 2.41-5.5.44-4.35 1.33-5.58c.88-1.24 3.4-1.66 5.4-2.18 2-.53 4.01-1.03 6.02-1.49s4-1.12 6.02-1.52 4.08-.7 6.12-1.03 4.24.48 6.29.22 4-1.28 6.06-1.48 4.08-.9 6.14-1.03 4.17.76 6.24.7c2.06-.07 4.12-.18 6.18-.18s4.06-.7 6.08-.63 4.07 0 6.08.12 4.06.25 6.07.44 4.04.49 6.04.74 3.94 1.1 5.93 1.42 3.97.77 5.95 1.15c1.99.38 4.08.27 6.05.71 1.98.45 3.85 1.33 5.8 1.84 1.96.51 4.06.52 6 1.08s3.89 1.17 5.81 1.8 3.91 1.14 5.81 1.83 4.26 1.82 4.77 3.72.14 2.06-.98 4.72c-1.11 2.67-1.4 2.55-2.51 5.22s-.77 2.81-1.88 5.48-1.85 2.36-2.96 5.03-.84 2.78-1.96 5.45c-1.11 2.67-1.27 4.17-2.35 4.47s-3.87-.26-5.72-.91-3.75-1.14-5.63-1.73-3.64-1.53-5.55-2.04c-1.9-.51-3.73-1.34-5.65-1.77s-3.98-.2-5.91-.56c-1.93-.37-3.76-1.36-5.71-1.66s-3.98.06-5.94-.15c-1.95-.22-3.87-.79-5.84-.94-1.96-.14-3.9-.92-5.88-1-1.96-.07-3.96 1.17-5.93 1.17-2.17 0-4.33-.27-6.5-.18s-4.4-.64-6.56-.46c-2.17.18-4.33.62-6.48.88s-4.19 1.4-6.33 1.75c-1.63.27-2.71 1.4-2.44 3.03s1.69 2.54 3.32 2.28c2.05-.34 4.14-.6 6.21-.86s4.21.17 6.29 0 4.12-.88 6.21-.97 4.18-.73 6.27-.73 4.01.18 5.99.25c1.99.08 3.92 1.28 5.9 1.43 1.99.15 4.05-.55 6.03-.32s3.92.77 5.89 1.08 3.83 1.18 5.78 1.57 4.1-.09 6.03.38 3.58 2.04 5.49 2.58 3.82 1.04 5.71 1.66 4.09.36 5.95 1.05 3.36 2.31 5.2 3.08c1.83.76 3.61 1.59 5.4 2.42s4.13.57 5.89 1.47c1.77.9 3.28 2.3 5 3.27s3.5 1.88 5.18 2.91 2.98 2.69 4.62 3.79 3.91 1.33 5.51 2.49c1.6 1.17 2.45 3.33 4 4.56 1.56 1.23 3 2.55 4.51 3.83s3.3 2.22 4.75 3.56c1.45 1.35 2.77 2.83 4.16 4.22 1.4 1.4 3.14 2.47 4.48 3.92s2.8 2.83 4.08 4.33 2.45 3.13 3.67 4.68 1.86 3.56 3.02 5.16 2.7 2.93 3.8 4.58 1.77 3.56 2.8 5.25 2.44 3.15 3.41 4.88c.96 1.73 2.14 3.35 3.04 5.12s1.91 3.49 2.74 5.29 1.44 3.71 2.19 5.54.54 4.03 1.22 5.89 1.99 3.49 2.59 5.37 1.76 3.61 2.3 5.52.32 4.01.78 5.94c.46 1.92 1.19 3.79 1.57 5.74s1.13 3.83 1.44 5.79.11 3.99.34 5.96c.23 1.96.04 3.97.19 5.94s.46 3.93.54 5.91c.08 1.97.52 3.95.52 5.93s-1.15 3.98-1.23 5.97c-.08 2 .66 4.04.5 6.03-.16 2-.61 3.96-.85 5.95s-1.11 3.87-1.43 5.84c-.32 1.98.77 4.21.37 6.17-.39 1.96-1.8 3.71-2.27 5.66s-1.37 3.76-1.92 5.68-.29 4.09-.92 5.99c-.62 1.9-1.44 3.74-2.14 5.62-.7 1.87-1.49 3.72-2.26 5.56s-1.52 4.64-2.43 5.46c-.91.83-3.23.7-6.47.72-3.24.03-4.23-.62-5.5-.49s-2.26-2.12-2.83-4.33 1.11-4.25-.48-4.18-6.67 2.47-7.65 3.17 2.03 3.5 3.75 6.36 1.79 4.11 3.28 4.82 3.3.59 6.69.28 5.41-1.03 5.86-.5-1.94 5.14-2.31 5.82-2 .13-4.31.51-2.84 1.3-4.94.27c-3.02-1.48-1.9-2.58-4.05-5.15s-2.93-4.68-4.75-4.32-6.4 3.45-7.07 4.71 2.24 1.74 4.46 3.65 1.83 2.37 4.05 4.28 2.96 2.77 4.2 2.78 3.03-.33 5.65-.78 2.66-.22 5.28-.67 4.51-.32 5.21-.78 1.52-3.56 2.48-5.32 2.74-3.09 3.63-4.89 1.39-3.79 2.21-5.62 2.14-3.46 2.89-5.32.49-4.11 1.17-5.99 2.03-3.54 2.64-5.46c.6-1.91 1.23-3.83 1.76-5.77s.29-4.06.75-6.02c.46-1.95.77-3.92 1.15-5.89s1.67-3.78 1.98-5.76c.3-1.98.64-3.98.87-5.97s.31-4.01.46-6.02c.15-2 .66-4 .74-6.01s-.44-4.04-.44-6.05.42-4.08.34-6.09-.08-4.08-.24-6.09c-.15-2.02-.76-4.02-.99-6.02-.23-2.02-.56-4.02-.86-6.02-.31-2-1.63-3.82-2.01-5.8-.39-1.99-.53-4.01-.99-5.97-.46-1.97-.25-4.11-.79-6.06s-1.19-3.88-1.8-5.81-1.35-3.83-2.03-5.73c-.69-1.91-1.85-3.62-2.61-5.49-.76-1.88-1.54-3.73-2.37-5.57s-1.29-3.86-2.19-5.67-1.71-3.68-2.68-5.46-1.88-3.6-2.92-5.34-2.43-3.26-3.54-4.96c-1.11-1.69-2.65-3.08-3.82-4.73s-2.16-3.41-3.4-5.02c-1.23-1.6-1.76-3.78-3.06-5.34-1.29-1.55-2.95-2.83-4.3-4.33s-2.57-3.16-3.98-4.61-3.01-2.73-4.48-4.12c-1.46-1.39-3.21-2.5-4.73-3.83s-2.76-3.02-4.33-4.29-3.21-2.49-4.83-3.7-3.5-2.07-5.17-3.22c-1.66-1.15-2.99-2.82-4.7-3.91s-3.94-1.32-5.69-2.34c-1.74-1.02-3.3-2.36-5.09-3.32-1.78-.95-3.73-1.58-5.55-2.46-1.81-.88-3.81-1.55-4.61-3.12s.49-2.21 1.6-4.88.55-2.9 1.66-5.57 1.4-2.1 2.51-4.77 1.26-2.94 2.37-5.61 1.62-2.57 2.73-5.25.76-4.17 2.09-4.56c1.32-.4 3.41.19 5.21 1.04s3.61 1.72 5.39 2.63 3.19 2.5 4.94 3.46 3.41 2.04 5.13 3.06c1.71 1.02 3.34 2.16 5.02 3.23s3.55 1.84 5.2 2.96 3.2 2.38 4.81 3.55 3.07 2.53 4.65 3.75 3.03 2.57 4.57 3.84 3.28 2.28 4.78 3.59 3.15 2.46 4.6 3.82 2.58 3.05 4 4.46 2.73 2.89 4.1 4.34 2.53 3.06 3.85 4.55 2.82 2.8 4.1 4.34 2.56 3.03 3.79 4.6 3.29 2.51 4.47 4.12 1.96 3.51 3.09 5.16 2.44 3.17 3.52 4.85 1.27 3.9 2.29 5.61 2.12 3.36 3.09 5.1 2.87 2.98 3.79 4.76c.91 1.77 1.66 3.64 2.52 5.44s1.05 3.91 1.85 5.73 1.71 3.6 2.45 5.45 1.02 3.86 1.71 5.74c.68 1.87 1.74 3.6 2.37 5.5.62 1.89 1.51 3.7 2.08 5.62s.31 4.04.81 5.97c.51 1.92 1.57 3.7 2.02 5.65.44 1.94.37 3.98.76 5.94.28 1.43 2.05 2.61 3.45 2.61 1.72.32 3.28-2.25 2.96-3.88-.38-1.94-1-3.82-1.43-5.73-.44-1.93-.1-4.04-.59-5.95s-1.21-3.78-1.76-5.66-1.28-3.75-1.89-5.62-1.83-3.54-2.49-5.39c-.67-1.86-.87-3.88-1.59-5.71-.72-1.84-2.29-3.31-3.06-5.12-.78-1.81-.81-3.95-1.64-5.73s-2.27-3.28-3.16-5.03-.76-4.05-1.69-5.78c-.94-1.74-2.36-3.21-3.35-4.91s-2.59-3.04-3.62-4.71-1.25-3.88-2.33-5.52-3.22-2.56-4.36-4.17-1.81-3.54-2.99-5.12c-1.19-1.58-2.45-3.08-3.68-4.62s-2.21-3.28-3.49-4.78-2.14-3.38-3.46-4.84-2.87-2.73-4.24-4.15-2.56-3.04-3.96-4.42-3.33-2.23-4.77-3.57-2.44-3.18-3.45-4.63.42-1.97 2.3-4.18 2.54-1.65 4.42-3.87c1.88-2.21 1.96-2.15 3.84-4.36s1.92-2.18 3.8-4.4 1.07-2.9 2.95-5.11 1.99-2.12 3.88-4.34c1.88-2.22 2.06-2.06 3.95-4.28 1.88-2.22 2.61-3.1 4.08-3.27s3.14 1.43 4.61 2.77 2.4 3.27 3.83 4.64c1.44 1.38 3.6 2.02 5 3.43s2.55 3.09 3.92 4.53c1.37 1.45 2.35 3.26 3.68 4.73s2.76 2.87 4.06 4.38 2.38 3.19 3.64 4.74c1.26 1.54 2.93 2.76 4.15 4.33s2.26 3.29 3.44 4.89 2.66 3 3.8 4.63 2.48 3.14 3.59 4.8 2.2 3.34 3.27 5.02 1.64 3.68 2.66 5.38c1.02 1.71 2.27 3.29 3.25 5.03s1.11 3.93 2.05 5.69c.93 1.76 1.8 3.54 2.69 5.32s2.83 3.05 3.68 4.85.72 4.05 1.52 5.87 2.23 3.37 2.99 5.21 1.5 3.7 2.21 5.55c.71 1.86 1.04 3.86 1.71 5.74.67 1.87 2.06 3.51 2.68 5.4s.4 4.05.98 5.96c.57 1.9.77 3.91 1.29 5.83.53 1.92.98 3.84 1.46 5.78s2 3.62 2.44 5.56 1.05 3.86 1.44 5.82.43 3.98.77 5.94.31 3.99.6 5.96.31 3.97.55 5.95.52 3.94.72 5.92.5 3.95.64 5.94-.21 3.99-.11 5.98 1.2 3.94 1.25 5.93-.09 3.99-.09 5.99-.06 3.98-.11 5.97-.3 3.97-.4 5.95c-.1 1.99-1.08 3.91-1.22 5.89s1.06 4.08.87 6.05c-.19 1.98-1.64 3.82-1.88 5.79s-.5 3.93-.79 5.89-.12 4-.46 5.95-.84 3.88-1.22 5.83-.64 3.92-1.07 5.86-1.24 3.78-1.72 5.71-1.11 3.8-1.64 5.72-.47 3.99-1.04 5.89-1.04 3.84-1.65 5.73c-.62 1.89-1.74 3.6-2.41 5.47s-.97 3.87-1.68 5.73-1.95 3.5-2.7 5.33-.86 3.95-1.66 5.77-1.22 3.82-2.06 5.62-2.46 3.23-3.35 5.01c-.89 1.77-1.59 3.65-2.52 5.41s-2.55 3.13-3.52 4.86-1.31 3.82-2.33 5.53-2.47 3.14-3.53 4.82-1.3 2.81-2.88 3.42-4.02.02-6.1-.42-4.39.3-6.49-.06c-2.09-.36-4.09-1.39-6.2-1.66s-4.24-.44-6.36-.62-4.29.67-6.41.58-4.22-1.04-6.34-1.04c-1.98 0-3.93.96-5.89 1.03s-3.95-.21-5.92-.06-3.93.3-5.89.53-4.03-.23-5.97.08c-1.95.31-3.9.75-5.83 1.13s-3.44 1.36-5.36 1.82-4.44.7-6.33 1.24-3.44 1.52-5.31 2.13-3.66 1.43-5.52 2.12c-1.85.69-3.94.74-5.77 1.5-1.82.76-3.39 2.08-5.19 2.91-1.79.83-3.53 1.72-5.29 2.63s-3.97.95-5.7 1.92c-1.72.97-3.53 1.83-5.21 2.87s-2.78 2.99-4.42 4.1c-1.64 1.1-3.29 2.17-4.88 3.33s-3.44 1.99-4.99 3.22-3.07 2.5-4.57 3.79-3.03 2.54-4.48 3.89c-1.51 1.4-3.24 2.6-4.69 4.06s-2.86 3-4.25 4.51-2.24 3.52-3.57 5.09c-1.33 1.58-2.23 3.48-3.48 5.1s-2.76 3.06-3.95 4.73c-1.19 1.68-2.11 3.53-3.23 5.25-1.12 1.73-2.91 3.03-3.96 4.8s-1.67 3.79-2.65 5.6-1.59 3.79-2.49 5.64-1.63 3.75-2.45 5.64c-.82 1.88-1.7 3.72-2.45 5.64s-1.57 3.78-2.24 5.73-2.31 3.59-2.89 5.56-1.28 4.92-2.13 5.59-2.94.66-5.19.78c-2.24.12-4.89.75-7.14.81s-4.51-.43-6.75-.43c-.73 0-.78-.3-1.13-.72s.43-2.78.91-4.69.9-3.83 1.44-5.72c.54-1.9-.08-4.16.52-6.03s2.59-3.29 3.26-5.14.95-3.85 1.68-5.67c.74-1.83.62-4.03 1.41-5.84.8-1.81 2.79-3.06 3.65-4.84s1.64-3.57 2.56-5.32 1.1-3.9 2.08-5.61 1.77-3.56 2.81-5.24 2.4-3.17 3.5-4.81 2.06-3.39 3.21-5 2.71-2.91 3.92-4.47 2.33-3.2 3.59-4.72c1.26-1.51 3.17-2.47 4.48-3.94s2-3.52 3.37-4.94 3.32-2.26 4.73-3.64 2.72-2.84 4.18-4.17 2.95-2.6 4.46-3.88 2.93-2.63 4.48-3.86c1.54-1.22 3.03-2.52 4.62-3.7 1.58-1.17 3.57-1.76 5.2-2.88 1.36-.94 1.85-3.81.91-5.18-.94-1.36-3.23-1.11-4.6-.17-1.63 1.12-3.01 2.55-4.59 3.72s-3.9 1.39-5.44 2.61c-1.55 1.22-2.43 3.26-3.94 4.53s-2.84 2.71-4.31 4.03-3.44 2.08-4.86 3.44c-1.42 1.37-2.34 3.23-3.71 4.64s-2.95 2.62-4.27 4.08c-1.33 1.46-2.92 2.68-4.19 4.18-1.28 1.5-2.64 2.94-3.87 4.48s-2.62 2.98-3.79 4.56-2.37 3.17-3.49 4.79-1.78 3.56-2.84 5.22-2.26 3.24-3.26 4.94-1.31 3.79-2.26 5.51-2.94 2.91-3.83 4.66c-.89 1.76-.91 3.95-1.74 5.73s-2.01 3.41-2.78 5.23-1.8 3.53-2.51 5.37-.48 4.02-1.13 5.88-1.11 3.76-1.7 5.64-2.33 3.42-2.85 5.32-.16 4.03-.63 5.95c-.46 1.91-.72 4.44-1.49 4.81s-3.97.03-5.95-.08-4.03.85-6.01.69-3.89-.99-5.86-1.2-3.88-.86-5.84-1.12c-1.97-.26-3.93-.45-5.88-.76s-4-.11-5.95-.46-3.88-.83-5.82-1.23-4.03-.19-5.95-.64-3.88-.88-5.8-1.37-3.78-1.25-5.69-1.79-3.66-1.6-5.56-2.19c-1.89-.59-3.89-.85-5.77-1.49s-3.58-1.76-5.44-2.44-3.9-.9-5.74-1.63c-1.85-.73-3.78-1.26-5.6-2.03-1.83-.77-3.52-1.87-5.32-2.69-1.81-.81-3.73-1.4-5.51-2.26s-3.1-2.67-4.87-3.57-3.59-1.66-5.33-2.61-3.32-2.15-5.04-3.14-3.52-1.81-5.21-2.83c-1.7-1.03-3.59-1.72-5.26-2.79s-3.77-1.49-5.42-2.6-2.95-2.72-4.57-3.87-3.53-1.9-5.12-3.09-3.04-2.57-4.6-3.8-2.79-2.86-4.32-4.13-3.46-2.06-4.96-3.36-2.9-2.72-4.36-4.06-2.22-3.42-3.66-4.79-3.78-1.81-5.18-3.21-2.24-3.36-3.6-4.8-3.11-2.53-4.44-4-2.85-2.79-4.14-4.3c-1.29-1.5-1.76-3.7-3.02-5.23-1.25-1.53-2.44-3.11-3.66-4.68-1.22-1.56-3.21-2.54-4.39-4.13s-2.32-3.23-3.46-4.85-2.18-3.33-3.28-4.98-2.29-3.26-3.35-4.93-2.25-3.29-3.27-4.99-2.01-3.43-2.99-5.16-1.17-3.88-2.11-5.64c-.93-1.75-1.9-3.47-2.8-5.24-.89-1.77-1.5-3.67-2.35-5.47-.85-1.79-1.43-3.69-2.24-5.5-.67-1.51-3.2-2.34-4.71-1.66-2.66 1.18-2.75.97-5.41 2.15s-2.2 2.22-4.86 3.4-4.63 2.1-5.52 1.8-2.01-3.36-2.76-5.22c-.75-1.85-.82-3.98-1.53-5.85s-1.99-3.53-2.65-5.42-1.15-3.84-1.78-5.74-1.35-3.77-1.94-5.69-1.47-3.75-2.01-5.68-.26-4.08-.76-6.02c-.49-1.94-.85-3.9-1.3-5.86-.45-1.95-.58-3.96-.98-5.92s-1.31-3.81-1.67-5.78-.37-3.99-.69-5.97c-.32-1.97-1.17-3.87-1.44-5.85s.43-4.08.2-6.07-.88-3.92-1.06-5.91-1.22-3.92-1.35-5.92-.34-4-.43-6 .18-4.02.13-6.02-.11-4.01-.11-6.01 1.02-4.05 1.06-6.07c.05-2.03.09-4.04.18-6.06s-1.08-4.13-.94-6.14c.14-2.03.36-4.06.54-6.07s1.09-3.97 1.32-5.98.03-4.09.3-6.09c.28-2.01 1.47-3.88 1.79-5.88s-.08-4.13.29-6.12.49-4.05.9-6.03c.42-1.99 1.08-3.92 1.54-5.89s1.43-3.83 1.93-5.79c.51-1.96.18-4.16.73-6.11s1.34-3.85 1.94-5.78c.6-1.94 1.59-3.76 2.23-5.68s1.08-3.92 1.77-5.83 1.91-3.62 2.64-5.51 1.4-3.8 2.17-5.67.91-4.02 1.73-5.88 2.41-3.36 3.26-5.2c.86-1.84.86-5.18 2.39-5.68 1.52-.5 5.41-.05 8.08-.05z"/></g></svg>