<svg viewBox="0 0 563.48 546.55" xmlns="http://www.w3.org/2000/svg"><g fill="#fff"><path d="m383.23 455.61c2.1 0 4.21-.61 6.3-.52 2.1.09 4.15.84 6.23 1.01 2.09.18 4.09.94 6.16 1.21 2.08.27 4.26-.22 6.32.14s3.99 1.37 6.03 1.82 4.27.16 6.29.71c2.02.54 4.04 1.14 6.04 1.78 1.99.63 3.76 1.93 5.73 2.65s4.08 1.03 6.02 1.84c1.93.8 3.93 1.47 5.83 2.36 1.04.49 2.27.9 3.16.18 1.57-1.27 2.7-3.07 4.24-4.38s3.38-2.27 4.89-3.61 3.04-2.66 4.52-4.04 2.55-3.17 3.99-4.59 3.51-2.21 4.92-3.65c1.41-1.45 1.97-3.7 3.35-5.18s3.44-2.33 4.78-3.85 2.22-3.42 3.52-4.97 2.89-2.85 4.15-4.43 2.91-2.86 4.14-4.47 1.6-3.85 2.78-5.49 2.97-2.85 4.12-4.51 1.71-3.72 2.82-5.41 2.59-3.14 3.66-4.85 2.14-3.43 3.17-5.17c1.02-1.74 2.22-3.39 3.2-5.16s1.26-3.91 2.2-5.7 2.37-3.33 3.26-5.14 1.42-3.8 2.27-5.63 2.2-3.44 3-5.3c.66-1.52-.5-3.14-2.02-3.8s-2.81-.11-3.47 1.41c-.81 1.87-1.37 3.88-2.23 5.73s-2.05 3.56-2.96 5.39-2.52 3.3-3.47 5.11-1.3 3.95-2.29 5.73c-1 1.78-1.79 3.7-2.84 5.45-1.04 1.76-1.99 3.59-3.08 5.32s-2.63 3.18-3.76 4.88-1.86 3.69-3.03 5.37c-1.17 1.67-3.36 2.62-4.57 4.27s-2.45 3.26-3.7 4.87-2.24 3.43-3.53 5.01-2.14 3.54-3.47 5.09-2.5 3.26-3.87 4.78-3.7 2.15-5.11 3.63-2.91 2.85-4.36 4.29-2.02 3.78-3.5 5.19-3.1 2.68-4.62 4.05-3.17 2.59-4.72 3.93-2 2.35-4.53 2.85c-2.52.49-3.72-.95-5.49-1.67-1.78-.73-3.5-1.69-5.3-2.35s-3.67-1.23-5.5-1.82-3.78-.83-5.64-1.35c-1.85-.52-3.75-.9-5.62-1.34s-3.91-.07-5.8-.44-3.6-1.7-5.51-2-3.83-.46-5.75-.68c-1.91-.22-3.8-.8-5.73-.95-1.91-.15-3.9.83-5.83.76s-3.83-.28-5.76-.28c-2.04 0-4.09-.36-6.12-.28-2.04.08-4.08.19-6.11.36-2.04.17-3.97 1.16-5.99 1.4s-4.22-.66-6.22-.33-3.93 1.25-5.92 1.66c-2 .41-4.09.45-6.07.94s-3.88 1.34-5.83 1.91c-1.96.58-3.98.97-5.91 1.62-1.93.66-3.67 1.87-5.56 2.6s-4.02.96-5.89 1.77-3.81 1.53-5.64 2.42-3.41 2.31-5.21 3.27-3.57 1.98-5.32 3.01-3.38 2.28-5.09 3.39-3.85 1.6-5.51 2.78-2.55 3.4-4.17 4.64c-1.61 1.24-3.37 2.28-4.93 3.59s-3.04 2.69-4.55 4.06-2.78 2.96-4.23 4.39-3.78 2.01-5.17 3.5-2.85 2.95-4.18 4.5c-1.32 1.54-2.53 3.23-3.79 4.83s-2.21 3.45-3.41 5.11-1.89 4.27-3.52 4.74-3.53-.45-5.41-.74-3.8-.31-5.68-.64-3.7-.89-5.57-1.27-4.87-.83-5.4-1.39 1.45-3.38 2.57-5.12 2.85-3.1 4.03-4.8 2.41-3.38 3.65-5.04 1.88-3.81 3.18-5.43c1.3-1.61 3.2-2.75 4.56-4.31s2.97-2.9 4.39-4.41 2.55-3.3 4.02-4.76 3.37-2.47 4.9-3.87c1.52-1.4 3.15-2.66 4.73-4.02s3.01-2.83 4.64-4.13c1.3-1.03.92-3.03-.11-4.32-1.03-1.3-2.68-1.84-3.98-.8-1.57 1.25-2.67 3.07-4.19 4.37s-2.95 2.7-4.43 4.06-3.86 1.77-5.29 3.17-2.2 3.48-3.59 4.94-3.48 2.27-4.82 3.77-1.84 3.72-3.13 5.27-3.27 2.53-4.5 4.12-1.69 3.76-2.87 5.39-2.07 3.43-3.19 5.1-2.45 3.18-3.51 4.89-2.73 4.48-3.45 4.57c-2 .23-3.7-.89-5.61-1.42s-3.75-1.26-5.65-1.84-3.74-1.28-5.62-1.91c-1.88-.62-3.79-1.14-5.65-1.81s-4.13-.27-5.98-.98-3.4-2.19-5.23-2.95-3.63-1.58-5.45-2.38c-1.81-.8-3.62-1.61-5.41-2.46s-3.75-1.35-5.52-2.24-3.69-1.52-5.44-2.45-3.36-2.15-5.08-3.12-3.26-2.29-4.96-3.3c-1.7-1.02-3.56-1.79-5.23-2.84-1.68-1.06-3.04-2.6-4.69-3.7-1.38-.92-3.94-.57-4.86.8-.92 1.38.13 3.3 1.51 4.22 1.62 1.08 2.95 2.62 4.6 3.67s3.48 1.79 5.16 2.79c1.67 1 3.02 2.58 4.71 3.55s3.78 1.23 5.5 2.15 3.38 1.95 5.12 2.83 3.57 1.56 5.33 2.41 3.28 2.2 5.06 3 3.6 1.52 5.4 2.28 3.91.73 5.73 1.45 3.2 2.55 5.03 3.22 4.09.15 5.93.78c1.85.63 3.58 1.57 5.44 2.16s3.52 1.83 5.4 2.38c1.87.55 3.99.23 5.87.73 1.89.5 3.57 1.79 5.47 2.24s3.88.58 5.78 1c1.91.41 3.97.02 5.89.38 1.92.37 3.74 1.2 5.66 1.52s3.8.96 5.73 1.24c1.05.15 3.7 1.16 5.82 1.1 1.77-.06 3.12-1.14 3.38-1.53 1.08-1.67 1.95-3.45 3.09-5.06s1.88-3.54 3.08-5.11 3.18-2.52 4.45-4.04c1.28-1.52 1.75-3.73 3.08-5.19 1.34-1.47 2.52-3.11 3.91-4.51s3.77-1.81 5.22-3.15 2.57-3.05 4.07-4.34c1.51-1.29 2.8-2.85 4.35-4.07s3.69-1.67 5.3-2.83 3.21-2.27 4.87-3.36 2.78-3.01 4.48-4.03 3.58-1.74 5.32-2.68c1.74-.95 3.84-1.18 5.61-2.05s3.09-2.72 4.91-3.52 3.78-1.24 5.63-1.96c1.84-.72 3.76-1.25 5.63-1.89s3.78-1.14 5.68-1.71 3.69-1.49 5.62-1.98c1.92-.49 3.9-.73 5.84-1.13s3.91-.6 5.87-.93c1.95-.32 3.89-.75 5.86-.99 1.96-.24 3.94-.31 5.92-.47 1.97-.16 3.91-1.03 5.89-1.11 1.97-.08 3.98.61 5.96.61z"/><path d="m359.49 66.05c.32.11.52-.16.83-.16 1.25 0 2.82.01 3.24-1.24.53-1.57-.84-3.06-2.41-3.59-1.91-.64-3.62-1.9-5.54-2.48s-4.06-.45-6-.98-3.7-1.74-5.66-2.22c-1.95-.48-4.11-.08-6.07-.51-1.97-.43-3.75-1.71-5.73-2.08s-3.9-1.1-5.89-1.43c-1.98-.32-4.07-.08-6.06-.35s-4.07.18-6.07-.03-3.95-.86-5.96-1.02c-2-.16-4.01-.21-6.02-.31-2.01-.11-4.03.39-6.04.33-2.01-.05-4-.23-6.02-.23s-4.19-.29-6.28-.23c-2.1.06-4.19.07-6.28.18s-4.23-.25-6.31-.08-4.08 1.35-6.16 1.58c-2.09.23-4.18.25-6.26.54s-4.12.75-6.18 1.1c-2.07.35-4.35-.46-6.41-.06-2.06.41-3.95 1.63-5.99 2.1-1.62.37-3.32 2.02-2.95 3.64s2.63 2.43 4.25 2.06c1.91-.43 3.89-.56 5.81-.94s3.77-1.14 5.71-1.47c1.93-.33 3.9-.36 5.06.35s1.18 1.78 1.56 4.66.88 2.81 1.26 5.69-.31 2.97.06 5.84c.38 2.88.61 2.85.99 5.73s.43 2.87.81 5.75q.38 2.88.75 5.76c.21 1.64 1.65 3.26 3.28 3.05 1.93-.25 3.87-.31 5.82-.49s3.87-.27 5.82-.39 3.84-1.45 5.79-1.51 3.92-.08 5.87-.08 4.04.57 6.05.64 4 .65 6.01.79 4 .34 6.01.54 4.06-.04 6.05.23c2 .27 4.1-.04 6.08.3 1.99.34 3.97.84 5.94 1.24 1.98.41 3.95.88 5.91 1.35s3.96.87 5.9 1.41 3.86 1.23 5.78 1.83c1.93.6 3.77 1.47 5.67 2.14s3.53 2.07 5.41 2.8 3.88 1.14 5.73 1.93 3.94 1.07 5.77 1.92 3.31 2.41 5.11 3.32 3.39 2.18 5.16 3.15 3.96 1.18 5.69 2.21 3.29 2.35 4.99 3.43c1.7 1.09 3.11 2.58 4.78 3.72s3.59 1.89 5.21 3.09 2.93 2.78 4.51 4.04 3.12 2.53 4.66 3.83 3.56 2.05 5.05 3.4 2.31 3.41 3.76 4.82 2.94 2.73 4.34 4.18 2.77 2.9 4.12 4.4 2.79 2.89 4.1 4.43c1.3 1.54 2.29 3.3 3.54 4.89s2.68 2.87 3.87 4.5c.19 1.98.62 3.83.9 5.79.28 1.97.57 3.94.94 5.88.37 1.95.26 4.02.72 5.95s1.32 3.78 1.87 5.68.89 3.9 1.52 5.78c.64 1.88 1.43 3.73 2.15 5.58.73 1.85 2.25 3.36 3.06 5.17s1.68 3.58 2.57 5.35 1.79 3.53 2.76 5.25c.97 1.73 2.34 3.19 3.39 4.87s1.67 3.63 2.8 5.26 2.41 3.14 3.61 4.72c1.2 1.57 2.57 3 3.84 4.52s2.06 3.46 3.41 4.92c1.34 1.46 3.12 2.49 4.53 3.89 1.41 1.39 2.41 3.22 3.88 4.55s3.52 1.97 5.06 3.23 2.96 2.61 4.55 3.8c1.59 1.18 3.14 2.39 4.79 3.51s4.36 2.1 4.43 3.72.12 2.83.16 4.38c.04 1.56.02 3.11.02 4.66 0 2-.14 3.98-.2 5.98s-.06 3.99-.18 5.98.34 4.03.17 6.02.61 4.38-.87 5.23-2.89.23-5.94-.17c-3.04-.4-3.07-.23-6.11-.63s-3.08-.16-6.12-.56-3.08-.13-6.12-.53-2.91-1.45-5.95-1.85-3.06-.23-6.11-.63-3.08-.12-6.13-.52-2.66-.33-5.71-.73-3.41-.63-5.31-.38c-1.49.2-1.34 1.01-1.53 2.5-.26 1.97-.7 3.9-1.04 5.85s-1.07 3.82-1.48 5.76-.86 3.85-1.34 5.77c-.49 1.92-.82 3.87-1.38 5.77s-.89 3.87-1.52 5.75-1.78 3.56-2.49 5.41-.76 3.96-1.55 5.78-1.48 3.69-2.33 5.48-1.99 3.45-2.91 5.2-1.89 3.49-2.88 5.2c-.99 1.72-1.45 3.77-2.51 5.45s-3.35 2.54-4.47 4.17-2.08 3.36-3.27 4.95-2 3.45-3.25 4.99-2.91 2.72-4.22 4.21-1.93 3.61-3.29 5.04c-1.36 1.44-3.63 1.97-5.05 3.36s-2.48 3.12-3.96 4.44-3.01 2.55-4.54 3.82-2.47 3.26-4.05 4.47c-1.57 1.2-3.53 1.91-5.15 3.06s-2.92 2.23-4.88 1.98-2.78-.5-5.52-2.19-4.69-1.55-5.38-2.49c-.68-.94-.01-3.15.68-5.32s4.26-3.57 2.18-4.5c-3.42-1.53-7.64-1.35-8.77-.87s-.07 4.65.35 6.83-1.55 5.02-.53 6.68 2.86 1.86 5.88 3.4 6.88 1.44 6.51 2.48-4.35 2.7-6.41 3.81c-2.33-.26-2.03-1.28-4.19-2.18-2.16-.91-2.86.25-4.09-1.74-1.76-2.86-.61-3.14-1.07-6.47s1.82-5.37-1.47-6.03c-2.12-.42-4.92-.42-8.18.22-2.87.56.91 2.41 1.78 5.21s.34 2.96 1.2 5.77.49 2.92 2.41 5.13c1.75 2 1.86 1.74 4.32 2.75s2.75.31 5.2 1.32c2.46 1.01 2.15 1.94 4.77 2.38 1.76-.91 3.16-2.46 4.89-3.43s3.55-1.76 5.23-2.79c1.69-1.04 3.88-1.3 5.53-2.4s2.7-3.06 4.31-4.22 3.23-2.28 4.79-3.5c1.56-1.23 3.16-2.38 4.67-3.66s2.74-2.86 4.2-4.2 3.25-2.31 4.66-3.7 2.69-2.9 4.05-4.35c1.36-1.44 2.42-3.13 3.72-4.63s3.07-2.59 4.31-4.13 2.55-3.04 3.73-4.63 2-3.44 3.13-5.07c1.12-1.63 2.5-3.1 3.56-4.77s1.95-3.46 2.94-5.17c1-1.71 2.15-3.34 3.08-5.09s1.17-3.84 2.03-5.62 2.47-3.21 3.27-5.03.9-3.91 1.63-5.76c.73-1.84 1.28-3.73 1.94-5.6s1.62-3.62 2.21-5.51 1.04-3.81 1.56-5.73.67-3.89 1.11-5.83 1.31-3.75 1.68-5.71c.37-1.94.86-4.26 2.11-5.19s2.14-.57 5.2-.17c3.05.4 2.94 1.29 5.99 1.69s3.04.47 6.1.87c3.05.4 3.13-.18 6.18.22s3.03.54 6.09.94 3.01.78 6.06 1.18c3.06.4 3.09.16 6.15.56s4.65-.03 5.33 1.59.11 2.91-.25 4.92-1.07 3.95-1.48 5.96.02 4.2-.46 6.18-1.59 3.82-2.12 5.8-1.13 3.93-1.72 5.88-.62 4.1-1.27 6.04-1.12 3.96-1.83 5.88-2.25 3.52-3.01 5.42-1.81 3.66-2.63 5.54c-.82 1.87-1.24 3.92-2.11 5.77s-1.49 3.83-2.42 5.65-1.67 3.75-2.66 5.55-2.49 3.3-3.52 5.06c-1.04 1.76-1.65 3.79-2.74 5.52s-2.57 3.22-3.71 4.92-1.89 3.68-3.08 5.34-2.72 3.09-3.96 4.72-2.89 2.93-4.17 4.52-2.29 3.41-3.63 4.96c-1.08 1.26-.98 3.1.28 4.18.57.49 1.43.62 2.12.62.84 0 1.47-.28 2.07-.97 1.31-1.53 2.42-3.22 3.68-4.78 1.27-1.56 3.27-2.56 4.49-4.15s2.08-3.48 3.25-5.11c1.18-1.63 1.53-3.83 2.65-5.5s3.16-2.73 4.24-4.42 2.37-3.28 3.41-5.01c1.03-1.73 1.33-3.89 2.32-5.64.98-1.76 2.22-3.37 3.15-5.15s1.17-3.91 2.05-5.72 2.8-3.13 3.63-4.96.88-4.01 1.66-5.86 1.74-3.63 2.47-5.51c.72-1.88 1.46-3.75 2.13-5.65s1.07-3.88 1.69-5.79 1.4-3.77 1.96-5.7 1.08-3.87 1.59-5.82.32-4.05.77-6.01 2.3-3.62 2.7-5.59-.33-4.16.02-6.14c.34-1.98.93-3.92 1.21-5.91s.24-4.02.47-6.02.35-3.99.52-6 .99-3.96 1.1-5.97-.26-4.03-.2-6.05.17-4.01.17-6.03c0-1.86-.26-3.73-.3-5.61s-.2-3.73-.29-5.6c-.05-1-.18-1.83-1.04-2.34-1.75-1.04-3.43-2.18-5.12-3.3-1.7-1.12-3.08-2.68-4.71-3.88-1.64-1.21-3.65-1.92-5.21-3.21-1.57-1.29-3.42-2.29-4.92-3.65-1.51-1.36-3.02-2.77-4.45-4.2-1.44-1.44-2.23-3.5-3.6-5-1.36-1.51-2.69-3.03-3.98-4.6s-2.18-3.43-3.39-5.06-2.62-3.09-3.75-4.78c-1.12-1.69-2.83-3.02-3.87-4.76s-1.02-4.08-1.97-5.87-1.92-3.54-2.78-5.38-2.21-3.44-2.98-5.32-1.53-3.76-2.2-5.68c-.67-1.91-1.77-3.71-2.35-5.65s.12-4.23-.36-6.2-1.17-3.86-1.55-5.86c-.38-1.99-1.71-3.83-1.99-5.85-.28-2.01-.51-4.05-.69-6.08-.05-.54.39-1.16.07-1.61-1.21-1.67-2.98-2.9-4.24-4.53s-2.18-3.52-3.49-5.1c-1.32-1.58-2.99-2.85-4.36-4.38-1.37-1.54-1.96-3.79-3.38-5.28s-2.89-2.96-4.35-4.4-3.22-2.6-4.74-4-3.48-2.28-5.04-3.62-2.74-3.13-4.34-4.42-2.9-2.99-4.55-4.23c-1.64-1.24-3.79-1.8-5.47-2.99s-3.05-2.85-4.77-3.98-3.9-1.54-5.66-2.62c-1.76-1.07-3.52-2.11-5.31-3.12s-3.29-2.57-5.12-3.52c-1.76-.92-3.76-1.37-5.55-2.23s-3.68-1.5-5.49-2.3-3.39-2.18-5.24-2.92-3.94-.82-5.8-1.51c-1.87-.68-3.58-1.78-5.47-2.41-1.89-.62-3.77-1.27-5.68-1.83s-3.96-.56-5.89-1.06c-1.92-.5-3.64-1.85-5.58-2.29s-4.11.27-6.06-.11-3.73-1.67-5.7-1.98-4.01-.03-5.98-.28-3.9-.87-5.88-1.06-3.93-.86-5.91-.98-4.02.82-6.01.76-3.96-.85-5.95-.85c-1.77 0-3.52.7-5.29.75s-3.55-.35-5.31-.25c-1.77.1-3.54.19-5.29.34s-4.01 1.04-4.91.54-1.15-2.96-1.57-6.11c-.41-3.15.16-3.23-.25-6.38-.41-3.16-.8-3.11-1.21-6.26s.15-3.23-.26-6.39-1.54-5.03-.4-6.26 3.38-.85 5.49-1.03c2.1-.18 4.2-.65 6.31-.77s4.25.12 6.36.06 4.23.67 6.34.67c1.96 0 3.93-.7 5.88-.65 1.96.05 3.94-.14 5.89-.03s3.94.08 5.89.24 3.87.85 5.81 1.06c1.95.21 3.97-.07 5.91.19s3.7 1.75 5.64 2.07 3.85.66 5.77 1.02 3.91.4 5.82.82 3.96.27 5.86.73 3.88.72 5.76 1.24c1.89.52 3.41 2.3 5.29 2.87 1.87.57 4.02.29 5.87.91z"/><path d="m522.77 363.99c1.66 0 3.68-.15 4.76-1.24 1.09-1.09 1.07-3.1 1.07-4.76s-.67-3-1.75-4.08-2.43-1.54-4.08-1.54-2.68.77-3.77 1.86-2.65 2.11-2.65 3.77 1.35 2.9 2.43 3.99 2.33 2.01 3.99 2.01z"/><path d="m347.05 418.64c1.08.45 2.63-.83 5.34-1.4 2.71-.56 2.8-.06 5.34-1.16 1.19-.52 2.73-.68 1.89-1.67-1.75-2.06-2.45-1.23-4.97-2.21s-2.47-1.1-4.99-2.08-4.41-2.17-5.2-1.55.45 2.47.55 5.08c.1 2.77.95 4.53 2.03 4.99z"/><path d="m162.29 180.84c-.79 1.03-2.34 2.66-1.07 2.9 1.64.3 3.63-.61 6.31-.97s1.97-.51 4.65-.87 4.91.18 5.56-.8-1.27-2.88-3.05-4.79-2.93-3.13-4.3-2.88-1.87 2.05-4.01 3.8c-2.13 1.74-2.41 1.41-4.1 3.6z"/><path d="m18.65 128.16c-.98.02-2.31.01-2.86.83-1.18 1.77-2.49 3.46-3.59 5.22s-1.82 3.9-2.87 5.67c-1.11 1.87-1.96 3.83-2.95 5.59-1.09 1.94-2.36 3.66-3.29 5.4-1.09 2.03-1.4 4.26-2.25 5.94-.55 1.09-1.29 2.54-.49 3.46 2.05 2.37 2.2 2.25 4.25 4.62s2.23 2.22 4.29 4.59c1.08 1.25 2.87 1.04 4.12-.05 1.25-1.08 2.16-3.2 1.07-4.45-1.72-1.99-2.7-1.14-4.43-3.13s-2.33-1.77-3.44-4.15c.85-1.64 1.92-3.78 2.96-5.68.91-1.68 2.11-3.33 3.15-5.16.97-1.69 1.93-3.47 3-5.25s1.79-5.33 3.27-5.38 1.5 3.75 2.38 5.92c.7 1.73 1.09 3.71 1.68 5.81.52 1.86 2.17 3.59 2.49 5.69.29 1.93.23 4.05.28 6.15.04 1.96.15 4.07-.09 6.15-.23 1.95-1.2 3.88-1.73 5.91-.49 1.9-1.51 3.67-2.31 5.61-.75 1.81-1.05 3.9-2.1 5.74-.78 1.37-.6 3.06.72 3.93 2.84 1.87 3.2 1.33 6.04 3.2s2.76 2 5.61 3.87q2.84 1.87 5.69 3.75c.5.33.84 1.24 1.41 1.24.71 0 1.89-.12 2.45-.61.11-.1 1.88-1.99 4.12-5.21 1.05-1.52 2-3.56 3.09-5.78.97-1.97.81-3.98 1.34-5.34 1.26-3.24 1.67-4.62 1.7-5 .13-1.65-.69-2.51-2.34-2.64-1.66-.13-3.76.42-3.89 2.08 0 .02.25 2.44-2.52 8.09-1.62 3.28-3.27 5.9-4.24 6.47s-2.65-.16-4.75-1.55c-2.11-1.39-1.82-1.83-3.93-3.22s-4.03-1.93-4.19-2.85.47-3.4 1.63-3.6 2.01 1.4 3.96 2.62 2.01 1.13 3.96 2.35c.49.31.73.5 1.27.5 1 0 1.95-.06 2.52-.97.88-1.4.12-2.66-1.29-3.54-2.22-1.39-1.83-1.24-4.06-2.64-2.22-1.39-4.1-2.34-4.91-3.02s.05-2.23.94-2.62 2.33.83 4.44 2.16 2.37.91 4.49 2.24c.49.31.76 1.34 1.3 1.34 1 0 1.37-1.3 1.94-2.21.88-1.4.96-2.72-.44-3.59-2.64-1.65-2.69-1.56-5.33-3.21s-3.46-.85-5.57-3.14c.23-2.21 1.46-4.79 1.41-6.87-.06-2.23-.72-4.39-1.03-6.45-.33-2.22-.84-4.35-1.37-6.34-.6-2.21-2.18-3.95-2.91-5.81-.88-2.26-.54-4.8-1.4-6.45-1.69-3.27-3.28-5.24-3.48-5.53-.58-.79-1.92-.72-2.9-.7z"/><path d="m26.38 201.82c-.95.52-.75 3.26-1.24 5.23s-.45 4-.9 5.98-1.29 3.93-1.7 5.93-.75 3.99-1.12 5.99-.84 3.98-1.16 5.99-.58 4.02-.85 6.04-.55 4.02-.78 6.05-.76 4.01-.94 6.04.64 4.12.51 6.15-.45 4.03-.54 6.07-1.1 4.03-1.15 6.06 1.13 4.07 1.13 6.11-.5 3.97-.46 5.95.36 3.96.45 5.94-.08 3.98.05 5.96.21 3.97.39 5.94.37 3.96.58 5.93-.34 4.05-.09 6.02.75 3.92 1.05 5.88.52 3.96.86 5.91 1.21 3.83 1.6 5.77.64 3.93 1.07 5.87 1.28 3.78 1.75 5.71.42 4 .94 5.91.96 3.87 1.51 5.77 1.19 3.8 1.79 5.69 1.56 3.68 2.2 5.55 1.72 3.6 2.4 5.47.62 4.01 1.34 5.86 1.27 3.78 2.04 5.62c.76 1.84 2.2 3.39 3 5.2s1.13 3.86 1.97 5.66 2.15 3.38 3.03 5.16 1.89 3.5 2.81 5.26 2.33 3.25 3.28 4.99c.96 1.74.97 4.01 1.97 5.73s2.6 3.08 3.63 4.78 1.32 3.86 2.39 5.54 3.32 2.58 4.42 4.23 1.06 4.1 2.2 5.72c1.14 1.63 2.69 2.97 3.87 4.57s2.32 3.24 3.53 4.81 3.06 2.65 4.3 4.2 1.96 3.53 3.24 5.05 2.81 2.83 4.12 4.32 2.97 2.66 4.31 4.13 2 3.57 3.37 5.01 2.6 3.03 4 4.43 3.38 2.24 4.81 3.61 2.32 3.34 3.78 4.68 3.7 1.82 5.2 3.13c1.49 1.31 2.61 3.05 4.13 4.33s3.07 2.53 4.62 3.77 3.22 2.34 4.79 3.55 3.24 2.29 4.84 3.47 3.24 2.3 4.86 3.44 3.08 2.52 4.73 3.63 3.16 2.43 4.84 3.5 3.48 1.94 5.17 2.98 3.18 2.43 4.9 3.43 3.51 1.89 5.25 2.85 3.45 1.99 5.21 2.91 4.13.64 5.91 1.52 3.16 2.58 4.96 3.42 3.86 1.1 5.68 1.9 3.24 2.52 5.08 3.28 3.93.88 5.79 1.6c1.85.72 3.8 1.17 5.67 1.85 1.86.68 3.47 2.11 5.35 2.76s4.09.26 5.99.86c1.89.6 3.48 2.19 5.39 2.75s4.05.28 5.97.8 3.79 1.18 5.72 1.65 3.95.49 5.9.92 3.65 1.93 5.6 2.32 4.02.11 5.98.45c1.95.34 3.83 1.22 5.79 1.52s3.94.56 5.91.82 4.04-.34 6.02-.12 3.92.67 5.9.85 3.96.15 5.95.28c1.98.13 5.16 1.04 6.07.78s4.16-7.02 3.59-7.91-3.43-.62-5.43-.72-4.04.37-6.04.22-3.92-1.2-5.91-1.39-4.14.97-6.13.73-3.82-1.74-5.8-2.02c-1.99-.28-4-.32-5.97-.65-1.98-.33-3.95-.65-5.92-1.02s-3.86-1.12-5.81-1.53c-1.96-.42-3.99-.5-5.94-.96s-4.05-.34-5.99-.85-3.95-.81-5.87-1.36c-1.93-.55-3.65-1.81-5.56-2.41s-3.83-1.19-5.72-1.83c-1.9-.64-4.07-.52-5.96-1.2s-3.32-2.59-5.18-3.31c-1.87-.73-4.05-.67-5.9-1.44s-3.81-1.31-5.64-2.12c-1.84-.81-3.13-2.8-4.94-3.65s-3.99-.95-5.78-1.84-3.4-2.16-5.17-3.09-3.81-1.38-5.57-2.35-3.37-2.19-5.1-3.21c-1.73-1.01-3.51-1.94-5.22-2.99s-3.25-2.36-4.93-3.45-3.37-2.17-5.03-3.29-3.63-1.81-5.26-2.97-3.08-2.6-4.68-3.8-3.23-2.39-4.81-3.62c-1.58-1.24-2.74-2.99-4.28-4.26s-3.04-2.6-4.56-3.9-3.67-1.9-5.16-3.24-2.12-3.61-3.58-4.98-3.73-1.9-5.16-3.31-1.97-3.69-3.37-5.12c-1.4-1.44-2.88-2.77-4.25-4.24s-3.1-2.59-4.43-4.09-2.98-2.73-4.27-4.26c-1.3-1.53-2.61-3.06-3.87-4.61-1.26-1.56-1.95-3.57-3.18-5.15s-2.78-2.92-3.98-4.53-1.87-3.59-3.02-5.23-2.79-2.94-3.91-4.6-1.84-3.58-2.92-5.27-2.07-3.42-3.11-5.14-2.56-3.14-3.56-4.88-1.18-3.93-2.14-5.69-2.93-2.98-3.85-4.76-1-3.98-1.88-5.78-1.78-3.58-2.62-5.4-2.57-3.24-3.37-5.08-1.61-3.68-2.37-5.54-1.17-3.86-1.88-5.73-1.37-3.77-2.04-5.66-.63-4.02-1.25-5.92-1.06-3.85-1.64-5.77-1.62-3.69-2.16-5.62-1.29-3.8-1.78-5.75-.69-3.95-1.14-5.91-1.62-3.75-2.02-5.72.28-4.13-.08-6.11-.88-3.9-1.2-5.88-.84-3.92-1.11-5.91-1-3.91-1.22-5.91.63-4.08.45-6.08-1.63-3.89-1.77-5.89-.14-4.01-.23-6.02-.03-4.01-.07-6.02.18-4.01.18-6.02-.04-4.13 0-6.18-.05-4.13.05-6.19.81-4.08.95-6.13.6-4.08.79-6.12-.82-4.23-.59-6.27.76-4.07 1.05-6.11.4-4.12.73-6.15 1.29-3.96 1.67-5.98 1.19-3.96 1.61-5.97c.43-2.02.6-3.35 1.07-5.35s1.88-4.89 1.43-6.79-6.3-4.92-7.26-4.39z"/><path d="m497.99 108.19c2.04-.45 1.86 2.4 3.12 4.05s1.59 3.98 2.81 5.65 3.26 2.76 4.45 4.46 1.96 3.68 3.1 5.41 4.21 5.23 4.32 5.42c1.08 1.73 1.5 3.87 2.54 5.63s1.68 3.74 2.68 5.52 2.68 3.18 3.64 4.99c.96 1.8 1.12 4.01 2.04 5.84s2.08 3.52 2.95 5.36 2.21 3.48 3.04 5.34 1.81 3.67 2.6 5.56c.79 1.88 1.52 3.8 2.26 5.7s1.75 3.71 2.45 5.63.03 4.31.68 6.25 1.34 3.84 1.95 5.79 1.46 5.01 2.48 5.6 2.71 1.61 4.22 2.05 4.33 1.53 5.11.9-1.21-4.17-1.77-6.08-1.11-3.83-1.71-5.72-2.01-3.52-2.65-5.4-.86-3.91-1.54-5.77-1.56-3.66-2.28-5.51-.61-4.04-1.37-5.88-2.74-3.16-3.54-4.97c-.8-1.82-1.26-3.78-2.1-5.58s-1.98-3.45-2.86-5.23-1.89-3.48-2.81-5.25c-.92-1.76-1.58-3.65-2.54-5.39s-2.07-3.39-3.06-5.11-1.76-3.57-2.79-5.27-1.51-3.74-2.58-5.42-2.12-3.38-3.22-5.03-2.82-2.89-3.96-4.52-2.14-3.36-3.31-4.96-2.39-3.18-3.6-4.76-2.56-3.04-3.81-4.59-2.31-3.24-3.59-4.76-2.32-3.25-3.63-4.75-3.11-2.55-4.45-4.02-2.36-3.24-3.73-4.67-2.61-3.02-4.01-4.43-2.69-2.95-4.12-4.33-2.92-2.72-4.38-4.07-3.12-2.49-4.61-3.8-3.27-2.3-4.79-3.58-3.25-2.3-4.8-3.55-3.07-2.52-4.64-3.73-3.01-2.6-4.61-3.78-3.08-2.53-4.7-3.67-3-2.67-4.65-3.78-3.58-1.81-5.25-2.88-3.43-2.01-5.13-3.04-3.4-2.05-5.12-3.05-3.56-1.78-5.3-2.74-3.38-2.1-5.14-3.02-3.51-1.86-5.29-2.75c-1.78-.88-3.45-2-5.25-2.85s-4.01-.78-5.82-1.59c-1.82-.8-3.61-1.63-5.45-2.39s-3.63-1.6-5.48-2.33-3.45-2.09-5.32-2.78-3.93-.8-5.82-1.44-3.83-1.04-5.73-1.64-3.62-1.72-5.53-2.27c-1.91-.56-3.83-1.07-5.75-1.58s-3.69-1.63-5.62-2.1-3.99-.43-5.93-.86-3.78-1.36-5.73-1.75-4.08.18-6.04-.17c-1.95-.34-3.86-.99-5.83-1.3s-3.83-1.3-5.81-1.56c-1.97-.26-3.97-.4-5.95-.62s-4.05.64-6.04.47c-1.98-.17-3.93-.56-5.92-.68-1.98-.13-3.96-.22-5.95-.3s-3.95-.73-5.94-.77c-1.98-.04-3.98.17-5.97.17s-3.96.21-5.96.24c-1.97.03-3.97-.22-5.97-.17-1.98.06-3.93.89-5.93.98-1.97.09-3.99-.39-5.98-.27-1.97.12-3.96.29-5.95.44s-3.93.6-5.92.78c-1.97.18-4.01-.24-6-.02s-3.9.85-5.88 1.1c-1.96.24-4.03-.15-6 .12-1.96.27-3.87 1-5.84 1.31s-3.95.44-5.92.79c-1.95.34-3.89.8-5.85 1.17-1.95.37-3.9.76-5.85 1.17-1.94.41-3.67 1.78-5.62 2.22s-4.14-.27-6.08.21c-1.92.47-3.73 1.44-5.66 1.95s-3.69 1.52-5.61 2.07c-1.91.54-4.09.17-6 .75s-3.8 1.17-5.7 1.79c-1.88.61-3.54 1.92-5.43 2.58-1.87.65-3.99.63-5.86 1.32s-3.66 1.56-5.52 2.28c-1.85.72-3.74 1.35-5.59 2.11s-3.64 1.61-5.47 2.41c-1.82.79-3.48 1.95-5.29 2.78-1.8.83-3.87 1.1-5.67 1.97s-3.33 2.23-5.11 3.14-3.24 2.36-5 3.29c-1.75.93-3.94 1.06-5.68 2.03s-3.27 2.28-5 3.29-3.75 1.48-5.45 2.52-2.99 2.72-4.67 3.79-3.75 1.53-5.41 2.64c-1.65 1.1-2.86 2.86-4.5 4-1.63 1.13-2.91 2.74-4.53 3.91s-3.96 1.32-5.56 2.52c-1.58 1.19-3.17 2.41-4.74 3.64s-3.1 2.5-4.65 3.76-2.76 2.89-4.28 4.18c-1.51 1.28-2.83 2.79-4.33 4.11s-2.96 2.64-4.43 3.99-3.12 2.47-4.57 3.85c-1.43 1.37-2.8 2.81-4.22 4.22s-3.13 2.49-4.52 3.93-2.2 3.38-3.57 4.84-3.12 2.52-4.47 4c-1.33 1.47-2.57 3.03-3.88 4.54s-2.61 3-3.9 4.52c-1.28 1.51-2.24 3.3-3.5 4.85-2.22 2.74-2.48 2.6-4.45 5.45-2.13 2.82-1.43 5.13-.02 6.49 1.59 1.54 4.68 2.21 6.64-.35 1.84-2.62 1.51-3.45 3.66-6.43 1.26-1.55 2.6-3.01 3.87-4.52 1.29-1.52 3.01-2.65 4.31-4.13s2.13-3.42 3.46-4.88 2.92-2.72 4.27-4.15c1.37-1.45 2.86-2.75 4.24-4.16 1.39-1.43 2.24-3.38 3.64-4.76s2.99-2.63 4.42-3.99 3.24-2.35 4.7-3.68 2.52-3.14 4-4.45 3.05-2.56 4.55-3.83c1.52-1.29 3.56-1.93 5.09-3.17s2.29-3.51 3.84-4.73 3.19-2.4 4.77-3.58c1.6-1.19 4-1.27 5.6-2.42 1.62-1.16 2.67-3.11 4.29-4.23s3.1-2.53 4.75-3.62c1.66-1.09 3.69-1.62 5.36-2.68s3.08-2.58 4.78-3.6 3.63-1.67 5.34-2.66c1.73-.99 3.46-1.95 5.19-2.9s3.63-1.62 5.39-2.54 3.61-1.65 5.38-2.53c1.78-.88 3.38-2.12 5.17-2.96 1.8-.85 3.4-2.12 5.21-2.93s3.79-1.27 5.6-2.04c1.83-.78 3.72-1.39 5.56-2.13 1.85-.74 3.48-2.02 5.33-2.72 1.86-.7 3.9-.93 5.76-1.6 1.87-.67 3.96-.68 5.84-1.31s3.52-2.03 5.4-2.62c1.9-.6 3.95-.68 5.84-1.23s3.86-.93 5.77-1.45 3.55-2.12 5.47-2.61 4.11.07 6.03-.38c1.94-.45 3.71-1.6 5.64-2.02 1.95-.42 3.94-.59 5.88-.97 1.95-.38 3.89-.82 5.84-1.17 1.96-.35 3.84-1.15 5.79-1.47 1.97-.32 4.09.43 6.04.15 1.97-.28 3.98-.18 5.93-.43 1.98-.25 3.84-1.36 5.8-1.58s4.02.28 5.98.1c1.98-.18 3.88-1.27 5.85-1.42 1.99-.15 4 .21 5.97.09 1.99-.12 3.94-.8 5.91-.89s3.97-.41 5.94-.47c1.99-.06 3.99.26 5.96.23s3.98 1.02 5.95 1.02 3.94.03 5.91.08c1.98.04 3.99-1.06 5.96-.97s3.89 1.25 5.86 1.38 3.92.37 5.89.55 3.94.17 5.9.39 4.03-.4 5.98-.13c1.96.26 3.86.95 5.81 1.25 1.95.31 4.02-.02 5.96.33 1.95.35 3.69 1.75 5.62 2.14s3.82.96 5.75 1.4 4.12-.23 6.03.25c1.92.48 3.81 1.08 5.72 1.61s3.83 1.03 5.72 1.6 3.68 1.49 5.56 2.1 3.54 1.85 5.41 2.5 3.91.78 5.76 1.48 3.65 1.52 5.48 2.26 3.89.94 5.71 1.72 3.19 2.56 4.99 3.37 4.07.63 5.84 1.49c1.78.86 2.95 2.95 4.71 3.84s3.81 1.23 5.54 2.16c1.74.94 3.73 1.43 5.44 2.4s3.14 2.47 4.83 3.48c1.7 1.01 3.52 1.81 5.19 2.86s3.31 2.17 4.95 3.25 3.18 2.35 4.8 3.48 3.4 2.03 5 3.19 3.51 1.91 5.09 3.1 3.13 2.43 4.68 3.66 2.52 3.17 4.04 4.43 3.59 1.89 5.07 3.18 2.8 2.82 4.26 4.14c1.46 1.33 2.29 3.33 3.73 4.69 1.43 1.36 3.55 2.01 4.95 3.41s2.91 2.69 4.28 4.12c1.37 1.42 2.72 2.88 4.06 4.33s1.83 3.67 3.13 5.16 2.18 1.31 2.8 3.21-1.73 4.92-3.04 7.06c-1.38 2.24-3.65 6.95-7.19 2.31-1.2-1.58-2.29-3.28-3.62-4.76-1.32-1.48-2.97-2.68-4.33-4.13s-2.74-2.88-4.13-4.3-2.54-3.09-3.97-4.47-3.68-1.89-5.13-3.24c-1.46-1.35-2.19-3.49-3.68-4.81s-3.13-2.46-4.65-3.74-3.27-2.28-4.81-3.53c-1.55-1.25-3.36-2.14-4.93-3.35s-2.91-2.73-4.51-3.9-3.57-1.82-5.2-2.95-2.78-2.97-4.44-4.06-3.35-2.14-5.03-3.19-3.42-2.02-5.13-3.04c-1.71-1.01-3.43-2.01-5.16-2.98s-3.32-2.22-5.07-3.15-3.88-1.14-5.66-2.02c-1.82-.91-3.41-2.31-5.25-3.17s-3.63-1.88-5.49-2.7-3.64-1.88-5.52-2.66-3.76-1.6-5.66-2.33-4.02-.91-5.93-1.6-3.83-1.41-5.76-2.04-3.88-1.26-5.82-1.85c-1.95-.59-3.91-1.16-5.87-1.7s-4.17-.11-6.15-.6-3.92-1.02-5.91-1.46-3.93-1.01-5.93-1.4-3.97-.86-5.98-1.2-4-.66-6.02-.95-3.93-1.32-5.95-1.56-4.14.47-6.17.27-3.96-1.47-5.99-1.61-4.13.95-6.17.86c-2.03-.1-4.04-.67-6.07-.72s-4.06.25-6.1.25-3.99-.96-5.97-.91-3.93 1.28-5.92 1.37-4.01-.54-5.99-.4-3.97.27-5.95.45-3.91.85-5.88 1.08-3.97.25-5.94.53-3.99.21-5.95.53-3.73 1.68-5.69 2.05-3.98.33-5.92.74c-1.94.42-3.96.53-5.89.99-1.93.47-3.77 1.29-5.69 1.8s-4.09.15-6 .71-3.7 1.53-5.6 2.13-3.78 1.26-5.65 1.91c-1.88.65-3.6 1.75-5.46 2.44s-3.82 1.12-5.67 1.86-3.61 1.67-5.44 2.45-3.73 1.39-5.54 2.22-3.82 1.23-5.61 2.1-3.46 1.99-5.23 2.9-3.69 1.56-5.43 2.51-3.05 2.7-4.77 3.7-3.46 1.96-5.15 2.99-3.08 2.54-4.75 3.62-3.8 1.45-5.44 2.57-3.43 2.04-5.05 3.2c-1.61 1.16-2.78 2.92-4.37 4.12-1.59 1.19-3 2.6-4.56 3.84s-3.36 2.15-4.89 3.42-3.49 2.04-4.99 3.35c-1.5 1.3-2.45 3.23-3.92 4.57s-3.21 2.38-4.65 3.76-3.23 2.39-4.64 3.8-2.82 2.83-4.19 4.27-2.21 3.39-3.55 4.86-2.99 2.67-4.29 4.17-1.94 3.57-3.21 5.1-2.44 3.13-3.67 4.69-3.34 2.45-4.53 4.04-1.73 3.67-2.89 5.28-2.13 3.35-3.25 4.99-3.05 2.75-4.13 4.42-1.59 3.71-2.62 5.4-1.99 3.44-2.98 5.16-1.79 3.55-2.74 5.29-2.8 3.02-3.72 4.78-1.33 3.79-2.2 5.58-1.8 3.55-2.62 5.36-1.63 3.63-2.41 5.46-1.47 3.7-2.21 5.54c-.74 1.85-2 3.5-2.69 5.36s-.76 3.96-1.41 5.84-1.39 3.73-1.99 5.63-1.45 3.72-2.01 5.63-.61 3.96-1.12 5.88-.45 3.98-.92 5.91-1.91 3.64-2.33 5.58.26 4.1-.12 6.06-1.26 3.8-1.59 5.76-1.36 3.82-1.64 5.79.74 4.1.51 6.08-1.42 3.84-1.61 5.82.47 4.02.33 6.01-.66 3.93-.75 5.92-.94 3.95-.98 5.94 1.28 3.99 1.28 5.98-.13 4-.08 6.01-.85 4.05-.75 6.05 1.2 3.95 1.34 5.95-.83 4.1-.63 6.09 1.05 3.93 1.29 5.92.69 3.95.98 5.94-.24 4.11.1 6.08.97 3.92 1.35 5.88 1.59 3.77 2.02 5.73.81 3.92 1.29 5.87.35 4.05.87 5.99 1.5 3.75 2.07 5.67 1.37 3.77 1.99 5.68 1.46 3.73 2.13 5.62 1.45 3.72 2.16 5.6 1.27 3.8 2.02 5.66 1.27 3.81 2.07 5.65 1.83 3.57 2.67 5.39 1.28 3.83 2.16 5.63 1.93 3.52 2.86 5.3 1.58 3.7 2.55 5.46 2.69 3.08 3.7 4.81 1.28 3.9 2.33 5.61 2.25 3.33 3.35 5.01 2.25 3.32 3.38 4.98 2.56 3.1 3.73 4.73 2.09 3.44 3.3 5.04 2.36 3.24 3.61 4.81 2.5 3.14 3.79 4.68 3.23 2.5 4.56 4.01 2.66 2.98 4.02 4.45 2.02 3.6 3.41 5.05c1.39 1.44 2.79 2.89 4.22 4.3s2.6 3.1 4.06 4.48 3.47 2.16 4.96 3.5c.55.49 1.21.65 1.95.65.06 0 1.93-.03 2.46-.63 2.1-2.35 1.97-2.47 4.07-4.82s2.51-1.99 4.61-4.34 1.14-3.21 3.24-5.56 3.11-1.45 5.21-3.8 1.72-2.7 3.83-5.05c2.1-2.35 2.5-2 4.6-4.36 1.1-1.23.79-4-.44-5.11-1.52-1.36-3.18-2.55-4.66-3.95s-3.13-2.63-4.56-4.07-2.99-2.79-4.38-4.27-2.4-3.32-3.75-4.85-3.36-2.5-4.66-4.06-2.26-3.43-3.52-5.03-2.93-3.98-2.82-5.19 2.14-1.14 4.63-2.92c2.5-1.78 2.15-2.26 4.65-4.05s2.58-1.67 5.08-3.45 2.33-2.02 4.83-3.8 2.33-2.01 4.83-3.8c2.5-1.78 2.68-1.52 5.18-3.3s2.53-1.73 5.04-3.52c2.5-1.78 2.55-1.72 5.05-3.5s3-1.76 4.22-3.03-.02-1.8-.9-3.02c-1.14-1.59-1.93-3.4-3.01-5.03s-2.18-3.23-3.19-4.9-2.4-3.12-3.34-4.83-1.21-3.77-2.09-5.51-2.37-3.19-3.18-4.96-1.76-3.51-2.49-5.31-1.04-3.79-1.71-5.62-.77-3.85-1.37-5.71-1.24-3.68-1.76-5.56-.85-3.79-1.3-5.69-.96-3.76-1.33-5.68-1.32-3.72-1.62-5.65-.04-3.92-.26-5.87-.31-3.87-.46-5.82-.58-3.86-.66-5.81-1.09-3.89-1.09-5.85c0-2.08.71-4.16.8-6.23s-.47-4.21-.3-6.27.42-4.16.67-6.22.73-4.12 1.07-6.16.65-4.13 1.07-6.16 1.85-3.84 2.35-5.85.27-4.23.86-6.22 2.31-3.61 2.98-5.58.86-4.09 1.61-6.02 1.35-3.93 2.19-5.83 1.74-3.77 2.65-5.64 1.99-4.48 2.96-4.85 3.08-.24 6.31-.08 3.49-1.32 6.21.45c1.91 1.25.49 1.86.93 4.1s-1.08 4.39 1.17 4.05c3.18-.48 6.84-1.14 7.98-2.68 1.99-2.69-1.07-3.36-2.63-6.33-1.56-2.96-1.13-3.41-4.03-5.08s-3.11-.89-6.51-.78-6.27 1.3-6.75.62 2.55-5.1 3.77-5.63 2.48-.85 4.81-1.1 2.22-1.03 4.26.12c2.92 1.66 2.55 2.15 4.55 4.85s.32 5.72 3.63 5.15c2.54-.44 5.91-1.76 7.98-3.96s-2.95-1.94-5.05-3.98-2.15-1.99-4.26-4.03-1.95-3.14-3.52-3.69-2.92.29-5.56.59-2.58.08-5.22.39-4.29.45-5.37.65c-1.08.21-2.69 2.41-3.72 4.06s-2.05 3.33-3.02 5.02-1.84 3.45-2.74 5.17-1.5 3.62-2.33 5.37-1.46 3.61-2.23 5.4-1.07 3.75-1.78 5.57-1.75 3.49-2.38 5.33-1.32 3.66-1.89 5.52-1.64 3.59-2.14 5.47.07 4.02-.36 5.92-.86 3.77-1.22 5.69-.6 3.82-.88 5.75-1.43 3.73-1.64 5.67.28 3.93.14 5.87-.34 3.86-.41 5.81-.77 3.88-.77 5.82 0 3.96.07 5.92.86 3.9 1.01 5.86.23 3.93.45 5.88 0 3.98.28 5.92.91 3.85 1.28 5.78.87 3.84 1.3 5.76c.44 1.92 1.1 3.78 1.61 5.68s1.02 3.79 1.6 5.67.9 3.85 1.55 5.7 2.06 3.42 2.78 5.25.69 3.97 1.48 5.77 1.45 3.68 2.31 5.45 1.56 3.64 2.49 5.38 1.81 3.52 2.8 5.23 3.06 2.75 4.12 4.41 2.24 2.67 1.84 4.29-1.9 2.21-4.41 4-1.8 2.78-4.31 4.56c-2.51 1.79-2.93 1.19-5.44 2.98s-2.52 1.77-5.03 3.56-2.21 2.21-4.71 3.99c-2.51 1.79-2.73 1.47-5.24 3.26s-2.23 2.18-4.74 3.97-3.99 2.28-5.21 1.97c-1.22-.32-1.77-2.39-2.85-4.06-1.08-1.66-2.61-3.04-3.64-4.73s-1.56-3.67-2.55-5.39-2.93-2.91-3.87-4.66-1.8-3.55-2.68-5.33-.89-3.97-1.72-5.77-2.07-3.42-2.84-5.24-1.77-3.57-2.49-5.41-1.91-3.53-2.58-5.4-.41-4.06-1.03-5.95-1.15-3.79-1.72-5.69-.68-3.91-1.19-5.83-1.75-3.64-2.21-5.57-.31-3.99-.71-5.93-.58-3.91-.93-5.86-1.49-3.77-1.77-5.73.16-4.01-.07-5.99-1.16-3.86-1.33-5.84-.5-3.95-.62-5.93-.22-3.97-.28-5.96-.1-3.98-.1-5.96.95-3.95 1.01-5.93.09-3.95.2-5.92-.77-4.03-.6-6 .56-3.94.78-5.91.35-3.96.64-5.92 1.25-3.82 1.59-5.77.99-3.84 1.38-5.78-.25-4.12.2-6.04 1.66-3.68 2.16-5.59 1.3-3.75 1.86-5.64.39-4.03 1-5.91 2.1-3.47 2.77-5.33.65-3.99 1.37-5.83 1.1-3.85 1.87-5.67 2.82-3.08 3.65-4.88 1.62-3.6 2.5-5.37 1.93-3.44 2.86-5.19.83-4.06 1.81-5.78 2.38-3.21 3.41-4.9 2-3.43 3.07-5.09 1.97-3.45 3.1-5.08 2.08-3.4 3.25-5 2.28-3.26 3.5-4.83c1.22-1.56 3.09-2.61 4.35-4.14s2.2-3.33 3.5-4.82 2.48-3.12 3.82-4.57c1.35-1.45 3.28-2.35 4.67-3.76s3.16-2.42 4.59-3.79 2.86-2.71 4.33-4.04 2.15-3.54 3.66-4.83 2.99-2.62 4.53-3.86 3.66-1.75 5.24-2.96 3.44-2.95 5.05-4.11c1.61-1.15 3.15-1.39 4.8-2.5 1.37-.93 1.34-3.39.41-4.76s-2.65-1.51-4.03-.58c-1.64 1.11-2.65 1.64-4.25 2.8s-4.21 2.5-5.79 3.7-2.85 2.68-4.39 3.92-2.82 2.79-4.33 4.07-3.54 1.97-5.01 3.29-2.63 3-4.06 4.36-3.16 2.44-4.55 3.85-2.89 2.73-4.25 4.17-2.75 2.87-4.06 4.35c-1.32 1.48-2.34 3.23-3.61 4.74s-2.47 3.1-3.7 4.65-2.24 3.28-3.42 4.86-2.88 2.81-4.02 4.43-1.25 3.94-2.35 5.59-3.11 2.7-4.16 4.38-1.29 3.85-2.29 5.56-2.04 3.38-2.99 5.12-2.2 3.31-3.11 5.07-2.15 3.36-3 5.14-1.48 3.68-2.29 5.49-.97 3.88-1.73 5.72-1.91 3.49-2.62 5.34c-.7 1.85-.97 3.85-1.62 5.72s-1.71 3.59-2.31 5.48-.71 3.91-1.26 5.81-1.79 3.61-2.28 5.53-1.11 3.81-1.54 5.75.25 4.09-.13 6.04-1.32 3.77-1.65 5.72-.26 3.95-.53 5.92-.85 3.87-1.07 5.84-1.27 3.86-1.43 5.83.28 4 .17 5.98-.36 3.95-.42 5.93.78 3.96.78 5.95-1.12 4.06-1.06 6.08.63 4.03.75 6.04.55 4.01.72 6.02-.34 4.1-.11 6.11.47 4.03.76 6.03 1.25 3.9 1.59 5.89 1.14 3.89 1.54 5.87.1 4.11.55 6.08 1.34 3.83 1.86 5.78.86 3.95 1.43 5.89 1.35 3.81 1.97 5.73.98 3.93 1.66 5.84 1.14 3.9 1.87 5.78 2.38 3.39 3.17 5.25.66 4.12 1.5 5.96 2.39 3.34 3.28 5.16 1.93 3.54 2.87 5.33.86 4.14 1.85 5.9 2.84 3.03 3.88 4.77c1.04 1.73 1.4 3.89 2.5 5.59 1.09 1.7 2.97 2.89 4.1 4.56s1.81 3.67 2.99 5.3 3.18 2.66 4.41 4.27c1.23 1.6 1.75 3.76 3.02 5.33s2.77 2.95 4.1 4.48c1.32 1.53 2.97 2.75 4.34 4.25 1.36 1.49 2.54 3.15 3.95 4.6s2.33 3.39 3.77 4.8 3.82 3.27 3.91 4.03-1.74 1.68-3.86 4.05-1.75 2.7-3.88 5.07-1.92 2.56-4.04 4.93-1.71 2.74-3.84 5.12-3.41 3.9-4.57 3.9-3.59-1.77-5.02-3.15-2.17-3.47-3.56-4.88-2.55-3.05-3.91-4.49-3.29-2.37-4.62-3.84-2.07-3.46-3.36-4.97-2.76-2.86-4.01-4.4-3.24-2.51-4.45-4.08-1.34-3.97-2.52-5.57-2.2-3.29-3.34-4.92-2.47-3.11-3.57-4.76-2.04-3.4-3.09-5.08-2.15-3.32-3.17-5.03-3.05-2.83-4.02-4.56-.76-4.11-1.69-5.86c-.93-1.76-2.09-3.38-2.97-5.16s-2.6-3.16-3.44-4.96-.97-3.93-1.77-5.75-1.95-3.49-2.7-5.33-1.06-3.85-1.77-5.71-1.23-3.77-1.89-5.64-1.39-3.71-2.01-5.6-1.44-3.7-2.01-5.61-1.33-3.75-1.86-5.66-1.6-3.69-2.09-5.62-.48-3.98-.92-5.92-.09-4.04-.48-5.98-1.09-3.83-1.43-5.79-1.22-3.83-1.51-5.79-.09-4-.33-5.97-.74-3.91-.93-5.89.04-3.99-.11-5.97-.49-3.94-.59-5.93.03-3.97-.02-5.96-.76-3.96-.76-5.95.29-4.01.33-6 .54-3.99.63-5.98-.37-4.04-.23-6.03.77-3.96.96-5.94.51-3.97.75-5.95-.23-4.08.06-6.05 1.09-3.89 1.43-5.86.5-3.98.89-5.94 1.63-3.75 2.06-5.69 1.08-3.84 1.57-5.78.21-4.08.75-6 .89-3.92 1.47-5.83 1.64-3.68 2.27-5.58 1.8-3.6 2.47-5.48 1.2-3.81 1.92-5.67 1.54-3.68 2.31-5.52.69-4.06 1.5-5.88c.81-1.83 1.56-3.7 2.42-5.5s1.88-3.55 2.78-5.33c.9-1.79 2.1-3.42 3.05-5.18s2.54-3.16 3.52-4.9c.99-1.74 1.24-3.9 2.27-5.61s1.97-3.49 3.04-5.18 2.99-2.82 4.11-4.48 1.05-4.13 2.21-5.76 2.57-3.1 3.76-4.7 2.43-3.19 3.67-4.76 2.37-3.24 3.64-4.79 2.83-2.86 4.14-4.37 2.7-2.96 4.04-4.44 3.36-2.33 4.74-3.78 1.73-3.9 3.14-5.31 2.92-2.76 4.37-4.14 3.58-2.03 5.06-3.37 3.15-2.45 4.67-3.76 2.5-3.23 4.04-4.5 2.92-2.76 4.5-4c1.57-1.23 3.07-2.59 4.68-3.78 1.6-1.19 3.79-1.59 5.43-2.75 1.63-1.15 3.05-2.62 4.71-3.74 1.66-1.11 3.01-2.72 4.7-3.79s3.67-1.69 5.38-2.72 3.27-2.35 5.01-3.34 3.47-2.03 5.23-2.97 4.07-.84 5.86-1.74 3.55-1.81 5.36-2.66 3.13-2.78 4.95-3.59 3.94-.98 5.79-1.75c1.84-.77 3.98-.79 5.85-1.51 1.86-.72 3.25-2.73 5.13-3.41 1.88-.67 3.92-.92 5.82-1.55s3.93-.83 5.85-1.41c1.91-.58 3.61-1.91 5.54-2.44s4.1-.12 6.05-.61c1.94-.49 3.67-1.86 5.62-2.29 1.95-.44 4.03-.29 6-.68 1.96-.39 3.93-.75 5.9-1.09s4.04 0 6.02-.3c1.97-.29 3.83-1.46 5.82-1.7s4.07.54 6.07.34 3.93-.82 5.93-.97c1.99-.15 3.95-.79 5.96-.88s4 .03 6.01-.02c1.99-.05 4 .07 6 .07s4-.56 5.98-.51c1.99.05 3.97.69 5.95.78 1.99.1 3.98.21 5.96.35 1.99.14 3.99.13 5.97.32s3.94.62 5.91.85c1.98.24 3.93.64 5.9.92 1.97.29 3.99.25 5.95.59 1.96.33 3.94.62 5.89 1s3.95.59 5.89 1.02 3.84 1.11 5.77 1.58 3.86 1.01 5.78 1.53 3.91.84 5.82 1.41 3.73 1.44 5.62 2.06 3.51 2.02 5.39 2.69 3.8 1.16 5.66 1.87 3.71 1.41 5.55 2.17 4.07.6 5.9 1.4 3.73 1.45 5.54 2.29c1.8.85 3.22 2.49 5 3.38s3.71 1.5 5.47 2.43 3.35 2.18 5.08 3.16 3.55 1.81 5.26 2.83 3.61 1.74 5.29 2.81c1.68 1.06 3.14 2.49 4.8 3.59s3.17 2.41 4.8 3.55 3.7 1.68 5.3 2.87c1.6 1.18 2.58 3.19 4.15 4.41s3.25 2.29 4.79 3.56c1.54 1.26 3.59 1.92 5.1 3.22s2.47 3.22 3.95 4.56c1.48 1.33 3.53 2.05 4.98 3.43s1.96 3.69 3.37 5.1c1.41 1.4 3.65 2 5.02 3.44s2.34 3.27 3.69 4.74 2.18 3.38 3.48 4.89 3.31 2.41 4.58 3.94 1.69 2.06 1.94 4.55c.26 2.49-.31 3.62-.89 5.38s-1.18 3.56-1.65 5.36.32 3.88-.03 5.7-1.62 3.49-1.85 5.33-.78 3.69-.9 5.54.15 3.75.15 5.61c0 2.03 1.13 4.01 1.27 6.01.14 2.03.11 4.03.39 6.01s-.11 4.13.31 6.09c.42 1.99 1.11 3.91 1.67 5.85.56 1.95 1.45 3.78 2.14 5.68s1.49 3.75 2.31 5.59 1.98 3.51 2.92 5.29c.95 1.79 1.1 4.03 2.17 5.74 1.07 1.72 2.84 2.97 4.02 4.61s2.7 2.98 3.99 4.53 1.67 3.92 3.07 5.38 3.2 2.54 4.7 3.9 3.01 2.71 4.6 3.96 3.59 1.92 5.26 3.06 2.9 2.95 4.65 3.98c1.74 1.02 3.73 1.6 5.55 2.5s3.46 2.17 5.33 2.95 3.81 1.41 5.73 2.05 3.97.81 5.94 1.31c1.95.5 3.97.61 5.97.97s3.65-.1 5.59 1.63c1.94 1.74.56 3.94.77 6.07s.94 4.2 1.09 6.33-.46 4.29-.35 6.43c.1 2.12.48 4.24.53 6.38s-.1 4.26-.1 6.39c0 1.99.3 3.98.25 5.97s-.76 3.95-.85 5.94 1.03 4.05.89 6.03c-.13 1.99-1.6 3.87-1.78 5.85s.47 4.04.24 6.02c-.22 1.98-.78 3.92-1.05 5.88-.27 1.98-.92 3.88-1.23 5.84-.31 1.97-.55 3.93-.9 5.89-.36 1.96.09 4.07-.31 6.02s-.55 3.97-.99 5.9c-.44 1.94-1.3 3.79-1.78 5.72s-1.41 3.75-1.94 5.66c-.53 1.92-.28 4.07-.86 5.97-.58 1.91-2.4 3.42-3.02 5.31s-.38 4.07-1.04 5.95-.94 3.91-1.64 5.77-2.09 3.47-2.83 5.31c-.75 1.85-2.1 3.43-2.89 5.25s-.91 3.95-1.74 5.75c-.83 1.81-1.65 3.63-2.52 5.42s-1.89 3.51-2.8 5.28-1.81 3.55-2.76 5.29c-.95 1.75-1.95 3.47-2.93 5.2-.99 1.73-2.28 3.27-3.3 4.98-1.03 1.71-1.24 3.92-2.3 5.6s-2.32 3.25-3.42 4.91-3 2.77-4.14 4.4-1.32 3.95-2.5 5.56-2.79 2.89-4 4.47-2.24 3.31-3.49 4.86-2.72 2.92-4 4.45c-1.28 1.52-2.63 2.99-3.94 4.49-1.31 1.49-2.65 2.98-3.99 4.44s-3.29 2.36-4.67 3.8-2.62 2.99-4.03 4.39-2.91 2.7-4.35 4.07-2.55 3.09-4.02 4.43-3.06 2.54-4.56 3.85-2.75 2.9-4.28 4.18c-1.53 1.27-3.43 2.09-4.99 3.32s-3.18 2.37-4.77 3.57-3.14 2.43-4.75 3.59-3.02 2.6-4.66 3.74c-1.64 1.13-3.04 2.61-4.7 3.71-1.66 1.09-3.78 1.48-5.46 2.54s-3.48 1.91-5.19 2.92-3.07 2.62-4.8 3.6-3.74 1.45-5.49 2.39-3.29 2.29-5.06 3.19-3.51 1.88-5.3 2.74-3.38 2.18-5.2 3-4.08.6-5.91 1.38-3.41 2.16-5.26 2.9c-1.85.73-4.02.61-5.89 1.3-1.86.69-3.27 2.67-5.15 3.32s-4.22-.07-6.11.54-3.64 1.65-5.55 2.21-3.83 1.04-5.75 1.56-3.65 1.78-5.58 2.26-4.03.24-5.97.68-3.82 1.15-5.77 1.54-3.83 1.2-5.79 1.55-4.08-.28-6.05.02c-1.96.3-3.95.34-5.93.6-1.97.26-4.03.78-6.01.99s-5.18-.04-6.09.3c-.9.35-2.12 2.66-3.21 4.08s-3.44 4.5-3.14 5.17 4.15-.19 6.14-.35 3.97-.51 5.95-.71 3.96-.56 5.93-.81c1.98-.25 3.95-.56 5.92-.85 1.98-.29 4-.29 5.96-.62s3.99-.41 5.95-.79 3.88-.98 5.83-1.4 4.01-.43 5.95-.89 3.87-1.05 5.8-1.55c1.93-.51 3.9-.94 5.81-1.48 1.92-.55 3.46-2.38 5.36-2.97 1.91-.59 4.09-.31 5.98-.94s3.58-1.87 5.45-2.54c1.88-.67 4.11-.41 5.97-1.13s3.48-2.08 5.32-2.84c1.85-.76 3.58-1.78 5.41-2.57 1.83-.8 3.99-.87 5.8-1.7s3.16-2.64 4.96-3.52 4.05-.82 5.83-1.74c1.77-.92 3.15-2.59 4.9-3.55s3.58-1.77 5.31-2.76 3.22-2.38 4.93-3.41 4-1.13 5.68-2.19c1.69-1.07 3.01-2.71 4.67-3.81s3.63-1.77 5.27-2.9c1.64-1.14 3.26-2.32 4.87-3.5s2.71-3.04 4.3-4.25 3.32-2.22 4.88-3.47 3-2.63 4.53-3.91 3.38-2.19 4.88-3.5 2.47-3.22 3.94-4.57c1.48-1.34 3.59-2 5.03-3.38 1.45-1.37 2.46-3.2 3.88-4.6s3.45-2.21 4.84-3.64 1.75-3.84 3.1-5.3c1.35-1.47 3.62-2.1 4.94-3.6 1.32-1.49 2.43-3.19 3.72-4.71s2.54-3.08 3.8-4.63c1.25-1.55 2.78-2.9 4-4.48s2.14-3.39 3.33-5c1.19-1.6 1.85-3.58 3-5.21s2.09-3.4 3.2-5.05 2.81-2.92 3.89-4.6 2.13-3.38 3.17-5.08 1.35-3.83 2.36-5.56c1-1.72 3.1-2.82 4.07-4.57.97-1.74 1.16-3.91 2.09-5.68s1.59-3.65 2.48-5.44c.89-1.78 2.91-3.03 3.76-4.83s.9-3.98 1.71-5.8 1.97-3.5 2.74-5.34.98-3.9 1.71-5.76 1.68-3.62 2.37-5.5c.69-1.87 1.24-3.79 1.89-5.68.64-1.89 1.54-3.69 2.14-5.6.6-1.9 1.15-3.82 1.71-5.74s.55-3.98 1.07-5.91c.52-1.92 1.31-3.77 1.79-5.71.48-1.93.89-3.88 1.32-5.83s1.48-3.76 1.87-5.72.81-3.91 1.16-5.88c.35-1.96-.29-4.09.01-6.06s1.82-3.77 2.08-5.75c.26-1.97-.69-4.1-.47-6.09.22-1.98 1.63-3.85 1.8-5.84s.17-4 .3-6-.29-4.01-.2-6.01c.09-1.99-.28-3.99-.24-5.99.04-1.99.03-3.98.03-5.98s.68-3.87.64-5.79-.54-3.84-.62-5.77.42-3.89.3-5.81-.88-3.81-1.04-5.72c-.16-1.92.09-3.89-.11-5.8-.2-1.92-.36-3.85-.6-5.76-.24-1.92-1.08-3.75-1.36-5.65-.28-1.91.32-3.96 0-5.86s-1.01-4.15-1.98-5.19-7.29-2.54-8.41-1.85.85 5.32 1.27 7.78 2.66 5 1.15 6.3-3.57 1.06-5.47.67-3.77-1.21-5.63-1.73-3.75-1.18-5.57-1.84-3.37-2.07-5.14-2.87c-1.79-.8-3.42-1.8-5.13-2.72-1.72-.92-3.63-1.46-5.28-2.5s-3.39-1.95-4.96-3.11-2.91-2.6-4.39-3.86c-1.48-1.27-3.44-2.04-4.82-3.41s-1.93-3.54-3.22-5.01-2.64-2.83-3.82-4.39c-1.18-1.55-2.48-3-3.55-4.63-1.06-1.63-2.48-3.06-3.43-4.77-.94-1.7-.87-3.91-1.69-5.69s-2.77-3.06-3.46-4.89-1.22-3.74-1.78-5.61-.92-3.81-1.34-5.73c-.42-1.9-.53-3.87-.81-5.81-.28-1.92-.55-3.86-.7-5.82-.14-1.93-.37-3.89-.37-5.86 0-2.14.68-4.24.85-6.36.17-2.13.7-4.18 1.03-6.28s-.46-4.44.03-6.51c.5-2.07 1.34-4.09 1.99-6.12.66-2.03 1.22-4.13 2.04-6.1.81-1.97 2.27-3.67 3.24-5.57s2.36-3.54 3.47-5.36c.96-1.56 1.79-3.85 3.83-4.29z"/></g></svg>