<svg viewBox="0 0 293.46 88.47" xmlns="http://www.w3.org/2000/svg"><g fill="#fff"><path d="m44.08 0a44.23 44.23 0 0 0 -44.08 40.69l23.71 9.8a12.49 12.49 0 0 1 7.05-2.18h.69l10.55-15.26v-.22a16.68 16.68 0 1 1 16.68 16.69h-.38l-15 10.73v.6a12.52 12.52 0 0 1 -24.8 2.46l-17-7a44.24 44.24 0 1 0 42.58-56.31z"/><path d="m27.72 67.12-5.43-2.24a9.4 9.4 0 1 0 5.14-12.88l5.57 2.35a6.92 6.92 0 1 1 -5.32 12.77z"/><path d="m69.8 32.83a11.12 11.12 0 1 0 -11.12 11.17 11.13 11.13 0 0 0 11.12-11.17zm-19.45 0a8.35 8.35 0 1 1 8.35 8.35 8.35 8.35 0 0 1 -8.35-8.36z"/><path d="m135.56 30.27-3 5.21a14.8 14.8 0 0 0 -8.08-2.56c-3.08 0-5 1.28-5 3.57 0 2.78 3.39 3.43 8.43 5.24 5.42 1.91 8.54 4.17 8.54 9.13 0 6.79-5.34 10.61-13 10.61a23.63 23.63 0 0 1 -11.73-3.08l2.16-5.77a20.5 20.5 0 0 0 9.2 2.37c4 0 6-1.5 6-3.71 0-2.52-2.94-3.29-7.68-4.85-5.4-1.81-9.15-4.18-9.15-9.67 0-6.2 5-9.76 12.11-9.76a19 19 0 0 1 11.2 3.27z"/><path d="m158.73 33.56v27.34h-7v-27.34h-10.1v-6h27.2v6z"/><path d="m183.55 33.54v7.51h13.35v6h-13.35v7.82h15.45v6h-22.43v-33.3h22.43v6z"/><path d="m214.62 54.43-2.21 6.47h-7.31l12.49-33.33h7l12.88 33.33h-7.57l-2.25-6.47zm6.44-18.91-4.55 13.35h9.2z"/><path d="m273.28 40.45-9.12 19.48h-3.94l-9-19.3v20.27h-6.68v-33.33h6.67l11.2 24.06 10.8-24.06h6.79v33.33h-6.69z"/><path d="m293.46 31.78a4.62 4.62 0 1 1 -4.61-4.64 4.5 4.5 0 0 1 4.61 4.64zm-8.46 0a3.84 3.84 0 1 0 7.68 0 3.84 3.84 0 1 0 -7.68 0zm3.91-2.37c1.2 0 1.6.63 1.6 1.31a1.35 1.35 0 0 1 -.82 1.26l1.07 2h-.88l-.9-1.78h-.93v1.8h-.73v-4.59zm-.86 2.13h.82a.76.76 0 0 0 .84-.75c0-.42-.23-.69-.84-.69h-.82z"/></g></svg>